if (_typeface_js && _typeface_js.loadFace) _typeface_js.loadFace({"glyphs":{"¦":{"x_min":75,"x_max":123,"ha":185,"o":"m 123 454 l 123 0 l 75 0 l 75 454 l 123 454 m 75 605 l 75 1048 l 123 1048 l 123 605 l 75 605 "},"Á":{"x_min":26,"x_max":1281.265625,"ha":1074,"o":"m 845 840 l 719 877 q 598 893 651 893 q 297 769 419 893 q 192 543 194 661 q 217 461 192 499 q 293 431 241 433 q 456 555 389 431 q 509 765 507 656 l 510 776 l 513 773 q 539 656 537 727 q 487 493 539 558 q 298 414 424 414 q 204 448 239 414 q 174 543 176 485 q 288 787 174 671 q 628 920 419 917 l 664 918 q 721 912 691 918 l 768 911 l 872 897 l 993 886 l 1098 880 q 1203 895 1167 880 q 1281 954 1239 906 q 1215 847 1260 887 q 1076 794 1163 796 l 1023 795 l 973 805 l 845 840 m 711 439 q 662 279 687 327 q 545 104 616 170 q 211 -8 413 -8 q 70 25 122 -8 q 26 111 28 57 q 104 232 26 187 q 175 261 138 251 q 191 264 182 262 q 214 268 200 265 q 237 269 222 269 q 258 271 251 270 l 272 265 l 264 261 q 121 226 183 261 q 48 114 50 185 q 85 42 48 75 q 201 13 123 13 q 416 119 326 13 q 543 358 478 194 l 615 550 q 694 694 651 643 l 730 730 l 769 763 q 839 799 787 778 l 845 801 l 844 797 q 760 640 798 764 l 718 468 q 773 486 737 476 l 818 496 l 856 498 q 977 458 929 498 q 1040 316 1040 408 q 966 101 1040 204 q 752 -17 881 -14 q 665 8 693 -17 q 640 78 641 33 q 684 216 640 154 q 793 295 727 279 q 700 212 742 279 q 660 79 662 148 q 673 26 660 50 q 722 7 686 9 q 884 167 816 7 q 939 385 939 293 q 845 474 939 472 q 773 464 806 474 q 711 439 740 456 "},"е":{"x_min":-5,"x_max":400,"ha":390,"o":"m 381 360 q 343 283 381 330 q 254 214 307 239 l 230 205 l 196 196 l 134 187 l 112 132 l 105 75 q 118 23 105 47 q 163 4 130 6 q 292 66 226 4 q 383 184 319 92 l 392 191 l 400 182 l 394 169 q 301 49 342 92 q 167 -13 238 -13 q 42 28 91 -13 q -5 145 -2 69 q 76 319 -5 237 q 305 410 167 407 q 381 360 379 410 m 143 205 l 190 209 l 222 218 l 249 230 q 329 293 296 251 q 363 361 361 334 q 324 392 363 389 q 291 383 311 392 q 249 351 272 376 q 240 341 245 346 q 230 332 235 336 q 189 280 215 317 q 143 205 159 237 "},"Î":{"x_min":76.3125,"x_max":832.96875,"ha":682,"o":"m 819 798 q 795 865 819 837 q 705 901 767 898 q 463 794 568 901 q 283 500 372 703 q 243 398 272 474 q 205 290 223 346 q 173 119 175 192 q 194 33 173 66 q 269 3 214 5 q 477 119 367 3 q 652 443 589 237 l 686 576 q 703 697 703 647 q 689 765 703 738 q 642 793 676 790 q 424 577 526 793 q 332 196 334 377 l 333 163 q 326 141 333 143 l 323 147 l 319 165 l 318 204 q 323 302 318 258 q 341 400 328 355 q 416 598 362 489 q 645 810 520 807 q 715 776 687 810 q 737 687 735 739 q 723 576 737 635 l 689 440 q 620 269 662 348 q 520 127 578 191 q 272 -14 397 -14 q 122 60 176 -14 q 76 241 76 127 q 92 381 76 301 q 137 514 110 461 q 330 775 211 669 q 541 892 427 855 q 699 918 629 915 q 803 880 766 918 q 832 801 832 848 l 828 770 q 821 755 828 762 l 817 752 l 813 759 l 814 770 q 819 798 819 780 "},"e":{"x_min":-5,"x_max":372,"ha":362,"o":"m 237 199 l 179 178 l 125 174 l 105 120 l 98 70 q 111 22 98 47 q 153 4 123 6 q 272 61 212 4 q 356 172 309 96 l 364 177 l 372 170 l 369 161 l 330 106 l 303 73 q 155 -11 233 -8 q 32 33 76 -11 q -5 134 -5 70 q 80 305 -5 231 q 284 380 165 380 q 355 334 355 380 q 351 312 355 325 q 319 262 341 288 q 237 199 285 221 m 231 213 q 306 270 275 233 q 338 334 336 305 q 299 363 338 363 q 218 312 267 363 q 133 191 171 263 l 150 191 l 180 195 q 231 213 203 200 "},"»":{"x_min":107,"x_max":547,"ha":588,"o":"m 352 487 l 359 494 l 363 493 q 384 480 376 488 q 490 376 427 445 q 547 298 542 318 q 444 204 547 282 l 319 116 l 305 109 l 301 108 l 294 115 q 312 139 294 120 q 412 225 361 172 q 467 295 465 278 q 422 384 467 307 q 367 459 395 425 q 352 487 359 469 m 165 487 l 173 494 l 180 491 l 198 480 q 300 379 240 443 q 359 298 357 316 q 295 233 359 289 l 133 116 l 119 109 l 115 108 l 107 115 q 112 123 109 119 q 125 139 113 124 q 225 225 175 169 q 280 295 276 278 q 248 362 280 315 q 180 459 219 415 q 165 487 172 469 "},"ò":{"x_min":-11,"x_max":837,"ha":828,"o":"m 424 411 q 496 383 471 411 q 517 329 517 360 l 515 305 q 578 375 537 336 q 655 410 619 407 q 707 386 688 410 q 727 326 725 365 q 713 259 727 295 q 673 186 701 226 q 646 147 659 166 q 635 124 641 135 q 627 108 630 113 q 609 47 611 69 q 645 13 609 13 q 749 92 682 13 l 817 184 l 831 195 l 837 187 l 829 170 q 811 143 812 144 q 793 119 808 137 l 763 77 q 630 -8 696 -5 q 553 10 582 -8 q 527 72 530 25 q 551 163 527 114 l 633 305 q 662 374 662 355 q 646 390 662 384 q 563 334 616 390 q 476 221 518 284 l 362 0 l 256 0 l 423 326 l 433 348 l 437 372 q 417 392 437 386 q 359 357 394 392 l 326 318 l 263 237 l 141 0 l 33 0 l 209 331 l 219 353 l 225 374 q 209 386 225 379 q 91 291 167 386 l 4 173 l -2 169 l -11 176 l -6 183 l 115 345 q 222 411 176 408 q 279 387 259 411 q 298 331 296 366 l 295 309 q 351 375 323 345 q 424 411 387 408 "},"^":{"x_min":100,"x_max":283,"ha":361,"o":"m 104 458 l 100 462 l 106 483 l 167 594 q 224 683 217 681 l 231 663 l 250 601 l 279 479 l 283 463 l 279 458 l 277 455 l 266 470 l 215 611 l 120 475 l 109 462 l 104 458 "},"«":{"x_min":28,"x_max":468,"ha":528,"o":"m 222 106 l 215 100 l 211 101 q 190 113 198 105 q 144 155 169 132 q 89 212 111 188 q 28 295 34 273 q 130 388 28 312 l 255 477 l 266 483 l 273 484 l 280 479 q 262 455 280 473 q 162 370 218 427 q 106 298 109 314 q 153 209 106 286 l 206 134 q 222 106 215 124 m 409 106 l 401 100 l 394 102 l 376 113 q 277 212 341 142 q 215 295 217 279 q 279 359 215 308 l 441 477 l 454 483 l 459 484 l 468 479 q 462 469 465 473 q 450 455 461 466 q 350 369 401 424 q 294 298 299 314 q 326 229 294 285 q 394 134 355 178 q 409 106 403 124 "},"к":{"x_min":-23,"x_max":532,"ha":517,"o":"m 82 0 l -23 0 l 165 370 l 99 294 l 4 170 l 0 165 l -10 173 l -4 184 l 45 252 l 111 333 l 178 408 l 190 419 l 301 432 l 82 0 m 532 377 q 522 348 532 360 q 491 336 513 339 q 459 345 475 336 q 448 376 455 350 l 452 400 q 414 338 431 395 q 390 294 405 309 q 352 276 377 282 q 394 200 394 255 q 389 161 394 177 l 372 120 q 352 58 355 90 q 371 34 352 41 q 451 100 402 34 l 514 187 l 520 194 l 524 195 l 532 190 l 530 184 l 523 173 q 415 34 467 85 q 329 -8 371 -5 q 273 10 292 -8 q 258 61 260 24 q 271 132 258 94 q 307 196 283 170 l 332 226 l 343 251 q 334 272 343 263 l 304 266 l 290 265 q 239 286 245 265 q 280 308 239 306 q 312 301 299 308 l 338 286 q 402 344 380 286 l 412 370 l 423 389 q 445 407 427 398 q 487 419 459 416 q 520 406 508 419 q 532 377 524 402 "},"í":{"x_min":-8,"x_max":607,"ha":596,"o":"m 252 194 l 153 0 l 42 0 l 212 325 l 223 364 q 191 392 223 389 q 74 273 163 392 l 13 183 l 0 174 l -3 173 l -8 177 l -2 191 l 62 287 q 121 363 93 331 l 162 400 q 216 414 188 411 q 275 384 254 414 q 295 316 295 357 q 280 253 295 276 l 261 219 l 343 219 l 443 395 l 552 404 l 382 78 q 373 41 373 60 q 380 15 373 25 q 404 5 389 7 q 512 78 451 5 l 586 181 l 595 189 l 599 192 l 607 185 l 599 173 l 565 120 l 529 75 q 401 -8 458 -8 q 326 21 351 -8 q 301 91 301 50 q 308 141 301 124 l 333 194 l 252 194 "},"µ":{"x_min":1,"x_max":522,"ha":625,"o":"m 463 11 q 448 0 460 5 l 394 0 q 378 6 385 0 l 376 11 l 390 119 l 387 122 q 311 34 349 63 q 258 9 284 18 q 199 0 234 2 q 155 5 173 0 q 119 40 139 11 l 94 -213 q 80 -225 91 -218 l 18 -225 q 3 -218 11 -225 l 1 -213 l 77 576 q 92 587 81 581 l 152 587 q 167 580 160 587 l 170 576 l 137 237 l 135 208 q 160 120 135 154 q 228 90 185 92 q 355 165 300 90 q 401 306 392 223 l 429 576 q 442 587 432 580 l 504 587 q 519 580 512 587 l 522 576 l 463 11 "},"’":{"x_min":204,"x_max":379,"ha":380,"o":"m 294 780 q 304 813 294 801 q 338 830 314 825 q 379 785 376 830 q 373 751 379 766 q 316 684 362 720 l 237 627 l 204 609 l 213 619 l 266 658 q 315 722 313 694 l 309 737 q 294 780 296 754 "},"-":{"x_min":25,"x_max":330,"ha":353,"o":"m 282 251 q 318 258 304 251 l 324 259 l 330 255 l 324 247 q 274 225 311 237 l 220 215 l 183 216 l 153 226 q 74 240 113 238 l 38 236 l 33 234 l 25 239 l 33 245 l 94 268 l 137 275 l 174 273 q 202 263 183 273 l 239 255 l 282 251 "},"Q":{"x_min":25.09375,"x_max":840,"ha":800,"o":"m 25 61 q 74 129 25 97 q 213 156 127 153 q 339 139 274 156 l 377 127 q 398 119 390 124 q 418 108 407 115 q 554 248 496 172 q 654 412 612 324 q 712 683 709 537 q 685 784 712 746 q 609 822 660 822 q 345 692 465 822 q 241 457 241 576 q 265 382 241 411 q 342 353 291 353 q 485 464 425 353 q 535 656 535 559 l 534 676 l 535 688 l 538 685 q 559 576 559 644 q 513 413 559 480 q 342 333 457 335 q 251 366 289 333 q 222 458 223 399 q 331 707 222 582 q 610 842 452 839 q 787 772 728 842 q 840 611 837 714 q 767 377 840 489 q 457 95 680 237 q 530 79 481 87 q 623 70 575 70 q 730 97 690 70 q 796 175 760 117 l 806 183 l 812 186 l 814 182 l 809 165 q 696 32 729 56 q 540 -14 630 -14 q 436 3 490 -14 q 355 39 396 14 l 268 3 q 179 -13 224 -10 q 60 5 99 -13 q 25 61 27 23 m 40 61 q 178 3 40 3 q 208 4 202 3 q 242 14 219 4 l 292 32 q 307 37 304 36 q 331 51 310 39 l 247 95 q 149 122 191 119 q 72 105 105 122 q 40 61 42 91 "},"Ш":{"x_min":222,"x_max":1709.6875,"ha":1532,"o":"m 1270 276 l 1580 890 l 1709 900 l 1343 174 q 1318 112 1329 147 q 1308 63 1310 87 q 1351 15 1308 17 q 1449 83 1386 15 q 1530 192 1472 109 l 1538 199 l 1543 200 l 1549 193 q 1544 177 1549 184 l 1490 96 q 1340 -8 1410 -8 q 1249 23 1282 -8 q 1225 103 1225 52 l 1226 148 l 1230 167 l 1239 193 q 1138 82 1223 162 q 973 -8 1040 -5 q 877 28 905 -8 q 855 106 857 56 q 858 142 855 134 l 863 171 q 791 72 841 126 q 652 -7 718 -7 q 525 40 569 -7 q 490 155 492 80 q 616 479 490 272 l 703 622 q 762 793 762 727 q 724 897 762 855 q 614 939 688 939 q 344 807 459 939 q 240 560 240 688 q 269 465 240 505 q 360 430 297 432 q 510 560 453 430 q 558 771 555 666 l 556 793 l 556 798 l 559 809 l 562 813 l 567 809 l 576 792 q 592 674 592 736 q 541 493 592 560 q 360 413 481 415 q 256 454 291 413 q 222 561 224 495 q 329 818 222 694 q 613 956 447 956 q 798 883 730 956 q 858 714 855 818 q 833 590 858 661 q 757 424 810 524 l 653 253 q 590 84 592 142 q 652 15 590 17 q 799 117 715 15 q 903 276 864 195 l 1213 890 l 1344 900 l 976 174 q 951 112 961 141 q 941 63 943 86 q 985 15 941 17 q 1130 109 1027 15 q 1270 276 1230 200 "},"M":{"x_min":21,"x_max":1215,"ha":1199,"o":"m 633 39 q 650 14 633 14 q 740 153 670 14 l 870 433 q 1051 720 949 598 l 1122 797 q 1187 854 1151 827 q 1120 658 1157 790 l 1054 407 l 1015 242 q 994 95 994 147 q 1042 12 994 12 q 1145 96 1081 12 l 1198 180 l 1206 188 l 1215 182 l 1212 172 q 1134 48 1158 77 q 1033 -8 1089 -5 q 928 42 966 -8 q 894 179 896 95 l 895 233 l 903 282 l 917 344 l 937 405 q 1037 632 978 525 q 1080 705 1053 662 q 1142 794 1105 743 q 1012 644 1086 746 q 885 423 957 562 l 785 212 q 708 56 729 86 q 642 -5 671 -2 q 576 24 601 -5 q 555 108 555 53 q 633 412 555 232 q 758 654 685 539 q 781 693 779 690 q 806 726 785 701 l 865 801 q 826 763 851 790 q 814 750 821 758 q 797 732 806 742 l 675 586 q 629 523 654 560 q 575 438 605 487 q 512 330 545 389 q 355 89 408 148 q 164 -15 266 -15 q 62 20 105 -15 q 21 118 21 56 q 44 180 21 156 q 107 205 69 205 q 165 182 145 205 q 187 122 185 161 q 161 59 187 84 q 82 36 138 38 q 165 3 111 3 q 415 201 291 3 l 663 597 q 777 733 713 662 q 905 854 849 813 l 755 405 l 699 254 q 633 39 633 82 "},"œ":{"x_min":-8,"x_max":703,"ha":739,"o":"m 252 194 l 153 0 l 42 0 l 212 325 l 223 364 q 191 392 223 389 q 74 273 163 392 l 13 183 l 0 174 l -3 173 l -8 177 l -2 191 l 62 287 q 121 363 93 331 l 162 400 q 217 414 188 411 q 275 384 254 414 q 295 316 295 357 l 295 299 q 293 281 295 288 l 276 245 l 261 219 l 343 219 l 443 395 l 552 404 l 480 274 l 519 289 l 562 296 q 659 259 616 296 q 703 162 700 224 q 654 48 703 99 q 480 -14 593 -14 q 357 20 402 -14 q 314 115 316 55 q 333 194 314 155 l 252 194 m 409 91 q 430 29 409 56 q 485 2 451 4 q 587 73 537 2 q 616 135 606 108 q 620 152 618 141 q 623 166 622 162 q 625 183 624 172 q 626 201 625 195 q 611 253 626 234 q 547 278 592 278 q 501 269 521 278 l 468 250 l 425 154 q 409 91 412 119 "},"{":{"x_min":-14,"x_max":570,"ha":321,"o":"m 570 897 q 536 887 570 889 q 448 873 473 887 q 378 813 424 861 q 312 677 340 767 q 263 534 275 552 q 202 466 242 484 l 156 454 l 98 448 q 164 415 139 440 q 189 349 189 392 q 166 247 189 298 l 144 205 l 113 158 l 60 79 q 37 1 39 40 q 56 -56 37 -41 q 140 -82 77 -73 q 171 -92 170 -82 q 131 -102 171 -100 q 30 -79 63 -102 q -14 17 -11 -50 q 11 109 -14 59 q 67 195 21 131 l 120 280 q 145 373 145 330 q 131 408 145 394 q 59 447 120 420 q 145 479 109 455 q 205 543 182 499 q 259 695 218 570 q 336 838 290 790 q 414 893 377 879 q 497 908 449 906 l 535 908 q 570 897 568 908 "},"¼":{"x_min":-440,"x_max":339,"ha":301,"o":"m 132 344 l 6 174 l 0 166 l -3 165 l -10 173 l -3 187 l 68 291 l 144 395 l 265 403 l 53 -17 l 108 0 q 157 24 122 3 q 218 77 194 49 l 297 186 q 309 194 299 194 l 315 187 l 311 174 q 187 26 244 70 q 43 -36 137 -11 l 1 -122 l -52 -225 q -184 -362 -99 -308 q -344 -420 -269 -417 q -412 -400 -387 -420 q -440 -339 -437 -383 q -415 -261 -440 -304 q -338 -189 -390 -224 q -174 -97 -286 -156 l -66 -46 l 132 344 m 293 618 q 326 604 314 618 q 339 569 339 591 q 322 526 339 548 q 276 506 308 508 q 239 519 251 506 q 226 552 226 531 q 243 597 226 576 q 293 618 260 618 m -76 -70 l -169 -115 q -294 -186 -229 -144 q -369 -266 -340 -215 q -399 -358 -397 -317 q -352 -404 -399 -404 q -247 -351 -301 -404 q -163 -243 -210 -314 l -111 -138 l -76 -70 "},"#":{"x_min":30,"x_max":458,"ha":461,"o":"m 224 445 l 338 445 l 395 557 l 402 565 q 416 555 414 565 l 413 545 l 362 445 l 442 445 q 458 436 451 445 q 439 424 458 424 l 352 424 l 296 317 l 381 317 q 395 308 389 317 q 374 297 395 303 l 285 297 l 226 177 l 218 170 l 214 169 q 203 177 209 169 l 206 185 l 263 297 l 149 297 l 92 183 l 84 175 l 80 174 l 71 178 l 73 192 l 124 297 l 43 297 l 32 301 l 30 304 q 47 317 30 317 l 135 317 l 191 424 l 106 424 q 94 433 94 424 q 113 445 94 438 l 200 445 l 257 557 q 271 568 260 562 q 279 557 279 568 l 277 549 l 224 445 m 159 317 l 273 317 l 328 424 l 214 424 l 159 317 "},"Ê":{"x_min":7,"x_max":1286.46875,"ha":1085,"o":"m 957 690 q 1065 850 1033 817 q 1258 926 1139 924 q 1279 923 1276 926 l 1286 919 l 1281 916 l 1262 912 q 1171 890 1207 912 q 1111 829 1133 869 l 1050 694 q 958 568 1015 620 q 837 495 905 519 q 850 461 843 485 q 857 428 856 430 q 858 397 857 412 l 864 251 l 865 150 q 866 105 865 122 q 872 61 866 83 q 901 18 876 20 q 1008 91 943 18 q 1018 104 1014 98 q 1029 117 1023 110 q 1043 136 1035 125 q 1086 197 1061 161 l 1096 211 l 1100 212 l 1105 205 l 1104 198 l 1096 183 l 1046 111 l 1005 62 q 875 -8 938 -8 q 713 130 715 -8 l 713 157 l 717 187 l 730 252 l 757 350 q 787 489 785 461 q 750 490 758 489 q 719 501 738 490 q 698 530 702 509 q 701 536 698 533 q 711 547 701 538 q 734 554 718 552 q 789 544 765 554 q 826 516 815 535 q 957 690 864 537 m 438 281 l 495 430 q 530 516 510 473 q 577 616 558 577 q 647 723 605 671 q 711 793 660 741 l 623 752 q 516 727 560 727 q 461 744 482 727 q 443 797 445 760 l 443 819 q 438 845 443 835 q 422 854 438 851 q 352 810 397 854 q 318 773 343 801 q 284 732 301 754 l 271 713 l 266 711 q 275 734 266 719 q 381 852 317 810 q 491 896 445 893 q 526 882 512 896 q 540 826 538 870 q 547 773 540 783 q 577 761 555 765 q 704 804 634 761 q 805 898 761 838 q 826 911 814 911 l 833 904 l 830 890 q 770 790 808 857 l 730 683 l 629 391 q 562 237 592 289 q 401 52 500 124 q 191 -17 308 -14 q 62 16 113 -17 q 7 115 9 53 q 76 219 7 178 q 225 262 146 260 l 239 262 l 254 258 l 243 255 q 104 219 166 255 q 32 115 34 178 q 80 33 32 66 q 193 3 133 5 q 350 103 273 3 q 438 281 390 159 m 733 540 l 718 536 l 715 532 q 732 511 715 523 q 789 502 748 502 q 775 527 789 515 q 733 540 762 540 "},")":{"x_min":35.890625,"x_max":413,"ha":319,"o":"m 222 885 l 225 890 l 233 884 l 257 866 q 357 710 316 802 q 399 585 384 648 q 403 559 400 576 q 408 524 405 543 q 413 460 413 488 q 312 148 413 313 q 77 -77 214 -13 l 41 -87 l 35 -84 q 65 -55 35 -76 q 225 160 155 7 q 265 278 249 219 q 288 401 280 337 q 298 535 296 464 q 231 860 298 718 q 222 885 222 875 "},"э":{"x_min":-8.46875,"x_max":438,"ha":457,"o":"m 206 380 q 223 370 215 380 q 235 341 231 362 q 223 311 235 327 q 194 301 219 308 q 152 341 152 301 q 174 387 152 371 q 277 413 206 413 q 389 368 341 413 q 438 258 435 325 q 363 80 438 162 q 121 -13 274 -10 q 22 13 52 -13 q -8 83 -6 37 q 12 138 -8 113 q 35 155 23 149 q 68 161 46 159 l 95 156 q 105 144 103 151 l 101 138 l 97 135 l 86 138 l 66 141 q 29 126 44 141 q 13 87 15 114 q 37 28 13 50 q 120 8 60 8 q 277 119 211 8 q 336 317 336 217 q 320 372 336 353 q 276 393 308 393 q 234 390 240 393 q 206 380 222 390 m 163 266 q 205 234 193 266 q 254 204 218 206 q 281 209 269 204 l 304 223 l 313 226 l 316 223 l 311 216 l 266 188 l 239 179 l 218 177 q 176 198 189 177 q 154 227 168 219 l 126 237 l 102 231 l 77 219 l 70 216 l 66 219 l 73 229 l 112 252 q 163 266 131 259 "},"Å":{"x_min":150,"x_max":843.984375,"ha":755,"o":"m 558 578 q 666 562 625 578 q 708 515 708 545 q 658 483 708 485 q 578 500 625 483 q 503 552 535 516 q 349 430 407 519 q 284 181 286 332 q 321 49 284 106 q 430 0 359 0 q 649 101 552 0 q 732 288 729 188 q 705 359 732 333 q 637 386 681 383 q 546 335 584 386 q 521 233 521 293 l 525 188 l 535 154 l 537 147 l 534 143 l 530 144 q 489 195 512 153 q 473 270 473 232 q 506 360 473 318 q 623 403 546 403 q 747 288 744 403 q 663 85 747 183 q 434 -17 573 -14 q 215 59 293 -17 q 150 230 152 124 q 239 455 150 360 q 484 574 324 549 l 470 599 l 422 598 q 333 603 365 598 q 264 625 300 607 q 181 737 181 661 q 269 897 181 832 q 482 959 356 959 l 496 955 l 487 951 q 300 891 366 938 q 238 753 238 845 q 314 639 238 675 q 449 615 368 615 l 463 615 l 456 642 l 453 669 q 528 833 453 760 q 733 905 602 902 q 816 883 789 905 q 843 826 841 863 q 791 708 843 765 q 638 623 733 645 l 555 609 l 558 578 m 562 560 q 602 513 574 527 q 656 500 629 502 q 690 516 690 500 q 656 545 690 528 q 585 562 622 562 l 562 560 m 626 635 q 773 717 714 656 q 826 824 823 770 q 805 869 826 846 l 785 880 q 752 887 781 882 q 617 819 677 887 q 553 623 555 744 l 626 635 "},"ш":{"x_min":-11,"x_max":880,"ha":872,"o":"m 875 191 l 880 183 l 875 172 q 798 63 827 92 q 685 -7 735 -7 q 605 12 630 -7 q 581 83 583 32 q 585 121 581 99 q 601 172 591 149 l 627 236 l 592 174 l 570 137 q 501 44 525 68 q 412 -7 456 -4 q 338 16 366 -7 q 312 84 314 40 q 330 177 312 128 q 355 236 338 204 l 297 137 q 225 44 256 76 q 131 -8 176 -5 q 65 17 90 -8 q 41 99 43 40 q 77 222 41 142 q 141 344 107 294 l 61 247 l 5 173 l 0 166 l -11 174 l -5 186 l 79 304 l 149 395 l 286 404 l 147 130 l 131 86 q 123 43 123 61 q 145 12 123 14 q 209 51 170 12 q 283 145 235 77 l 352 259 l 395 335 l 421 395 l 553 404 l 412 123 q 395 83 401 102 q 390 43 392 70 q 415 8 390 10 q 502 69 453 8 l 556 145 l 623 256 l 667 335 l 695 395 l 827 404 l 685 123 q 664 77 672 101 l 658 41 q 689 12 658 12 q 786 79 722 12 q 867 184 814 110 l 875 191 "},"Я":{"x_min":-27,"x_max":1023.484375,"ha":915,"o":"m 538 283 q 345 78 439 150 q 222 11 286 37 q 92 -14 159 -14 q 2 15 40 -14 q -27 91 -25 44 q 39 201 -27 162 l 54 205 l 58 202 l 47 191 q -4 94 -1 159 q 20 35 -4 64 q 92 13 45 15 q 270 114 175 13 l 417 318 q 556 440 471 391 q 673 484 564 444 l 610 479 q 462 524 524 479 q 401 647 403 569 q 470 808 401 739 q 674 885 548 882 l 731 881 q 787 865 762 876 q 871 815 834 848 l 896 872 l 1023 885 l 716 174 q 692 75 694 124 q 699 36 692 48 q 731 24 708 24 q 851 104 783 24 l 916 196 l 928 204 l 937 198 l 931 185 q 833 53 861 81 q 683 -8 772 -5 q 608 17 641 -8 q 577 91 579 41 q 582 134 577 112 q 601 187 587 161 l 734 494 q 538 283 679 473 m 641 508 q 749 529 690 508 l 861 790 q 728 842 818 839 q 570 776 631 842 q 508 626 508 711 q 544 539 508 572 q 641 508 577 510 "},"¸":{"x_min":-5,"x_max":449,"ha":390,"o":"m 382 360 q 343 283 382 330 q 254 214 307 239 l 230 205 l 196 196 l 135 187 l 113 132 l 105 75 q 118 23 105 47 q 164 4 130 6 q 293 66 226 4 q 383 184 319 92 l 393 191 l 400 182 l 394 169 q 301 49 342 92 q 167 -13 238 -13 q 42 28 91 -13 q -5 145 -2 69 q 76 319 -5 237 q 305 410 167 407 q 382 360 380 410 m 157 556 q 174 599 157 581 q 218 618 190 616 q 256 602 244 618 q 269 567 267 592 q 251 524 269 545 q 207 506 235 508 q 169 520 183 506 q 157 556 157 535 m 336 556 q 353 599 336 581 q 397 618 369 616 q 435 602 423 618 q 449 567 446 593 q 431 524 449 544 q 386 506 414 508 q 348 520 362 506 q 336 556 336 536 m 143 205 l 190 209 l 222 218 l 250 230 q 329 293 296 251 q 364 361 362 334 q 325 392 364 389 q 292 383 312 392 q 250 351 273 376 q 240 341 245 346 q 230 332 235 336 q 189 280 216 317 q 143 205 159 237 "},"a":{"x_min":-15,"x_max":490,"ha":479,"o":"m 470 166 l 480 177 l 490 172 l 482 156 l 403 49 q 295 -13 347 -13 q 237 5 253 -13 q 220 55 220 24 q 223 77 220 72 l 229 98 q 144 12 181 37 q 80 -7 116 -4 q 8 23 34 -7 q -15 102 -12 50 q 55 281 -15 198 q 269 380 137 377 q 319 366 303 380 q 341 333 332 355 l 359 367 l 463 379 l 309 72 l 297 43 l 291 16 q 308 2 291 8 q 369 39 331 2 q 470 166 408 75 m 136 216 q 61 41 61 81 q 91 6 61 9 q 162 48 118 6 q 252 158 203 87 l 322 295 l 329 319 q 316 351 329 331 q 280 367 304 367 q 223 343 256 367 q 136 216 185 306 "},"=":{"x_min":51,"x_max":365,"ha":385,"o":"m 319 319 q 355 326 341 319 l 360 329 l 365 323 l 360 316 l 311 294 l 284 287 l 256 283 l 240 283 l 228 283 q 223 284 226 284 q 219 286 220 285 l 188 295 l 152 305 l 110 309 q 74 304 87 309 l 67 302 l 60 308 l 67 315 l 120 333 l 173 343 q 209 340 201 343 l 240 331 l 276 323 l 319 319 m 309 197 q 344 204 332 197 l 351 205 l 355 201 l 351 194 q 245 161 306 161 l 227 161 l 216 161 l 206 163 l 178 173 q 99 186 141 186 l 63 182 l 57 180 l 51 184 l 57 192 l 103 209 l 132 215 l 162 220 q 198 218 189 220 l 228 209 l 264 201 l 309 197 "},"ú":{"x_min":-12.546875,"x_max":637,"ha":664,"o":"m 230 304 q 126 343 167 304 l 4 170 l -4 163 l -8 168 l -12 173 l -6 184 l 115 358 l 111 369 l 108 388 l 109 408 l 120 429 q 152 447 129 441 q 179 419 177 447 q 161 384 179 406 q 192 358 174 367 q 244 349 211 349 l 265 349 l 287 351 l 312 357 l 345 367 l 364 405 l 471 414 l 438 347 l 400 275 l 419 288 l 441 302 q 473 312 462 308 q 506 316 490 316 q 593 288 562 316 q 637 190 634 255 q 580 52 637 113 q 429 -14 519 -14 q 300 23 343 -14 q 257 123 259 60 q 275 215 257 167 q 320 316 282 245 l 269 306 l 230 304 m 341 92 q 362 29 341 57 q 413 2 382 4 q 513 68 468 2 q 558 213 555 129 q 544 272 558 251 q 494 292 531 292 q 427 273 454 292 q 381 236 407 261 l 354 168 q 341 92 341 128 "},"д":{"x_min":-190,"x_max":530.25,"ha":515,"o":"m 224 82 q 160 17 199 43 q 78 -7 123 -7 q 12 27 38 -7 q -14 115 -12 59 q 68 311 -14 218 q 293 411 160 411 q 349 394 326 411 q 367 359 361 386 l 385 396 l 499 408 l 284 -15 q 438 88 369 5 l 513 191 l 521 197 q 530 186 530 197 l 523 173 q 421 40 450 67 q 276 -35 369 -12 l 163 -254 q 52 -379 121 -336 q -93 -423 -14 -421 q -165 -395 -141 -423 q -190 -326 -190 -370 q -126 -190 -190 -256 q 158 -45 -45 -106 l 224 82 m 299 393 q 145 236 232 393 q 68 37 70 96 q 92 13 68 15 q 169 52 122 13 q 256 151 216 90 l 353 334 q 341 376 353 359 q 299 393 328 393 m 149 -68 q -56 -180 34 -100 q -145 -344 -142 -259 q -132 -387 -145 -368 q -92 -405 -120 -403 q -8 -357 -48 -405 q 65 -233 14 -330 l 149 -68 "},"¯":{"x_min":34.609375,"x_max":918.375,"ha":706,"o":"m 34 127 q 59 197 34 167 q 122 225 82 222 q 172 202 152 225 q 193 143 193 182 q 167 82 193 110 q 92 55 142 57 q 148 16 112 38 l 180 6 l 216 2 q 368 87 295 2 q 481 319 438 171 q 379 379 426 336 q 324 509 326 433 q 549 823 324 692 q 670 880 609 857 q 792 914 731 902 q 911 926 853 926 q 853 872 881 909 q 754 695 814 820 q 641 326 691 545 q 747 376 708 326 q 785 490 785 426 l 780 530 l 779 543 l 782 549 l 785 552 l 789 547 l 796 530 l 800 484 q 767 373 800 426 q 637 311 723 311 q 469 52 598 139 q 236 -17 370 -14 q 100 17 157 -17 q 34 127 36 56 m 689 1019 q 701 1052 689 1035 q 737 1069 714 1069 q 776 1026 774 1069 q 764 995 776 1013 q 729 977 754 984 q 689 1019 691 977 m 830 1019 q 843 1052 830 1035 q 879 1069 855 1069 q 918 1026 916 1069 q 906 995 918 1012 q 871 977 896 984 q 840 987 852 977 q 830 1019 833 995 m 853 909 q 514 750 645 868 q 385 484 385 633 q 418 384 385 426 q 487 337 442 351 q 529 489 505 418 q 587 623 553 559 q 661 742 620 687 q 853 909 760 877 "},"Z":{"x_min":6.6875,"x_max":891.5625,"ha":758,"o":"m 556 470 q 586 463 571 470 l 615 459 q 648 476 635 459 l 655 485 l 661 482 l 656 471 l 640 444 l 623 425 q 583 417 612 418 l 566 417 l 537 419 l 495 424 q 390 268 459 341 q 277 176 368 246 l 334 198 l 400 220 q 510 239 463 236 q 583 220 556 239 q 610 165 608 205 q 581 102 610 140 q 553 38 555 75 q 580 12 553 12 q 690 85 626 12 q 755 177 708 106 l 767 187 l 771 180 q 762 158 771 170 q 671 40 704 69 q 563 -8 623 -5 q 458 80 460 -8 q 465 120 458 107 l 481 148 l 502 176 l 508 201 q 484 219 508 217 q 373 194 449 219 q 252 143 298 171 q 199 77 226 106 l 145 30 q 51 -7 92 -7 q 6 33 9 -7 q 47 104 6 72 q 113 137 69 122 l 199 161 q 276 269 222 187 q 356 441 324 354 l 251 450 q 217 445 227 450 q 195 423 209 441 l 187 418 l 187 427 q 219 474 205 462 q 295 496 243 494 l 338 495 q 373 492 366 495 q 440 639 404 575 l 458 668 q 480 697 466 686 l 458 697 q 380 706 413 697 q 323 742 349 714 l 295 780 q 251 822 273 810 q 177 834 229 834 q 80 797 118 834 q 43 707 43 762 q 82 617 43 658 q 195 566 116 585 q 220 559 217 564 l 229 553 l 215 550 l 197 552 q 69 603 118 560 q 25 710 27 646 q 69 813 25 773 q 209 858 117 855 q 343 838 297 858 q 398 784 376 820 l 423 743 q 461 721 433 731 l 495 718 l 530 757 l 556 779 q 685 850 608 821 q 820 874 760 874 q 891 827 891 874 q 810 735 891 777 q 771 721 800 732 q 722 707 742 714 l 669 700 l 622 697 q 559 589 588 652 l 513 477 l 556 470 m 873 827 q 838 856 873 853 q 735 816 797 856 q 638 718 678 779 q 726 726 678 718 q 808 752 772 735 q 856 789 839 767 q 873 827 873 807 "},"u":{"x_min":-8,"x_max":574,"ha":555,"o":"m 276 128 q 201 32 235 66 q 124 -8 164 -5 q 42 83 44 -8 q 68 205 42 135 l 97 276 l 124 322 l 62 240 l 5 161 l -2 155 l -8 162 l -3 174 l 64 272 l 135 367 l 266 376 l 158 160 l 124 81 l 113 37 q 139 11 113 13 q 193 44 160 11 q 264 135 227 78 l 319 231 l 358 312 l 383 367 l 517 376 l 383 115 q 358 35 358 61 q 383 8 358 10 q 478 72 416 8 l 554 177 q 569 191 562 189 l 574 184 l 568 170 l 521 102 l 485 55 q 371 -8 427 -5 q 285 71 287 -8 l 286 105 q 296 141 286 118 l 303 162 l 319 197 l 276 128 "},"k":{"x_min":-22,"x_max":493,"ha":480,"o":"m -22 0 l 179 396 l 94 283 l 7 162 l 0 155 l -10 161 l -5 172 l 111 331 l 223 483 l 361 752 l 462 758 l 76 0 l -22 0 m 488 183 l 493 177 l 487 161 q 402 46 433 84 q 305 -8 352 -8 q 252 8 276 -8 q 236 58 236 25 q 246 116 236 88 q 272 165 253 142 l 301 204 q 315 234 309 216 l 311 252 l 280 247 l 263 244 l 234 248 q 223 265 230 249 q 257 284 223 282 l 284 280 l 309 269 q 352 281 336 269 l 380 315 q 412 361 398 349 q 449 379 423 372 q 483 345 483 379 q 452 314 483 316 q 422 341 424 314 l 423 351 q 405 333 415 351 l 394 311 q 365 273 382 286 q 324 257 350 262 q 351 220 340 241 q 363 174 363 202 l 359 143 q 345 112 357 130 q 329 54 329 83 q 344 31 329 33 q 477 174 378 31 l 484 182 l 488 183 "},"Ù":{"x_min":222,"x_max":1709.6875,"ha":1532,"o":"m 1543 41 l 1548 35 l 1545 27 l 1502 -5 l 1463 -30 l 1451 -94 q 1429 -165 1443 -140 q 1365 -223 1408 -223 q 1320 -173 1322 -223 q 1365 -77 1320 -121 q 1445 -14 1396 -44 l 1457 31 l 1466 73 q 1411 10 1437 30 q 1340 -8 1385 -5 q 1248 27 1277 -8 q 1225 106 1227 52 q 1227 149 1225 141 l 1239 193 q 1138 82 1223 162 q 973 -8 1040 -5 q 877 26 908 -8 q 852 103 852 56 l 853 139 q 863 171 853 152 q 791 72 841 126 q 652 -7 718 -7 q 525 40 568 -7 q 489 155 491 80 l 491 198 q 505 251 493 220 q 609 469 529 321 l 670 563 l 709 628 q 762 793 759 717 q 724 897 762 855 q 614 939 688 939 q 344 805 460 939 q 240 559 240 685 q 269 464 240 505 q 360 430 297 432 q 510 560 452 430 q 557 771 555 666 l 556 793 l 556 798 l 559 809 l 562 813 l 567 809 l 575 792 q 592 674 592 736 q 541 493 592 560 q 360 413 481 415 q 256 454 291 413 q 222 561 224 495 q 329 818 222 694 q 613 956 447 956 q 798 883 730 956 q 858 714 855 818 q 828 573 858 651 q 756 428 807 514 l 680 301 q 589 83 591 153 q 652 15 589 17 q 831 160 723 15 q 903 276 868 213 l 1213 890 l 1344 900 l 976 174 q 941 60 943 105 q 985 15 941 15 q 1130 109 1027 15 q 1270 276 1230 200 l 1580 890 l 1709 900 l 1343 174 q 1308 60 1310 106 q 1351 15 1308 15 q 1427 53 1392 15 l 1466 107 l 1479 121 l 1483 123 l 1488 116 q 1479 52 1488 88 l 1466 -4 l 1505 15 q 1543 41 1527 27 m 1441 -39 l 1379 -89 q 1348 -128 1359 -109 q 1340 -172 1340 -145 q 1366 -204 1340 -202 q 1409 -158 1382 -204 l 1424 -109 q 1441 -39 1433 -84 "},"З":{"x_min":145,"x_max":851,"ha":822,"o":"m 145 166 q 190 312 145 245 q 311 378 235 375 q 400 350 366 378 q 435 276 433 323 q 405 200 435 240 q 322 151 380 170 l 318 154 l 322 161 q 375 215 345 176 q 393 282 391 249 q 373 338 393 317 q 312 360 357 360 q 209 300 257 360 q 165 171 167 244 q 208 54 165 101 q 348 7 251 9 q 573 177 480 7 q 637 411 634 310 q 614 482 637 459 l 567 466 l 540 461 l 516 460 q 474 482 474 460 q 493 507 474 499 q 547 515 515 515 l 603 511 q 708 651 673 556 q 736 798 733 719 q 716 876 736 848 q 638 910 693 910 q 497 864 566 910 q 396 747 432 819 q 376 726 389 726 l 369 737 q 375 762 369 751 q 472 879 404 832 q 638 934 547 934 q 794 885 736 934 q 851 749 848 838 q 804 594 851 660 q 646 500 754 521 q 726 433 691 491 q 760 312 760 379 q 676 101 760 196 q 350 -17 568 -14 q 192 40 244 -17 q 145 166 147 89 "},"¢":{"x_min":-101,"x_max":649.53125,"ha":637,"o":"m 276 640 q 285 668 276 656 q 316 680 296 680 q 353 638 353 680 q 335 598 353 618 q 434 562 374 564 q 538 594 490 562 q 528 627 535 599 q 541 661 528 644 q 573 677 553 677 q 599 666 588 677 q 611 637 611 658 q 598 606 611 626 q 563 577 585 590 q 496 548 527 559 q 481 545 491 547 q 466 541 471 543 q 450 540 461 540 q 433 538 438 539 q 315 577 370 538 q 276 640 278 606 m 180 31 q 201 6 180 6 q 341 122 238 6 l 419 219 l 509 395 l 620 408 l 403 -17 q 541 73 485 12 q 631 184 577 108 l 642 192 l 649 186 l 642 172 q 550 59 596 101 q 395 -39 493 4 l 279 -269 q 170 -381 246 -339 q 16 -423 97 -423 q -67 -394 -32 -423 q -101 -315 -101 -365 q 29 -145 -101 -228 q 277 -51 124 -88 l 380 147 q 291 41 330 76 q 186 -13 235 -13 q 112 8 145 -13 q 87 76 87 29 q 91 123 87 98 q 106 172 96 150 q 152 265 123 219 l 187 325 q 205 365 203 349 q 187 378 205 378 q 69 261 161 378 l -2 162 l -12 158 l -18 165 l -16 172 l 123 358 q 157 382 135 370 q 202 396 172 389 q 260 375 232 396 q 290 312 290 356 q 240 163 290 264 l 199 94 l 186 62 l 180 31 m 272 -70 q 24 -192 119 -112 q -51 -329 -51 -259 q -31 -383 -51 -363 q 15 -404 -14 -404 q 93 -372 57 -404 q 174 -255 124 -349 l 272 -70 "},"é":{"x_min":45,"x_max":617,"ha":597,"o":"m 233 640 q 274 680 233 678 q 311 638 311 680 q 293 598 311 623 q 392 562 331 564 q 496 594 447 562 q 485 627 491 599 q 497 662 485 647 q 530 677 509 675 q 557 666 546 677 q 569 637 569 658 q 555 606 569 622 q 521 577 543 592 q 454 548 485 559 q 439 545 448 547 q 423 541 429 543 q 407 540 419 540 q 390 538 396 539 q 272 577 323 538 q 233 640 235 604 m 612 205 l 617 200 q 611 183 614 187 q 526 64 562 104 q 408 -8 465 -5 q 329 12 354 -8 q 305 76 307 32 l 309 115 q 315 137 309 123 q 325 165 322 157 l 336 194 l 356 236 l 329 190 l 297 137 q 228 47 256 78 q 138 -8 178 -5 q 45 93 47 -8 q 53 151 45 117 q 79 225 61 185 l 154 395 l 286 404 l 171 173 l 135 98 q 121 41 126 69 q 150 12 121 12 q 211 51 170 12 q 283 145 241 81 l 346 251 l 392 335 l 419 395 l 555 404 l 413 123 q 386 43 388 69 q 413 8 386 10 q 537 106 462 8 q 595 191 560 134 l 605 201 l 612 205 "},"B":{"x_min":27.796875,"x_max":1030,"ha":986,"o":"m 968 300 q 898 94 968 190 q 697 -15 819 -13 q 618 7 642 -15 q 595 75 597 29 q 636 200 595 133 q 737 275 678 265 q 652 201 691 262 q 614 75 616 143 q 629 24 614 41 q 672 7 644 7 q 822 144 759 7 q 871 342 868 253 q 850 423 871 399 l 815 411 l 786 408 q 733 433 735 408 q 793 461 733 459 q 823 458 816 461 q 858 451 846 458 q 909 519 886 471 q 932 634 929 563 q 927 694 932 667 q 912 741 923 721 q 861 801 896 776 q 757 654 806 747 q 666 414 717 574 q 447 57 596 161 q 206 -13 346 -13 q 76 20 130 -13 q 27 116 29 53 q 52 183 27 156 q 108 209 77 207 q 155 191 134 209 q 177 137 175 175 q 155 82 177 108 q 91 53 134 59 l 83 46 q 119 18 83 38 q 198 3 153 5 q 330 61 265 3 q 455 228 393 120 q 569 469 486 285 q 676 665 626 598 q 837 818 746 763 q 766 839 811 829 q 669 848 727 846 q 309 724 445 848 q 194 494 196 622 q 219 408 194 444 q 312 374 248 376 q 476 493 416 374 q 522 698 522 586 l 523 707 l 537 651 l 542 594 q 493 430 542 491 q 309 356 435 356 q 207 393 247 356 q 174 493 176 429 q 294 734 174 622 q 664 864 436 864 q 882 834 796 864 q 929 844 899 842 q 954 842 946 844 q 921 839 925 842 q 897 829 912 839 q 994 751 959 804 q 1030 634 1027 703 q 988 508 1030 565 q 886 440 956 471 q 968 300 965 407 m 750 433 q 782 419 750 421 q 812 425 799 419 l 836 434 q 784 448 813 446 q 750 433 751 448 "},"…":{"x_min":59,"x_max":546,"ha":579,"o":"m 157 51 q 143 12 157 30 q 103 -5 131 -2 q 72 4 82 -5 q 59 40 64 14 q 72 79 59 61 q 113 97 87 95 q 143 83 129 97 q 157 51 155 70 m 351 51 q 337 12 351 30 q 297 -5 326 -2 q 266 4 276 -5 q 253 40 259 14 q 266 79 253 61 q 307 97 281 95 q 337 83 323 97 q 351 51 349 71 m 546 51 q 532 12 546 31 q 491 -5 519 -2 q 461 4 470 -5 q 447 40 453 14 q 461 79 447 61 q 501 97 475 95 q 532 83 517 97 q 546 51 543 70 "},"В":{"x_min":35,"x_max":1108,"ha":1060,"o":"m 35 116 q 100 221 35 178 q 243 264 163 262 l 263 263 q 274 260 271 263 l 277 258 q 124 217 193 258 q 57 118 59 180 q 101 36 57 68 q 213 6 147 8 q 362 69 291 6 q 488 245 420 123 q 542 351 513 291 q 612 503 597 472 q 726 716 667 639 q 899 879 801 825 q 823 904 866 895 q 719 912 782 912 q 332 778 485 912 q 209 531 211 668 q 239 435 209 470 q 320 401 268 403 q 510 530 439 401 q 560 750 560 627 l 563 764 l 568 753 l 578 698 l 582 638 q 530 463 582 528 q 324 381 466 383 q 221 421 262 381 q 186 530 188 459 q 316 790 186 672 q 491 895 390 859 q 713 929 589 927 l 784 927 q 817 926 805 927 q 857 920 835 926 q 898 913 882 918 q 941 898 920 907 q 996 907 974 905 l 1030 905 l 1019 905 q 987 903 994 905 q 959 893 974 903 q 1067 809 1028 868 q 1108 680 1105 756 q 1070 560 1108 614 q 952 473 1034 509 q 1040 321 1040 437 q 966 101 1040 203 q 759 -16 883 -14 q 666 9 701 -16 q 638 79 640 32 q 671 201 638 134 q 792 294 711 276 q 703 217 747 282 q 685 190 693 203 q 673 158 677 170 q 663 125 671 153 q 662 109 662 120 q 660 91 661 98 q 724 13 660 13 q 883 169 817 13 q 936 384 933 291 q 913 454 936 432 l 877 442 q 844 438 865 438 q 788 467 790 438 q 852 497 788 495 l 884 493 l 923 484 q 982 559 961 509 q 1003 681 1003 608 q 982 796 1003 749 q 926 863 960 843 q 816 709 870 805 q 716 446 768 617 q 475 59 636 169 q 214 -14 371 -11 q 83 19 139 -14 q 35 116 37 52 m 851 481 q 806 463 808 481 q 840 450 806 450 l 870 454 l 898 467 l 880 477 q 851 481 869 481 "},"H":{"x_min":6.78125,"x_max":1273,"ha":1008,"o":"m 256 295 l 254 298 l 258 308 q 344 366 285 335 q 469 422 401 398 l 491 486 l 524 562 q 559 622 541 600 l 593 659 l 619 689 l 642 727 q 576 689 622 711 q 541 677 572 686 q 492 670 523 673 l 466 672 q 437 683 454 672 q 416 719 416 691 q 423 759 416 742 l 431 787 q 413 799 431 799 q 335 758 390 799 q 287 712 313 738 q 280 702 283 707 q 265 680 276 697 l 252 663 l 249 661 l 245 662 l 248 669 l 255 683 q 353 792 294 753 q 456 833 410 830 q 490 820 476 833 q 502 766 502 809 q 508 720 502 731 q 537 705 511 712 q 638 744 562 705 q 769 846 726 790 q 785 856 772 853 q 794 847 794 856 l 790 833 l 740 753 l 693 648 l 656 540 l 629 463 l 718 487 l 785 504 q 991 774 878 682 q 1181 858 1091 858 q 1249 834 1227 858 q 1273 773 1270 812 q 1158 609 1273 682 q 927 519 1081 566 l 867 378 q 826 270 843 314 q 809 222 816 242 q 795 183 803 202 q 775 74 775 117 q 820 9 775 11 q 908 56 858 9 q 1008 182 968 111 q 1015 191 1010 188 l 1021 194 l 1026 187 l 1025 180 l 1016 165 q 933 55 971 101 q 815 -5 876 -2 q 668 157 670 -5 q 702 324 668 231 q 773 483 718 365 l 691 462 l 619 441 q 518 223 569 311 q 370 56 457 121 q 177 -8 286 -5 q 54 26 103 -8 q 6 122 9 61 q 27 180 6 155 q 90 205 48 205 q 140 183 120 205 q 161 132 161 163 q 135 78 161 103 q 70 56 111 58 l 58 56 q 102 20 70 40 q 173 8 132 8 q 324 98 257 8 q 408 262 367 153 l 462 403 q 352 352 426 390 q 262 298 298 325 l 256 295 m 1228 768 q 1214 819 1228 802 q 1173 839 1202 836 q 1059 775 1113 839 q 933 540 1010 713 q 1169 650 1094 585 q 1228 768 1228 699 "},"î":{"x_min":-8,"x_max":428.328125,"ha":418,"o":"m 370 303 q 345 195 370 254 q 292 99 319 133 q 353 117 325 99 q 411 187 383 136 l 417 192 q 428 186 425 188 l 422 173 q 356 101 397 124 q 279 78 319 81 q 247 42 264 60 q 221 20 236 31 q 123 -13 175 -13 q 29 31 69 -13 q -8 142 -8 75 q 84 333 -8 245 q 264 408 170 408 q 342 378 313 408 q 370 303 367 351 m 281 392 q 159 269 230 392 q 90 66 92 150 q 98 20 90 37 q 133 4 106 4 q 279 118 214 4 q 336 318 333 217 q 323 369 336 346 q 281 392 311 389 "},"−":{"x_min":60,"x_max":390,"ha":379,"o":"m 187 292 q 259 284 224 292 l 311 274 l 351 270 q 378 276 368 270 l 384 277 l 390 273 l 381 262 q 333 244 373 254 q 316 240 327 243 q 298 237 304 238 q 284 235 294 236 q 269 234 273 235 q 194 241 211 234 l 143 252 l 97 257 l 75 254 l 67 252 l 60 258 l 68 265 l 122 283 l 157 290 l 187 292 "},"¥":{"x_min":26,"x_max":1382.90625,"ha":856,"o":"m 897 826 l 764 861 q 628 879 672 876 q 321 762 448 879 q 217 543 217 662 q 243 461 217 493 q 321 431 267 433 q 482 555 413 431 q 533 765 531 661 l 535 777 l 539 770 l 547 749 l 555 723 l 562 691 l 564 656 q 511 493 564 557 q 322 414 448 414 q 229 448 263 414 q 199 543 201 485 q 315 787 199 667 q 653 920 447 917 l 710 918 q 763 914 729 918 q 788 910 770 913 q 814 907 806 908 l 946 897 l 1010 897 l 1054 892 l 1184 882 q 1296 907 1258 882 q 1334 971 1334 932 q 1320 1016 1334 997 q 1285 1053 1308 1035 q 1353 1019 1318 1053 q 1382 940 1382 986 q 1327 842 1382 882 q 1129 795 1261 797 l 1111 795 l 1096 795 q 1015 801 1037 795 l 956 812 l 897 826 m 548 333 l 632 538 q 721 697 678 648 q 789 759 757 739 q 868 801 821 780 q 769 622 823 763 l 679 352 q 596 176 642 252 q 469 51 541 92 q 348 5 420 22 l 280 -4 l 211 -8 q 63 33 116 -8 q 26 120 26 67 q 94 226 26 183 q 242 271 159 268 l 258 271 l 269 264 l 272 262 q 116 223 184 262 q 48 122 50 186 q 98 38 48 73 q 201 13 137 13 q 415 110 321 13 q 548 333 483 182 "},"U":{"x_min":207,"x_max":1250.171875,"ha":1085,"o":"m 1129 828 l 1250 837 l 908 161 q 875 56 875 95 q 916 14 875 14 q 1025 99 957 14 l 1083 178 l 1090 185 l 1098 179 l 1093 164 l 1010 51 q 894 -8 956 -6 q 816 20 844 -8 q 793 95 795 45 l 794 126 l 802 158 q 713 43 758 85 q 603 -7 660 -7 q 490 34 527 -7 q 455 144 458 74 q 516 349 455 233 l 594 483 l 678 623 q 709 737 707 681 q 677 833 709 801 q 572 872 642 869 q 319 754 430 872 q 223 520 223 647 q 247 433 223 466 q 333 400 272 400 q 473 522 411 400 q 519 718 519 622 l 518 737 l 518 742 l 519 754 l 522 756 q 525 753 523 755 q 529 748 526 751 q 532 743 530 747 q 536 736 534 739 l 547 683 l 551 626 q 503 459 551 524 q 336 383 447 385 q 239 421 278 383 q 207 522 209 456 q 305 768 207 657 q 570 889 413 889 q 743 821 679 889 q 784 750 770 789 q 798 664 796 715 q 776 541 798 603 q 707 399 754 477 l 600 221 q 562 142 575 171 q 548 76 551 103 q 564 32 548 49 q 607 16 578 16 q 744 110 666 16 q 840 257 803 179 l 1129 828 "},"Ñ":{"x_min":95,"x_max":1023,"ha":846,"o":"m 95 693 q 179 868 95 800 q 417 938 263 935 l 449 938 l 481 935 q 521 929 506 935 l 525 926 l 520 921 l 497 921 q 241 856 326 921 q 157 675 159 794 q 206 544 157 604 q 316 477 252 494 q 545 771 404 648 q 900 913 714 913 q 989 883 954 913 q 1023 807 1023 856 q 959 658 1023 737 q 760 516 887 571 q 602 461 690 485 q 531 448 566 453 q 460 443 510 446 q 405 294 428 375 q 383 158 386 219 q 411 51 383 91 q 508 13 440 15 q 721 118 630 13 q 782 213 754 157 q 803 310 803 261 q 726 398 803 398 q 620 338 660 398 q 593 224 595 294 q 595 184 593 195 q 602 166 597 171 l 604 159 l 601 155 q 552 258 552 186 q 592 363 552 321 q 725 414 638 414 q 795 384 770 414 q 821 309 821 357 q 735 106 821 205 q 508 -4 640 -1 q 308 66 375 -4 q 266 137 283 97 q 252 234 255 178 q 265 349 252 290 q 308 463 278 404 q 172 533 233 478 q 95 693 97 598 m 746 529 q 908 662 842 568 q 951 743 934 699 q 968 822 968 784 q 905 892 968 889 q 660 751 790 892 q 468 461 546 629 q 595 475 545 461 q 746 529 648 486 "},"F":{"x_min":19.328125,"x_max":1058.015625,"ha":758,"o":"m 180 506 q 203 428 180 456 q 277 401 227 403 q 424 516 365 401 q 459 613 444 559 q 472 710 472 665 l 474 722 q 500 610 500 677 q 447 454 500 516 q 277 384 386 384 q 190 418 223 384 q 161 506 161 451 q 266 733 161 627 q 408 825 329 794 q 586 856 486 853 l 659 851 l 752 836 l 834 825 l 913 820 q 1008 844 969 820 q 1058 887 1033 857 q 1003 792 1040 835 q 869 740 955 742 q 802 748 831 740 l 737 774 l 664 809 l 610 826 l 555 832 q 277 717 393 832 q 180 506 182 618 m 784 745 q 728 662 758 726 l 663 417 q 690 421 684 417 l 712 427 q 741 499 721 464 q 809 538 768 536 q 831 525 817 538 q 840 495 840 513 q 820 450 840 470 q 777 428 812 442 l 777 386 q 784 336 777 357 l 696 313 q 699 357 696 349 l 709 409 l 683 404 l 659 400 q 591 209 639 297 q 435 47 528 94 l 386 26 l 327 8 l 261 -3 l 195 -8 q 66 29 116 -8 q 19 120 21 66 q 41 184 19 162 q 65 201 53 196 l 97 206 q 146 186 122 206 q 170 137 168 168 q 144 79 170 107 q 77 52 120 54 q 187 11 109 11 q 377 128 282 11 q 512 384 439 212 q 390 349 445 375 q 296 293 350 331 q 401 366 339 332 q 519 406 453 392 q 647 648 588 577 q 784 745 691 705 m 824 495 q 806 520 824 520 q 784 501 794 520 l 779 480 l 777 453 l 777 446 l 809 462 q 824 495 818 467 "},"*":{"x_min":220,"x_max":457,"ha":458,"o":"m 348 583 l 402 565 q 448 527 448 548 q 427 506 448 506 q 366 545 407 506 l 342 573 l 344 524 q 339 483 344 496 q 318 465 334 471 q 293 491 293 465 q 303 529 293 509 l 333 577 l 282 536 q 240 519 257 519 q 220 540 220 519 q 268 575 220 560 l 329 587 l 296 599 q 240 647 243 624 q 260 666 240 660 q 307 634 279 666 l 337 594 l 334 642 q 339 689 334 670 q 362 708 343 704 q 386 685 379 708 q 376 642 386 665 q 346 593 368 620 l 384 624 q 438 652 411 645 q 457 634 454 652 q 408 598 457 618 l 348 583 "},"†":{"x_min":199,"x_max":425,"ha":340,"o":"m 418 638 l 423 634 l 425 630 l 418 623 l 414 622 l 361 626 l 343 626 l 276 461 l 233 345 q 215 320 227 320 q 199 345 199 320 l 200 358 q 264 511 217 414 l 320 626 l 261 613 l 251 612 l 244 613 l 242 616 l 259 629 l 287 636 l 329 642 l 344 672 l 361 699 l 371 708 l 375 709 l 380 702 l 377 694 l 352 647 l 390 645 q 418 638 406 645 "},"°":{"x_min":74,"x_max":214,"ha":275,"o":"m 74 597 q 94 644 74 618 q 151 669 115 669 q 197 652 180 669 q 214 612 214 637 q 191 561 214 585 q 168 544 181 550 q 136 538 158 540 q 89 555 110 538 q 74 597 76 570 m 94 598 q 137 558 94 560 q 175 572 163 558 q 193 611 186 583 q 150 650 193 648 q 108 633 125 650 q 94 598 101 623 "},"å":{"x_min":-5,"x_max":400,"ha":390,"o":"m 381 360 q 343 283 381 330 q 254 214 307 239 l 230 205 l 196 196 l 134 187 l 112 132 l 105 75 q 118 23 105 47 q 163 4 130 6 q 292 66 226 4 q 383 184 319 92 l 392 191 l 400 182 l 394 169 q 301 49 342 92 q 167 -13 238 -13 q 42 28 91 -13 q -5 145 -2 69 q 76 319 -5 237 q 305 410 167 407 q 381 360 379 410 m 143 205 l 190 209 l 222 218 l 249 230 q 329 293 296 251 q 363 361 361 334 q 324 392 363 389 q 291 383 311 392 q 249 351 272 376 q 240 341 245 346 q 230 332 235 336 q 189 280 215 317 q 143 205 159 237 "},"0":{"x_min":35.9375,"x_max":486,"ha":497,"o":"m 486 435 q 399 165 486 313 q 170 -8 300 -5 q 74 56 116 -8 q 45 122 57 87 q 35 203 38 151 l 35 230 l 38 264 l 52 309 q 187 492 86 414 q 380 572 289 572 q 456 534 425 572 q 486 435 486 498 m 116 92 q 180 8 116 10 q 358 140 276 8 q 442 446 442 270 q 428 529 442 500 q 379 560 415 557 q 192 361 288 560 q 116 92 118 190 "},"”":{"x_min":192,"x_max":496,"ha":424,"o":"m 496 734 q 489 702 496 716 q 428 630 478 675 l 390 598 l 351 569 l 333 559 l 343 569 q 415 634 398 614 q 433 675 431 655 q 430 690 433 687 l 421 709 l 417 733 q 425 758 417 750 q 458 772 432 765 q 496 734 496 772 m 354 734 q 347 702 354 716 q 286 630 337 675 l 248 598 l 209 569 l 192 559 l 201 569 q 274 634 257 614 q 291 675 289 654 q 289 690 291 687 l 279 709 l 275 733 q 283 758 275 750 q 317 772 290 765 q 354 734 354 772 "},"ö":{"x_min":-11,"x_max":594,"ha":594,"o":"m 412 -7 q 341 13 372 -7 q 311 76 313 33 l 312 112 q 323 155 312 129 q 334 190 329 179 q 355 236 340 205 l 297 137 q 204 28 249 65 q 131 -8 164 -5 q 65 21 90 -8 q 41 96 43 48 l 44 132 q 61 182 48 153 l 134 344 l 5 173 l 0 166 l -11 174 l -5 186 l 75 299 l 145 395 l 286 404 l 147 130 l 131 86 q 123 43 123 61 q 145 12 123 14 q 209 51 170 12 q 283 145 235 77 l 329 222 l 388 335 l 415 395 l 553 404 l 412 123 l 392 80 q 384 40 384 57 q 417 8 384 10 q 524 77 475 8 l 537 91 l 546 86 l 538 37 l 528 -8 l 558 7 q 588 26 576 14 l 594 22 l 591 16 q 560 -6 587 9 l 524 -30 l 516 -80 q 498 -139 512 -110 q 446 -184 481 -184 q 410 -144 413 -184 q 419 -108 410 -129 q 446 -66 429 -87 q 510 -17 464 -48 l 530 56 q 473 6 502 20 l 445 -2 q 412 -7 435 -7 m 507 -37 l 480 -56 l 458 -77 l 434 -109 q 427 -143 432 -113 q 448 -169 427 -163 q 481 -133 465 -169 l 496 -87 l 507 -37 "},"Õ":{"x_min":75.296875,"x_max":1223.5625,"ha":1179,"o":"m 703 184 q 737 55 703 104 q 858 7 772 9 q 1085 127 984 7 q 1170 362 1167 235 q 1133 481 1170 435 q 1025 529 1099 526 q 896 429 959 529 q 836 205 838 330 l 840 141 l 841 127 l 839 120 l 826 143 q 807 218 818 170 q 800 286 802 241 q 862 471 800 397 q 1021 545 924 542 q 1147 493 1103 545 q 1190 361 1187 444 q 1099 112 1190 227 q 858 -14 1000 -11 q 719 44 769 -14 q 682 180 682 94 q 690 263 682 218 l 698 306 q 703 327 701 319 q 714 353 706 339 q 557 119 657 216 q 233 -14 417 -14 l 226 -14 q 114 19 154 -14 q 75 95 77 52 q 96 158 75 129 q 158 200 117 187 l 173 202 l 180 198 q 169 190 176 191 q 114 153 139 178 q 104 134 109 145 q 96 98 96 118 q 126 32 96 60 q 164 11 141 19 q 215 4 178 6 q 464 140 344 4 q 637 480 570 263 q 654 543 642 501 q 670 624 661 573 q 680 722 678 672 q 637 861 680 818 q 551 893 607 890 q 275 769 386 893 q 175 530 175 659 q 212 415 175 465 q 258 383 225 402 q 286 374 273 377 q 304 373 291 373 q 323 372 317 372 q 454 475 398 372 q 495 587 481 529 q 501 624 500 613 q 505 649 503 635 q 509 722 509 686 l 508 760 l 509 778 l 512 780 l 516 776 l 523 758 l 539 683 l 544 612 q 485 426 544 497 q 326 356 427 358 q 193 409 235 356 q 156 536 156 455 q 261 783 156 669 q 562 910 379 907 q 605 907 591 910 q 650 895 621 905 q 730 846 697 879 q 796 650 794 778 l 794 610 l 794 589 q 791 575 793 581 q 789 564 790 569 q 844 700 822 663 q 958 840 881 773 q 1100 892 1016 889 q 1187 857 1152 892 q 1223 779 1220 825 q 1205 719 1223 745 q 1150 676 1189 695 l 1138 674 l 1131 678 l 1139 687 q 1205 777 1205 712 q 1175 844 1205 815 q 1096 875 1147 872 q 969 829 1034 875 q 832 635 889 761 l 750 411 q 717 297 731 357 l 707 240 l 703 184 "},"þ":{"x_min":-8,"x_max":749,"ha":733,"o":"m 157 0 l 42 0 l 213 324 l 223 364 q 199 394 223 394 q 148 364 178 394 q 69 266 117 333 l 13 183 l 0 174 l -3 173 l -8 177 l -2 191 l 54 277 q 140 381 110 355 q 171 402 151 392 q 219 414 188 411 q 275 387 253 414 q 299 333 297 364 q 276 244 299 289 l 261 215 l 335 215 q 437 348 360 288 q 597 408 516 405 q 678 377 652 408 q 700 303 698 353 q 675 191 700 257 q 649 135 661 155 q 622 99 639 116 q 676 121 652 103 q 732 192 697 137 l 739 199 l 749 194 q 743 177 746 180 q 682 105 720 131 q 611 78 659 91 q 536 9 577 36 q 454 -13 499 -10 q 357 31 395 -13 q 321 144 323 73 l 322 170 l 326 194 l 253 194 l 157 0 m 668 318 q 655 369 668 346 q 614 392 643 389 q 525 329 577 392 q 462 220 496 291 l 432 139 q 421 63 423 102 q 431 20 421 38 q 464 4 441 4 q 565 54 514 4 q 636 175 600 93 l 657 239 q 668 318 665 276 "},"]":{"x_min":-157,"x_max":490,"ha":401,"o":"m -145 -75 l -51 -75 l 427 896 l 313 896 l 323 917 l 490 917 l -11 -99 l -157 -99 l -145 -75 "},"А":{"x_min":14,"x_max":1177.828125,"ha":1032,"o":"m 465 158 q 619 336 553 248 l 572 338 q 543 348 543 338 l 550 350 l 568 355 l 637 358 l 940 731 q 1172 956 1144 956 l 1177 947 l 1169 907 q 1159 879 1165 893 q 1141 836 1154 863 l 1057 644 l 969 446 l 930 349 l 979 345 l 1029 345 q 1043 335 1041 345 q 1023 321 1043 323 l 921 324 l 874 198 q 850 74 850 115 q 870 37 850 37 q 937 73 898 37 q 1030 192 979 111 l 1039 199 l 1043 200 l 1048 193 l 1045 183 q 950 52 997 99 q 812 -15 884 -12 q 733 6 757 -15 q 709 76 711 28 q 760 263 709 147 l 790 325 l 643 336 q 462 131 575 244 q 348 33 407 76 q 198 -17 274 -17 q 57 12 103 -17 q 14 114 16 40 q 79 220 14 177 q 223 263 142 261 l 243 261 q 254 259 251 261 l 257 256 q 101 217 170 256 q 33 115 35 180 q 74 26 33 59 q 198 0 119 2 q 347 51 269 0 q 465 158 399 85 m 802 353 l 858 459 q 994 695 949 624 q 1058 801 1024 750 q 1130 909 1095 860 l 1029 805 l 948 719 l 801 538 l 658 356 l 802 353 "},"Ы":{"x_min":105.390625,"x_max":1322.625,"ha":1152,"o":"m 1147 187 l 1156 195 l 1165 190 l 1158 174 q 1072 58 1089 73 q 936 -13 1005 -13 q 855 14 885 -13 q 826 94 826 44 q 851 191 826 134 l 1190 890 l 1322 904 l 967 173 q 930 58 932 101 q 935 29 930 39 q 960 19 938 21 q 1069 83 1009 19 q 1147 187 1082 98 m 488 901 l 620 915 l 524 726 q 472 622 490 654 q 434 554 456 591 l 500 576 l 534 583 l 573 586 q 704 541 649 586 q 779 359 779 481 q 677 92 779 204 q 427 -17 578 -14 q 269 31 325 -17 q 200 206 202 86 q 249 429 200 308 l 333 594 l 213 490 l 125 422 l 115 418 l 111 417 l 105 419 l 108 425 l 119 436 q 254 551 182 478 l 370 673 l 488 901 m 294 175 q 330 55 294 105 q 415 7 364 9 q 612 169 524 7 q 682 433 679 303 q 651 530 682 499 q 563 561 622 559 l 527 559 q 492 550 517 559 q 421 524 456 542 l 346 371 q 294 175 296 252 "},"8":{"x_min":13,"x_max":423,"ha":432,"o":"m 423 457 q 398 379 423 412 q 289 317 375 352 q 366 225 338 267 q 387 179 378 205 q 390 166 389 170 q 392 157 391 161 q 394 132 392 144 q 337 25 394 65 q 194 -14 284 -11 q 65 20 118 -14 q 13 117 15 55 q 48 212 13 172 q 180 284 85 251 l 138 336 q 111 415 113 371 q 162 519 111 476 q 299 564 213 561 q 387 533 352 564 q 423 457 420 505 m 394 460 q 370 524 394 499 q 298 551 348 548 q 216 530 257 551 q 181 470 183 510 q 221 390 181 435 l 278 330 q 361 377 331 347 q 394 460 391 407 m 47 118 q 87 36 47 72 q 194 3 129 3 q 287 19 251 3 q 320 79 320 36 q 291 153 320 105 q 190 274 264 198 q 77 211 110 249 q 47 118 49 174 "},"R":{"x_min":34,"x_max":1020.765625,"ha":1007,"o":"m 722 389 q 675 411 677 389 q 734 437 675 435 q 767 433 755 437 l 792 421 q 848 478 826 440 q 880 626 877 532 q 859 729 880 685 q 806 787 837 768 q 716 640 767 740 l 677 539 l 638 415 q 446 70 572 178 q 192 -13 346 -13 q 81 23 129 -13 q 34 119 36 58 q 54 182 34 154 q 111 209 74 207 q 162 187 140 209 q 183 133 183 166 q 158 73 183 103 q 86 46 137 48 q 100 33 96 36 q 128 18 102 31 q 191 7 151 10 q 376 134 285 7 q 428 221 400 169 q 482 334 456 272 q 535 469 509 396 q 652 697 580 600 q 771 801 708 768 l 716 814 l 642 820 q 287 697 424 820 q 171 468 171 593 q 197 380 171 413 q 279 349 223 351 q 440 472 370 349 q 497 674 495 573 l 500 686 l 501 682 q 516 586 514 647 q 466 417 516 491 q 277 331 404 333 q 184 368 224 331 q 152 468 152 405 q 274 711 152 601 q 645 838 414 835 l 685 838 l 741 832 q 809 820 780 827 q 870 835 840 833 l 896 832 q 862 826 879 832 q 833 812 843 821 q 933 749 890 795 q 976 640 973 703 q 941 514 976 566 q 802 411 904 454 q 833 311 830 382 q 813 212 833 255 q 787 93 789 144 q 837 11 787 13 q 931 75 869 11 q 1005 176 950 97 l 1012 183 l 1020 177 l 1016 165 q 933 53 957 81 q 802 -13 871 -10 q 668 100 670 -13 q 672 147 668 122 q 687 196 677 174 l 702 234 l 726 283 l 755 333 q 774 399 772 361 l 745 390 l 722 389 m 690 411 q 724 400 690 402 q 771 413 741 400 q 733 425 763 425 q 690 411 692 425 "},"o":{"x_min":-8,"x_max":390,"ha":375,"o":"m 342 283 q 319 176 342 231 q 272 93 297 121 q 327 122 300 101 q 373 179 353 143 l 380 186 l 390 180 l 382 165 q 316 96 359 129 q 259 73 296 79 l 214 26 q 115 -11 168 -11 q 28 30 65 -11 q -8 133 -5 69 q 61 291 -8 218 q 247 379 140 379 q 320 352 294 379 q 342 283 340 328 m 122 205 l 93 130 l 86 96 l 83 62 q 123 7 83 9 q 216 51 174 7 q 283 162 250 88 l 302 222 l 311 258 l 313 291 q 262 361 313 358 q 179 302 224 361 q 154 262 160 274 l 122 205 "},"5":{"x_min":23.734375,"x_max":529.15625,"ha":507,"o":"m 279 333 q 211 326 232 333 q 159 298 185 318 l 149 292 l 145 295 l 149 309 l 254 561 l 332 549 l 419 544 q 513 559 490 544 l 523 566 l 527 567 l 529 563 l 523 554 q 477 481 499 505 q 361 447 441 449 l 290 451 l 257 455 l 232 462 l 174 324 q 279 350 215 350 q 416 301 367 350 q 461 187 458 259 q 392 48 461 104 q 195 -5 326 -5 q 69 29 115 -5 q 23 114 23 65 q 40 159 23 139 q 87 180 56 180 q 125 165 109 180 q 141 126 141 150 q 86 68 141 68 q 58 77 79 68 q 88 38 58 60 q 186 12 129 14 q 319 101 270 12 q 359 251 356 174 q 279 333 359 330 "},"õ":{"x_min":-12,"x_max":568,"ha":553,"o":"m 5 173 l 0 166 l -12 173 l -3 187 l 99 328 q 222 401 157 398 q 285 377 263 401 q 325 298 304 360 l 354 338 l 377 365 q 452 400 414 397 q 504 384 484 400 q 524 344 524 372 q 516 316 524 326 q 485 304 507 307 q 450 338 452 304 q 457 361 450 352 q 481 372 464 367 q 471 380 477 378 l 448 383 q 380 343 416 383 q 332 270 363 322 l 337 202 l 340 122 l 340 111 q 347 34 340 53 q 380 13 353 13 q 438 47 401 13 q 550 190 474 79 l 558 198 l 566 197 l 568 192 l 559 175 q 475 59 510 102 q 372 -5 418 -2 q 272 22 308 -5 q 222 119 237 49 q 168 35 197 65 q 79 -7 129 -4 q 22 6 46 -7 q 0 47 2 19 q 11 80 0 69 q 40 92 23 92 q 79 55 77 92 q 52 17 79 17 q 79 8 59 10 q 157 54 113 8 q 217 149 167 68 l 211 206 l 212 252 l 222 302 l 228 330 l 230 354 q 204 382 230 379 q 135 343 175 382 l 5 173 "},",":{"x_min":-30,"x_max":150,"ha":174,"o":"m 150 52 q 141 13 150 36 q 75 -66 129 -12 q -10 -134 30 -106 l -30 -145 l -20 -134 l 44 -79 q 80 -17 78 -45 l 76 -1 q 61 47 63 17 q 72 86 61 73 q 107 101 81 99 q 134 88 122 101 q 150 52 143 78 "},"d":{"x_min":-14,"x_max":659,"ha":479,"o":"m 474 173 l 479 180 l 488 177 l 491 173 l 486 162 q 409 59 435 87 q 293 -13 345 -10 q 235 3 252 -13 q 219 48 219 21 l 219 73 l 224 92 q 160 24 194 50 q 83 -7 123 -4 q 12 26 39 -7 q -14 107 -11 58 q 65 291 -14 207 q 273 380 149 377 q 318 367 300 380 q 341 331 334 356 l 554 751 l 659 762 l 309 72 q 291 20 293 37 q 305 5 291 11 q 403 77 337 5 l 474 173 m 135 216 q 59 39 61 73 q 83 6 59 9 q 173 59 120 6 q 246 154 203 92 l 288 230 l 324 305 l 328 319 q 317 349 328 337 q 285 365 312 359 q 221 340 254 365 q 135 216 189 311 "},"\"":{"x_min":200,"x_max":450,"ha":354,"o":"m 202 555 l 200 559 l 202 569 q 210 585 206 576 q 220 606 214 594 q 243 656 227 619 l 268 726 q 297 751 276 751 q 315 744 306 751 q 323 726 323 738 q 312 698 323 711 l 263 641 q 253 624 261 638 q 235 598 244 611 q 212 562 225 584 l 202 555 m 329 555 l 324 559 l 329 569 q 367 655 349 604 l 393 726 q 422 751 401 751 l 441 742 q 450 726 447 742 q 437 698 450 717 l 388 641 q 378 624 386 638 q 361 598 369 611 q 337 562 352 587 l 329 555 "},"ê":{"x_min":-23,"x_max":532,"ha":517,"o":"m 82 0 l -23 0 l 165 370 l 99 294 l 4 170 l 0 165 l -10 173 l -4 184 l 45 252 l 111 333 l 178 408 l 190 419 l 301 432 l 82 0 m 532 377 q 522 348 532 360 q 491 336 513 339 q 459 345 475 336 q 448 376 455 350 l 452 400 q 414 338 431 395 q 390 294 405 309 q 352 276 377 282 q 394 200 394 255 q 389 161 394 177 l 372 120 q 352 58 355 90 q 371 34 352 41 q 451 100 402 34 l 514 187 l 520 194 l 524 195 l 532 190 l 530 184 l 523 173 q 415 34 467 85 q 329 -8 371 -5 q 273 10 292 -8 q 258 61 260 24 q 271 132 258 94 q 307 196 283 170 l 332 226 l 343 251 q 334 272 343 263 l 304 266 l 290 265 q 239 286 245 265 q 280 308 239 306 q 312 301 299 308 l 338 286 q 402 344 380 286 l 412 370 l 423 389 q 445 407 427 398 q 487 419 459 416 q 520 406 508 419 q 532 377 524 402 "},"„":{"x_min":7,"x_max":339,"ha":424,"o":"m 254 141 q 264 176 254 163 q 298 191 273 189 q 339 145 336 191 q 333 112 339 127 q 276 45 323 82 l 197 -12 l 164 -31 l 161 -28 l 173 -19 l 226 17 q 275 83 273 56 l 269 98 q 254 141 256 115 m 100 141 q 110 176 100 163 q 144 191 119 189 q 185 145 183 191 q 179 112 185 127 q 122 45 168 81 l 43 -12 l 11 -31 l 7 -28 l 19 -19 l 72 17 q 120 83 118 56 l 115 98 q 100 141 102 115 "},"ч":{"x_min":-12,"x_max":482,"ha":465,"o":"m 4 171 l -3 163 l -7 168 l -12 173 l -6 185 l 105 343 l 100 376 q 111 415 100 400 q 143 432 124 432 q 169 405 167 432 q 162 385 169 395 q 143 362 156 373 q 205 299 160 301 q 342 358 251 299 l 375 389 l 404 411 q 425 419 414 419 q 443 399 436 419 q 395 280 443 364 l 333 173 l 283 87 q 262 25 262 45 q 280 6 262 9 q 398 101 326 6 l 465 194 l 477 202 l 482 198 l 476 182 q 371 43 427 100 q 322 5 346 18 q 276 -8 299 -5 q 209 15 233 -8 q 187 75 189 40 q 236 225 187 152 q 319 329 265 270 q 187 264 244 266 q 114 323 139 264 l 64 255 l 4 171 "},"Â":{"x_min":35,"x_max":1108,"ha":1060,"o":"m 35 116 q 100 221 35 178 q 243 264 163 262 l 263 263 q 274 260 271 263 l 277 258 q 124 217 193 258 q 57 118 59 180 q 101 36 57 68 q 213 6 147 8 q 362 69 291 6 q 488 245 420 123 q 542 351 513 291 q 612 503 597 472 q 726 716 667 639 q 899 879 801 825 q 823 904 866 895 q 719 912 782 912 q 332 778 485 912 q 209 531 211 668 q 239 435 209 470 q 320 401 268 403 q 510 530 439 401 q 560 750 560 627 l 563 764 l 568 753 l 578 698 l 582 638 q 530 463 582 528 q 324 381 466 383 q 221 421 262 381 q 186 530 188 459 q 316 790 186 672 q 491 895 390 859 q 713 929 589 927 l 784 927 q 817 926 805 927 q 857 920 835 926 q 898 913 882 918 q 941 898 920 907 q 996 907 974 905 l 1030 905 l 1019 905 q 987 903 994 905 q 959 893 974 903 q 1067 809 1028 868 q 1108 680 1105 756 q 1070 560 1108 614 q 952 473 1034 509 q 1040 321 1040 437 q 966 101 1040 203 q 759 -16 883 -14 q 666 9 701 -16 q 638 79 640 32 q 671 201 638 134 q 792 294 711 276 q 703 217 747 282 q 685 190 693 203 q 673 158 677 170 q 663 125 671 153 q 662 109 662 120 q 660 91 661 98 q 724 13 660 13 q 883 169 817 13 q 936 384 933 291 q 913 454 936 432 l 877 442 q 844 438 865 438 q 788 467 790 438 q 852 497 788 495 l 884 493 l 923 484 q 982 559 961 509 q 1003 681 1003 608 q 982 796 1003 749 q 926 863 960 843 q 816 709 870 805 q 716 446 768 617 q 475 59 636 169 q 214 -14 371 -11 q 83 19 139 -14 q 35 116 37 52 m 851 481 q 806 463 808 481 q 840 450 806 450 l 870 454 l 898 467 l 880 477 q 851 481 869 481 "},"Í":{"x_min":105,"x_max":1405,"ha":1146,"o":"m 126 106 q 150 38 126 71 q 221 12 175 14 q 344 67 288 12 q 439 217 389 113 l 475 303 l 530 433 l 477 412 q 445 398 453 402 q 431 391 444 398 q 410 380 419 385 q 314 320 339 345 l 307 318 l 303 320 l 310 331 q 399 394 341 362 q 535 454 455 426 q 611 636 569 559 q 724 781 653 711 l 648 748 q 549 726 583 728 q 499 738 522 726 q 477 785 479 751 l 480 830 q 459 854 480 847 q 385 813 430 854 q 317 732 347 778 l 303 713 l 300 711 l 298 715 l 305 734 q 417 855 348 809 q 521 896 473 893 q 559 882 547 896 q 573 825 571 869 l 574 789 q 610 758 580 760 q 728 807 645 758 q 857 909 822 859 l 868 917 l 876 920 q 886 911 881 920 l 880 895 l 827 809 l 776 697 l 735 586 l 721 538 l 707 498 l 788 520 l 876 541 q 1112 848 979 744 q 1303 926 1210 924 q 1375 901 1344 926 q 1405 832 1405 876 q 1388 765 1405 794 q 1336 701 1371 735 q 1186 612 1288 661 q 1028 558 1106 579 l 964 407 l 927 312 l 896 224 q 881 170 886 190 q 873 138 876 151 q 864 80 864 103 q 914 15 864 17 q 1055 77 980 15 q 1142 190 1101 119 l 1152 198 l 1157 201 l 1163 196 l 1153 176 q 1032 34 1090 76 q 909 -5 978 -2 q 789 39 834 -5 q 749 169 751 83 q 867 519 749 279 l 816 509 l 776 500 q 698 475 745 493 q 497 121 606 238 q 221 -8 377 -8 q 135 24 167 -8 q 112 57 128 31 q 105 100 107 71 q 169 205 105 170 l 181 211 l 187 205 l 177 194 q 139 158 153 181 q 126 106 128 137 m 1302 701 q 1350 819 1348 743 q 1335 881 1350 862 q 1291 904 1323 901 q 1173 838 1221 904 q 1035 580 1135 789 q 1167 624 1095 589 q 1302 701 1259 664 "},"´":{"x_min":-85,"x_max":528,"ha":361,"o":"m 315 298 q 260 68 315 139 q 70 -4 207 -1 q -30 30 -4 -4 l -68 -65 l -75 -73 l -79 -77 q -85 -66 -83 -74 l -43 47 l -46 61 q -22 86 -46 86 q -4 68 -6 86 q -19 47 -4 59 q 64 14 3 14 q 185 109 139 14 l 207 175 l 238 295 q 285 432 262 399 q 391 476 315 474 l 450 472 q 505 484 480 472 q 528 506 514 488 q 501 457 528 475 q 434 440 476 440 l 400 443 l 376 447 q 329 414 350 447 q 315 298 317 375 "},"Ú":{"x_min":159.6875,"x_max":919,"ha":929,"o":"m 179 691 q 198 624 179 648 q 257 602 216 604 q 336 637 307 602 q 365 736 365 672 l 362 780 l 363 791 l 367 790 q 388 713 388 752 q 352 623 388 659 q 261 588 320 590 q 186 615 212 588 q 159 688 161 639 q 172 759 159 722 q 183 790 177 779 q 195 818 187 802 l 217 855 q 327 976 263 932 q 430 1013 381 1013 q 470 1001 452 1013 q 488 955 479 992 q 494 894 488 910 q 524 879 499 881 q 636 909 569 879 q 772 1015 716 946 q 795 1027 778 1027 q 813 1013 811 1027 l 808 999 l 763 917 l 701 776 l 663 691 l 599 553 l 655 577 q 719 586 681 586 q 850 533 793 586 q 919 359 916 471 q 819 91 919 202 q 581 -17 719 -17 q 422 31 481 -17 q 350 210 352 89 q 371 341 350 271 q 436 490 392 411 l 527 656 l 580 747 l 642 840 l 691 909 q 667 898 678 903 q 638 884 655 892 q 584 864 618 878 q 472 839 513 839 q 394 901 396 839 l 398 955 q 380 974 398 968 q 305 933 351 974 q 233 848 260 892 q 179 691 179 760 m 469 163 q 490 51 469 97 q 555 7 510 9 q 750 168 667 7 q 821 433 821 305 q 793 527 821 493 q 708 561 766 561 l 669 559 q 638 549 658 559 l 590 524 q 502 337 528 405 q 469 163 469 247 "},"Ý":{"x_min":102,"x_max":849,"ha":777,"o":"m 511 548 q 547 527 530 548 q 571 501 554 511 q 609 492 588 492 q 665 501 634 492 q 687 512 676 503 l 694 515 l 691 508 l 631 476 l 602 465 l 561 458 q 520 481 535 458 q 500 498 516 492 q 457 508 492 501 l 421 504 l 383 493 l 375 491 l 370 494 l 380 502 l 439 529 q 479 541 461 538 q 495 545 485 542 q 511 548 505 547 m 102 178 q 147 322 102 266 q 269 379 191 376 q 359 350 326 379 q 394 277 392 326 q 365 202 394 239 q 281 154 339 173 l 277 157 l 281 163 q 331 216 312 183 q 352 284 352 249 q 334 341 352 321 q 272 362 318 362 q 166 309 209 362 q 125 182 125 257 q 170 57 125 107 q 307 9 215 11 q 605 213 471 9 q 729 628 726 405 q 690 836 729 779 q 573 895 652 895 q 401 836 469 895 q 336 696 338 781 q 352 643 336 669 q 394 623 368 625 q 468 660 432 623 q 510 772 510 703 q 512 786 510 782 l 516 789 l 521 776 q 478 650 521 701 q 375 600 435 600 q 309 625 343 600 q 283 690 285 649 q 367 850 283 782 q 577 919 450 916 q 779 824 709 919 q 849 571 846 734 q 683 168 849 350 q 311 -14 520 -11 q 154 40 210 -14 q 102 178 104 92 "},"И":{"x_min":142,"x_max":1264.265625,"ha":1095,"o":"m 825 276 l 1133 890 l 1264 900 l 896 174 q 861 61 863 105 q 905 13 861 15 q 1002 74 946 13 q 1090 187 1044 121 l 1099 196 l 1103 197 l 1108 190 q 1103 174 1108 181 q 1016 61 1047 90 q 893 -8 951 -5 q 798 21 830 -8 q 773 97 773 50 q 776 133 773 126 l 784 171 q 680 41 739 91 q 572 -7 625 -4 q 446 40 489 -7 q 409 155 411 80 l 414 204 q 419 230 414 214 q 429 262 424 248 q 495 411 442 310 l 554 514 l 636 643 q 682 793 682 714 q 644 897 682 855 q 534 939 609 939 q 264 807 379 939 q 160 560 160 688 q 189 465 160 505 q 280 430 216 432 q 430 560 372 430 q 477 771 475 667 l 476 798 l 479 809 l 482 813 l 487 809 l 495 792 q 512 672 512 736 q 461 493 512 561 q 280 413 401 415 q 176 454 211 413 q 142 561 144 495 q 248 818 142 695 q 533 956 367 956 q 718 885 649 956 q 761 811 742 856 q 778 715 778 768 q 770 639 778 668 q 734 539 763 601 q 662 399 704 473 l 551 212 q 509 83 509 141 q 572 13 509 13 q 754 158 644 13 q 825 276 791 212 "},"р":{"x_min":-222.296875,"x_max":555.03125,"ha":542,"o":"m 223 251 l -120 -414 l -222 -414 l 239 484 l 105 305 l 8 170 l -4 161 q -13 170 -11 161 l -8 183 l 116 355 q 276 561 199 467 l 331 667 l 444 687 l 273 349 q 320 390 291 367 q 329 393 321 390 q 347 401 336 396 q 386 408 359 405 q 462 373 429 408 q 494 292 491 341 q 468 209 494 255 q 392 133 444 166 q 313 38 313 83 q 352 8 313 10 q 459 80 389 8 q 538 190 505 132 l 548 195 l 555 186 l 548 170 q 459 53 483 78 q 338 -8 403 -5 q 262 11 288 -8 q 239 62 241 29 q 297 161 239 115 q 388 261 355 206 q 418 345 418 307 q 379 393 418 390 q 301 352 345 393 q 223 251 262 317 "},"т":{"x_min":-11,"x_max":837,"ha":828,"o":"m 424 411 q 496 383 471 411 q 517 329 517 360 l 515 305 q 578 375 537 336 q 655 410 619 407 q 707 386 688 410 q 727 326 725 365 q 713 259 727 295 q 673 186 701 226 q 646 147 659 166 q 635 124 641 135 q 627 108 630 113 q 609 47 611 69 q 645 13 609 13 q 749 92 682 13 l 817 184 l 831 195 l 837 187 l 829 170 q 811 143 812 144 q 793 119 808 137 l 763 77 q 630 -8 696 -5 q 553 10 582 -8 q 527 72 530 25 q 551 163 527 114 l 633 305 q 662 374 662 355 q 646 390 662 384 q 563 334 616 390 q 476 221 518 284 l 362 0 l 256 0 l 423 326 l 433 348 l 437 372 q 417 392 437 386 q 359 357 394 392 l 326 318 l 263 237 l 141 0 l 33 0 l 209 331 l 219 353 l 225 374 q 209 386 225 379 q 91 291 167 386 l 4 173 l -2 169 l -11 176 l -6 183 l 115 345 q 222 411 176 408 q 279 387 259 411 q 298 331 296 366 l 295 309 q 351 375 323 345 q 424 411 387 408 "},"П":{"x_min":26,"x_max":1466.9375,"ha":1238,"o":"m 906 830 l 748 871 q 625 893 672 893 q 322 776 443 893 q 218 549 218 674 q 243 467 218 505 q 318 437 267 439 q 480 559 416 437 q 533 765 531 655 l 536 776 q 563 656 561 732 q 511 492 563 557 q 322 414 448 414 q 198 548 198 414 q 310 794 198 686 q 652 920 439 920 l 705 920 l 747 914 q 959 897 918 897 l 1039 895 l 1105 892 l 1280 880 q 1393 896 1355 880 q 1466 954 1431 912 q 1382 832 1433 867 q 1190 792 1320 795 q 1028 802 1099 792 q 906 830 952 814 m 979 -8 q 859 50 906 -8 q 815 211 817 106 q 893 468 815 331 q 1062 697 957 585 q 1128 755 1093 736 l 1150 768 l 1189 789 l 1194 790 q 1107 693 1149 751 q 1023 551 1064 634 q 931 229 931 369 q 957 104 931 147 q 1066 52 990 54 l 1093 52 l 1125 57 l 1159 62 l 1164 61 l 1148 47 q 1116 28 1140 42 q 1090 16 1100 20 q 1068 7 1080 12 q 979 -8 1025 -4 m 570 389 q 670 615 637 553 q 867 801 736 743 l 871 799 l 868 797 q 779 651 827 767 l 706 424 q 662 301 684 352 q 613 203 640 243 q 459 47 557 106 q 211 -8 365 -5 q 69 33 119 -8 q 26 119 28 68 q 97 228 26 184 q 247 271 166 268 l 258 271 l 269 266 l 272 262 q 116 223 183 262 q 48 122 50 186 q 80 50 48 80 q 200 13 121 13 q 384 81 306 13 q 570 389 465 154 "},"Ö":{"x_min":107,"x_max":1229.484375,"ha":1124,"o":"m 750 171 q 646 41 704 92 q 537 -7 591 -4 q 410 40 454 -7 q 375 155 377 80 q 393 258 375 202 q 406 302 401 292 q 429 347 410 311 l 491 463 q 601 641 528 528 q 649 793 646 719 q 614 895 649 854 q 500 939 575 936 q 229 807 344 939 q 125 560 125 688 q 154 465 125 505 q 245 430 182 432 q 395 560 338 430 q 443 771 441 667 l 441 798 l 445 812 l 452 809 l 461 792 q 477 672 477 736 q 426 493 477 560 q 245 413 366 415 q 141 453 177 413 q 107 561 109 493 q 214 818 107 694 q 498 956 332 956 q 684 885 613 956 q 743 715 743 822 q 741 678 743 692 q 734 631 741 655 q 698 537 730 600 q 599 353 660 451 l 516 213 q 475 83 475 137 q 537 13 475 13 q 719 158 609 13 q 790 276 758 215 l 1098 890 l 1229 900 l 861 174 q 827 61 827 109 q 872 14 827 16 q 948 53 913 14 l 987 107 l 1000 121 l 1004 122 l 1010 115 q 1000 51 1010 87 l 987 -4 l 1025 15 l 1064 40 l 1069 35 l 1067 26 l 1023 -5 l 984 -30 l 972 -94 q 950 -165 964 -140 q 886 -223 929 -223 q 840 -173 840 -223 q 884 -77 840 -121 q 966 -14 915 -42 l 978 30 l 987 72 q 932 10 957 29 l 905 0 q 859 -8 894 -4 q 768 20 797 -8 q 738 97 738 50 l 741 132 l 750 171 m 961 -40 l 898 -90 q 859 -172 862 -126 q 887 -204 859 -202 q 930 -158 903 -204 l 948 -100 l 961 -40 "},"z":{"x_min":-108,"x_max":458.625,"ha":442,"o":"m 77 78 l 27 12 q -3 -7 16 0 q -19 6 -13 -7 q 0 45 -19 26 q 23 63 7 53 q 59 85 38 75 l 154 191 l 232 284 q 196 287 205 284 l 172 291 q 116 312 148 295 l 66 245 l 11 166 l 1 162 l -5 169 l -1 180 l 98 319 q 68 358 70 331 q 98 378 68 375 q 125 365 108 378 q 136 340 128 361 l 127 323 q 240 301 167 303 q 329 380 286 358 q 381 396 355 393 q 409 373 404 396 q 366 316 409 347 q 257 285 336 299 l 86 94 l 127 101 l 176 105 q 266 88 232 105 q 308 25 300 73 q 385 95 337 40 l 442 179 l 450 186 l 458 182 l 454 170 q 373 62 404 91 q 312 11 339 24 q 232 -238 312 -106 q 11 -394 137 -391 q -69 -376 -39 -394 q -108 -298 -105 -353 q -16 -137 -108 -216 q 220 -8 57 -79 l 223 6 q 204 66 223 49 q 137 84 187 82 l 108 83 l 77 78 m -86 -300 q -73 -347 -86 -325 q -2 -373 -54 -373 q 130 -235 56 -373 q 218 -26 191 -122 q -24 -169 47 -96 q -86 -300 -83 -227 "},"™":{"x_min":148,"x_max":503,"ha":454,"o":"m 286 782 l 286 789 q 263 810 286 810 l 239 810 l 200 663 l 218 663 l 217 656 l 155 656 l 157 663 l 175 663 l 214 810 l 192 810 q 155 782 166 810 l 148 782 l 161 817 l 297 817 l 293 782 l 286 782 m 290 663 l 308 663 l 349 811 l 331 811 l 332 817 l 372 817 l 385 694 l 457 817 l 503 817 l 501 811 l 483 811 l 443 663 l 461 663 l 460 656 l 399 656 l 400 663 l 418 663 l 454 799 l 370 656 l 364 656 l 351 789 l 317 663 l 335 663 l 333 656 l 289 656 l 290 663 "},"ã":{"x_min":20,"x_max":374.890625,"ha":361,"o":"m 68 312 l 62 316 l 64 320 l 72 333 q 137 378 97 357 q 225 401 177 398 q 319 374 286 401 q 351 304 349 351 q 312 209 351 250 q 223 161 288 186 q 110 113 134 132 q 85 57 85 96 q 140 8 85 8 q 280 88 200 8 l 356 187 l 370 198 l 374 192 l 367 175 q 293 73 335 122 q 135 -8 218 -5 q 56 15 87 -8 q 20 90 22 41 q 58 193 20 148 q 144 250 82 218 l 230 286 q 273 324 271 302 q 258 361 273 349 q 216 372 247 370 q 148 357 180 372 q 83 319 121 348 l 73 314 l 68 312 "},"æ":{"x_min":-21,"x_max":1018,"ha":1008,"o":"m 829 383 l 801 309 l 768 205 l 744 122 l 734 60 q 781 13 734 15 q 907 68 845 13 q 1000 182 952 110 l 1008 188 l 1018 182 l 1015 173 q 886 30 953 80 q 779 -8 833 -5 q 672 87 674 -8 q 699 222 672 160 l 728 291 l 759 354 q 630 245 701 324 q 537 129 573 184 q 484 0 508 83 l 372 0 l 431 172 l 470 276 l 496 334 q 370 220 430 280 q 256 94 325 175 q 184 19 227 46 q 73 -5 143 -5 q 2 15 27 -5 q -21 75 -18 35 q -3 128 -21 108 q 41 148 12 146 q 81 133 66 148 q 97 92 95 121 q 81 52 97 67 q 42 37 68 39 q 0 60 15 37 q 76 15 3 15 q 185 88 138 15 l 215 150 l 255 253 l 272 304 l 277 337 q 269 372 277 353 q 226 393 256 393 q 166 366 196 393 q 123 304 138 342 q 110 284 119 291 q 101 298 103 284 q 144 379 101 336 q 251 423 186 421 q 309 402 284 423 q 334 339 334 384 q 320 254 334 299 q 274 144 309 212 q 355 235 302 186 l 424 298 l 508 367 l 522 401 l 609 401 l 523 146 l 577 218 l 640 285 q 770 381 701 346 q 907 415 837 415 q 944 402 931 415 q 955 373 948 396 q 943 344 955 356 q 913 331 930 331 q 883 341 896 331 q 872 372 874 350 q 879 397 872 386 q 829 383 852 397 "},"É":{"x_min":142,"x_max":1264.265625,"ha":1095,"o":"m 825 276 l 1133 890 l 1264 900 l 896 174 q 861 60 863 105 q 904 9 861 11 q 1026 101 950 9 q 1090 187 1062 144 l 1099 196 l 1103 197 l 1108 190 l 1103 174 q 1016 61 1047 90 q 893 -8 951 -5 q 798 25 830 -8 q 773 103 773 58 q 780 158 773 138 l 784 171 q 680 41 739 91 q 572 -7 625 -4 q 446 40 489 -7 q 409 155 411 80 l 414 204 q 419 230 414 214 q 429 262 424 248 q 495 411 442 310 l 554 514 l 636 643 q 682 793 682 714 q 644 897 682 855 q 535 939 609 939 l 529 939 q 262 807 375 939 q 160 560 162 690 q 189 465 160 505 q 280 430 216 432 q 430 560 372 430 q 477 771 475 667 l 476 793 l 476 798 l 479 810 l 482 814 q 495 792 490 814 q 512 672 512 736 q 461 493 512 561 q 280 413 401 415 q 176 454 211 413 q 142 561 144 495 q 248 818 142 695 q 533 956 367 956 q 718 885 649 956 q 761 811 742 856 q 778 715 778 768 l 778 676 l 772 650 q 637 354 756 549 l 551 213 q 509 82 509 141 q 523 28 509 48 q 570 9 537 11 q 721 114 634 9 q 825 276 783 188 m 819 1007 q 832 1033 819 1019 q 864 1047 843 1045 q 889 1035 876 1047 q 900 1007 894 1030 q 880 972 900 984 q 979 934 921 936 q 1086 968 1034 934 q 1075 996 1082 972 q 1086 1026 1075 1014 q 1118 1044 1098 1039 q 1157 1006 1155 1044 q 1148 979 1157 997 q 1108 941 1136 957 q 979 906 1053 908 q 859 944 912 906 q 819 1007 821 973 "},"и":{"x_min":45,"x_max":617,"ha":597,"o":"m 612 205 l 617 200 q 611 183 614 187 q 526 64 562 104 q 408 -8 465 -5 q 329 12 354 -8 q 305 76 307 32 l 309 115 q 315 137 309 123 q 325 165 322 157 l 336 194 l 356 236 l 329 190 l 297 137 q 228 47 256 78 q 138 -8 178 -5 q 45 93 47 -8 q 53 151 45 117 q 79 225 61 185 l 154 395 l 286 404 l 171 173 l 135 98 q 121 41 126 69 q 150 12 121 12 q 211 51 170 12 q 283 145 241 81 l 346 251 l 392 335 l 419 395 l 555 404 l 413 123 q 386 43 388 69 q 413 8 386 10 q 537 106 462 8 q 595 191 560 134 l 605 201 l 612 205 "},"~":{"x_min":81,"x_max":314,"ha":371,"o":"m 81 294 l 83 304 q 108 333 91 324 q 151 345 126 342 l 176 344 l 204 336 l 230 323 q 246 318 236 321 q 265 312 257 315 q 300 333 283 312 l 306 340 l 314 336 l 311 323 q 280 294 302 306 l 237 284 l 205 286 q 179 295 196 286 l 157 308 l 132 315 q 96 297 112 315 l 89 290 l 81 294 "},"³":{"x_min":-11,"x_max":339,"ha":314,"o":"m 146 395 l 272 404 l 101 78 q 93 41 93 59 q 100 15 93 26 q 123 5 108 7 q 232 79 170 5 q 304 182 263 114 l 314 188 l 319 192 l 325 186 l 319 173 l 247 75 q 120 -8 176 -8 q 44 19 70 -8 q 19 91 19 49 q 33 151 19 125 l 125 337 l 6 176 l 0 169 l -11 174 l -2 191 l 71 294 l 146 395 m 293 618 q 326 604 314 618 q 339 569 339 591 q 322 526 339 548 q 276 506 308 508 q 239 519 251 506 q 226 552 226 531 q 243 597 226 576 q 293 618 260 618 "},"¡":{"x_min":124,"x_max":1116.5,"ha":929,"o":"m 736 1007 q 748 1033 736 1019 q 779 1047 759 1045 q 805 1035 788 1047 q 816 1007 810 1028 q 797 972 816 984 q 895 933 837 935 q 1002 968 950 933 q 991 996 997 973 q 1002 1026 991 1013 q 1034 1044 1014 1038 q 1073 1005 1071 1044 q 1062 976 1073 991 q 1023 941 1054 960 q 998 927 1001 929 q 962 913 993 925 q 895 905 931 905 q 776 944 828 905 q 736 1007 738 973 m 343 203 l 386 200 l 392 199 l 383 198 q 252 175 307 198 q 182 85 182 147 q 215 9 182 38 q 320 -14 246 -11 q 469 15 398 -14 q 647 173 561 53 q 732 330 672 207 l 824 521 l 658 315 q 504 234 571 236 q 415 264 445 234 q 386 348 386 296 l 386 373 q 390 390 387 378 q 392 403 392 401 q 405 441 394 416 q 486 584 424 494 l 534 655 q 580 737 565 704 q 597 809 597 774 q 567 871 597 842 q 476 893 539 891 q 229 789 333 893 q 143 594 145 698 q 165 519 143 547 q 233 492 186 494 q 373 587 311 492 q 408 668 393 625 q 420 751 420 709 l 419 775 l 419 784 l 420 791 q 427 785 423 790 q 431 777 429 783 q 434 773 433 775 q 436 769 435 771 l 445 730 l 449 689 q 400 538 449 597 q 233 472 343 472 q 151 505 186 472 q 124 596 126 537 q 214 801 124 707 q 480 910 318 910 q 648 854 593 910 q 694 733 694 808 l 693 704 q 685 668 693 685 q 649 593 681 642 l 587 495 l 530 410 q 492 345 504 371 q 477 291 484 325 q 518 257 477 259 q 663 352 572 257 q 851 603 755 448 q 960 739 890 668 q 1026 797 997 775 q 1094 846 1040 808 l 1112 852 l 1116 849 l 1113 843 q 1102 829 1109 834 q 1007 712 1043 782 q 948 569 977 658 l 894 391 q 816 224 859 278 q 573 14 713 79 q 324 -31 469 -31 q 132 70 134 -31 q 197 167 132 130 q 343 203 259 201 "},"[":{"x_min":-107,"x_max":539,"ha":315,"o":"m 529 896 l 433 896 l -44 -75 l 68 -75 l 58 -96 l -107 -96 l 393 920 l 539 920 l 529 896 "},"К":{"x_min":7,"x_max":1286.46875,"ha":1085,"o":"m 957 690 q 1065 850 1033 817 q 1258 926 1139 924 q 1279 923 1276 926 l 1286 919 l 1281 916 l 1262 912 q 1171 890 1207 912 q 1111 829 1133 869 l 1050 694 q 958 568 1015 620 q 837 495 905 519 q 850 461 843 485 q 857 428 856 430 q 858 397 857 412 l 864 251 l 865 150 q 866 105 865 122 q 872 61 866 83 q 901 18 876 20 q 1008 91 943 18 q 1018 104 1014 98 q 1029 117 1023 110 q 1043 136 1035 125 q 1086 197 1061 161 l 1096 211 l 1100 212 l 1105 205 l 1104 198 l 1096 183 l 1046 111 l 1005 62 q 875 -8 938 -8 q 713 130 715 -8 l 713 157 l 717 187 l 730 252 l 757 350 q 787 489 785 461 q 750 490 758 489 q 719 501 738 490 q 698 530 702 509 q 701 536 698 533 q 711 547 701 538 q 734 554 718 552 q 789 544 765 554 q 826 516 815 535 q 957 690 864 537 m 438 281 l 495 430 q 530 516 510 473 q 577 616 558 577 q 647 723 605 671 q 711 793 660 741 l 623 752 q 516 727 560 727 q 461 744 482 727 q 443 797 445 760 l 443 819 q 438 845 443 835 q 422 854 438 851 q 352 810 397 854 q 318 773 343 801 q 284 732 301 754 l 271 713 l 266 711 q 275 734 266 719 q 381 852 317 810 q 491 896 445 893 q 526 882 512 896 q 540 826 538 870 q 547 773 540 783 q 577 761 555 765 q 704 804 634 761 q 805 898 761 838 q 826 911 814 911 l 833 904 l 830 890 q 770 790 808 857 l 730 683 l 629 391 q 562 237 592 289 q 401 52 500 124 q 191 -17 308 -14 q 62 16 113 -17 q 7 115 9 53 q 76 219 7 178 q 225 262 146 260 l 239 262 l 254 258 l 243 255 q 104 219 166 255 q 32 115 34 178 q 80 33 32 66 q 193 3 133 5 q 350 103 273 3 q 438 281 390 159 m 733 540 l 718 536 l 715 532 q 732 511 715 523 q 789 502 748 502 q 775 527 789 515 q 733 540 762 540 "},"%":{"x_min":66,"x_max":510,"ha":555,"o":"m 72 1 l 67 6 l 75 30 q 188 206 121 109 l 283 334 l 372 447 q 458 570 410 496 l 474 581 l 480 573 l 476 561 q 457 524 468 541 q 436 490 442 499 l 390 420 l 314 314 l 207 183 q 86 16 147 106 l 76 2 l 72 1 m 510 220 q 464 88 510 167 q 340 4 410 6 q 288 33 315 4 q 266 106 266 62 q 276 160 266 136 q 349 250 293 205 q 453 289 402 287 q 494 270 481 289 q 510 220 507 255 m 308 522 q 262 389 308 469 q 139 305 209 307 q 86 334 113 305 q 66 409 66 363 q 75 462 66 440 q 147 551 92 511 q 251 591 200 589 q 293 572 280 591 q 308 522 306 557 m 311 54 q 344 12 311 12 q 439 77 394 12 q 485 226 485 142 q 478 263 485 252 q 451 281 474 275 q 353 184 406 281 q 311 54 311 101 m 108 355 q 143 314 108 314 q 237 379 193 314 q 283 529 283 443 q 276 565 283 550 q 250 583 273 577 q 150 486 200 583 q 108 355 108 402 "},"P":{"x_min":32.15625,"x_max":947,"ha":750,"o":"m 758 794 q 691 811 731 805 l 636 818 l 609 820 q 254 696 390 820 q 139 468 141 593 q 165 380 139 413 q 244 349 191 351 q 408 472 336 349 q 469 674 467 576 l 472 686 l 473 682 l 480 641 l 483 597 q 436 422 483 492 q 250 331 375 331 q 154 368 187 331 q 121 468 121 405 q 241 708 121 592 q 611 838 383 838 l 665 838 l 694 838 q 706 834 702 835 q 715 832 711 833 l 749 826 l 794 814 q 874 833 829 831 l 893 833 l 897 832 l 893 830 q 856 824 874 830 q 820 806 841 820 q 899 750 876 775 q 947 637 944 701 q 844 457 947 533 q 623 368 758 396 q 444 70 561 171 q 191 -13 342 -13 q 89 18 138 -13 q 32 121 34 55 q 57 179 32 152 q 112 207 80 205 q 183 132 183 207 q 159 71 183 96 q 90 46 136 46 l 111 30 q 144 14 122 22 q 194 7 157 10 q 377 136 286 7 q 483 336 422 197 q 383 297 432 325 l 374 296 l 380 304 l 437 333 l 463 343 l 491 351 l 536 469 q 656 701 580 600 q 758 794 706 763 m 630 383 q 791 458 736 412 q 850 631 850 515 q 834 721 850 686 q 793 773 826 748 q 699 601 745 712 q 630 383 670 521 "},"_":{"x_min":0,"x_max":383,"ha":374,"o":"m 0 -15 l 383 -15 l 383 -33 l 0 -33 l 0 -15 "},"ñ":{"x_min":0,"x_max":402.765625,"ha":397,"o":"m 390 346 q 376 312 390 328 q 340 298 364 300 q 315 305 325 298 q 297 340 299 315 q 306 370 297 357 q 338 383 315 383 l 345 383 q 320 393 342 386 q 177 271 260 393 q 97 65 99 150 q 150 9 97 11 q 290 64 222 9 q 384 177 337 101 l 394 186 l 398 187 l 402 182 l 397 163 q 270 29 343 73 q 142 -8 210 -8 q 38 29 80 -8 q 0 128 2 66 q 87 318 0 226 q 295 410 174 410 q 390 346 388 410 "},"‚":{"x_min":-53,"x_max":163,"ha":186,"o":"m 59 52 q 71 94 59 77 q 113 111 84 111 q 150 95 139 111 q 163 56 163 83 q 154 15 163 40 q 85 -65 141 -18 l -8 -134 l -47 -155 l -53 -154 l -37 -143 l -2 -120 l 27 -97 q 85 -19 85 -51 l 77 -1 l 64 25 l 59 52 "},"Æ":{"x_min":-20.6875,"x_max":1454,"ha":1289,"o":"m 1244 853 l 1185 675 l 1146 548 l 1116 440 l 1089 329 l 1073 240 l 1066 176 l 1063 122 q 1076 43 1063 74 q 1122 12 1088 14 q 1221 87 1163 12 l 1288 194 l 1297 201 l 1301 202 l 1308 196 l 1304 184 l 1233 69 q 1116 -8 1176 -5 q 998 46 1044 -8 q 959 193 961 99 q 1006 436 959 299 q 1027 496 1014 462 q 1055 563 1045 543 q 1088 638 1076 614 q 1111 680 1088 641 q 1144 741 1119 701 q 1169 781 1149 752 q 1192 817 1185 808 q 1102 739 1151 788 l 1038 673 l 971 594 q 798 337 856 449 q 685 0 736 217 l 564 0 q 592 92 581 56 q 624 184 609 149 q 655 276 648 258 q 692 377 663 300 q 852 767 775 600 q 837 751 844 759 q 824 738 830 744 q 794 702 805 717 l 727 610 q 596 416 673 534 l 484 243 l 433 166 q 423 153 427 159 q 412 137 419 147 q 392 112 400 119 q 273 16 342 49 q 99 -17 206 -17 q 12 9 46 -17 q -20 79 -20 36 q -13 116 -20 104 q 0 134 -10 132 l 6 123 l 4 108 l 0 79 q 29 22 0 49 q 101 3 56 5 q 259 59 195 3 q 381 227 326 118 q 422 323 385 234 q 485 479 461 424 q 534 642 519 583 q 557 785 554 734 q 458 890 557 890 q 357 842 404 890 q 314 721 316 797 q 302 702 314 708 q 293 731 299 705 q 348 866 293 810 q 480 921 405 921 q 587 886 546 921 q 633 750 633 844 q 594 529 633 653 l 561 430 q 518 324 541 373 q 737 655 675 568 l 880 848 l 919 917 l 1008 917 l 960 815 l 909 690 q 787 359 850 543 q 903 538 826 433 q 1037 701 972 630 q 1212 861 1135 807 q 1355 911 1287 911 q 1427 873 1396 911 q 1454 781 1451 833 q 1434 695 1454 732 q 1416 674 1426 674 l 1413 680 q 1420 700 1413 690 q 1436 777 1433 730 q 1415 856 1436 819 q 1362 893 1397 890 q 1298 883 1321 893 q 1244 853 1273 874 "},"ы":{"x_min":-6.671875,"x_max":795.46875,"ha":787,"o":"m 476 174 q 416 118 446 137 q 374 102 398 107 q 351 108 362 102 q 279 30 328 71 q 172 -13 226 -10 q 84 20 118 -13 q 53 103 55 51 q 72 185 53 147 l 171 400 l 97 301 l 8 177 l 1 170 l -6 177 l -3 187 q 154 401 84 321 l 294 418 l 170 173 q 130 48 132 97 q 174 2 130 2 q 212 6 195 2 q 255 30 230 12 q 340 116 305 62 q 280 173 306 133 q 253 249 255 211 q 260 277 253 265 q 284 290 268 290 q 338 255 309 290 q 369 172 366 223 l 366 148 l 360 123 l 376 120 q 408 131 387 120 q 467 187 429 145 l 545 290 l 621 395 l 630 402 l 764 415 l 642 173 l 610 99 q 598 62 606 83 q 591 30 592 34 q 606 8 591 10 q 706 82 645 8 q 776 179 720 98 l 785 190 l 790 191 l 795 183 l 790 169 q 700 46 733 81 q 592 -13 647 -10 q 534 2 553 -13 q 515 56 517 15 q 544 180 515 95 q 641 389 574 267 l 563 286 l 476 174 "},"ª":{"x_min":144,"x_max":924,"ha":812,"o":"m 670 676 q 699 643 670 643 q 812 701 753 643 q 871 825 871 759 q 851 876 871 857 q 793 896 833 893 q 558 760 688 896 q 353 455 442 636 q 266 158 266 278 q 296 51 266 92 q 395 13 327 15 q 598 101 509 13 q 672 266 669 178 q 651 329 672 305 q 586 355 632 355 q 501 320 531 355 q 480 283 489 303 q 473 240 475 269 q 491 166 473 202 l 492 159 l 490 155 q 437 252 439 185 q 472 334 437 297 q 581 371 505 368 q 664 344 636 371 q 694 262 694 319 q 617 88 694 171 q 395 -4 530 -1 q 206 68 270 -4 q 144 274 144 138 q 350 686 144 467 q 790 919 566 916 q 886 889 849 919 q 924 817 924 860 q 843 690 924 755 q 701 627 764 627 q 666 640 685 627 q 655 675 662 646 q 672 734 655 698 q 724 797 689 770 l 735 804 l 739 805 l 742 802 l 738 797 q 691 740 713 775 q 670 676 670 705 m 529 570 q 570 547 558 570 q 591 520 574 535 l 628 514 l 654 514 q 665 517 662 516 q 672 519 668 518 q 707 534 695 525 l 713 536 l 719 530 l 716 523 q 656 494 700 513 q 587 476 615 478 q 549 491 558 476 q 521 516 541 508 q 481 524 505 524 l 456 524 q 447 521 451 522 q 438 519 443 520 l 407 512 l 401 511 l 393 516 l 402 524 l 473 555 q 529 570 492 563 "},"Œ":{"x_min":106.796875,"x_max":1366,"ha":1386,"o":"m 1070 930 l 1206 944 l 1017 562 l 1040 568 l 1087 581 l 1148 589 q 1310 519 1249 589 q 1366 359 1363 457 q 1249 87 1366 203 q 1002 -17 1141 -17 q 827 41 890 -17 q 767 200 769 98 q 772 270 767 240 q 794 346 777 304 q 822 420 807 387 q 867 518 834 450 l 765 493 q 723 482 733 489 l 698 474 q 674 413 675 414 q 649 356 667 393 q 595 251 629 305 q 443 68 524 129 q 222 -8 344 -5 q 137 24 167 -8 q 116 57 128 35 q 106 101 108 77 q 122 159 106 136 q 169 205 137 185 l 182 211 l 187 205 l 177 194 q 140 158 153 181 q 126 105 128 137 q 151 37 126 70 q 222 7 175 9 q 405 145 326 7 q 530 432 424 180 l 477 412 q 445 398 453 402 q 432 391 444 397 q 410 380 420 385 q 315 320 339 344 l 308 317 l 304 320 l 311 331 q 412 401 332 355 q 536 453 452 420 l 569 545 l 605 622 q 725 781 656 717 l 648 748 q 548 726 584 728 q 483 773 485 726 l 484 793 l 491 818 l 497 847 q 477 860 497 860 q 392 814 451 860 q 318 732 345 775 l 304 713 l 300 711 l 297 715 l 305 734 q 418 855 349 809 q 522 896 474 893 q 561 882 547 896 q 573 826 573 868 q 581 772 573 789 q 610 758 589 762 q 728 807 646 758 q 858 909 822 859 l 869 917 l 876 920 q 887 911 881 920 l 880 895 q 780 706 823 809 l 708 497 l 790 521 l 876 541 l 1070 930 m 879 174 q 910 51 879 97 q 1002 7 943 9 q 1203 179 1122 7 q 1268 432 1265 319 q 1141 562 1268 562 q 1060 549 1108 562 l 1003 534 q 912 329 947 429 q 879 174 879 230 "},"T":{"x_min":19.328125,"x_max":1058.046875,"ha":697,"o":"m 177 504 q 202 427 177 461 q 275 400 225 402 q 423 516 358 400 q 472 710 470 610 l 474 722 q 500 610 500 677 q 451 459 500 519 q 276 384 393 384 q 190 415 222 384 q 161 502 161 447 q 270 732 161 624 q 586 856 394 853 l 651 851 q 694 846 672 851 q 749 836 721 843 l 824 825 l 895 819 q 991 835 961 819 l 1026 856 q 1058 887 1038 864 q 1003 791 1045 834 q 871 740 950 742 q 782 756 833 740 l 706 791 l 621 822 q 554 832 590 828 q 274 716 387 832 q 177 504 179 617 m 481 272 l 561 483 q 647 648 604 600 q 708 706 681 689 q 784 745 733 724 q 731 670 762 727 q 697 559 720 642 l 670 441 q 659 394 664 401 l 634 311 q 472 73 580 156 q 195 -8 366 -5 q 69 28 119 -8 q 19 122 19 63 q 40 180 19 155 q 92 205 60 205 q 163 132 163 205 q 140 76 163 100 q 74 53 118 55 q 125 23 90 39 l 154 14 l 197 12 q 373 89 300 12 q 481 272 430 148 "},"š":{"x_min":-41.734375,"x_max":679,"ha":681,"o":"m 234 175 q 317 294 292 252 l 347 344 l 378 404 l 498 414 l 469 354 l 435 275 q 484 304 455 292 q 548 317 513 317 q 636 288 604 317 q 679 190 676 256 q 626 56 679 113 q 460 -14 563 -14 q 343 24 390 -14 q 300 125 302 60 q 315 225 300 181 q 378 360 332 275 l 313 257 l 241 154 l 170 68 q 27 -7 100 -7 q -22 8 -3 -7 q -41 55 -39 24 q -26 93 -41 78 q 13 108 -13 106 q 66 55 64 108 q 61 28 66 38 q 37 8 57 20 q 161 84 87 8 l 234 175 m 386 100 q 457 3 386 5 q 551 73 501 3 q 602 220 602 144 q 536 293 602 290 q 473 276 506 293 l 423 239 l 398 169 q 386 100 386 128 "},"Þ":{"x_min":43.0625,"x_max":1512.40625,"ha":1429,"o":"m 562 603 q 630 713 587 655 q 658 747 641 729 q 692 781 672 764 l 612 747 q 518 727 562 729 q 466 737 485 727 q 448 773 450 747 l 457 813 l 465 847 q 444 860 465 860 q 359 814 418 860 q 284 732 311 775 l 270 713 l 266 710 q 274 734 266 719 q 381 852 317 810 q 491 896 445 893 q 526 882 512 896 q 540 825 538 870 q 547 772 540 785 q 577 758 553 760 q 700 805 612 758 q 827 909 785 852 q 845 919 835 916 q 855 911 853 915 l 850 896 q 784 789 810 836 q 746 697 775 768 l 683 523 l 768 544 l 855 562 q 957 711 896 640 q 1130 854 1037 801 q 1252 901 1186 881 q 1381 918 1314 918 q 1484 880 1445 918 q 1512 799 1509 853 q 1509 770 1512 773 q 1502 755 1509 762 l 1499 752 l 1494 759 l 1495 770 l 1501 798 q 1476 865 1501 835 q 1386 901 1446 898 q 1170 817 1271 901 q 965 500 1062 722 l 922 397 l 887 298 q 853 118 855 183 q 873 33 853 66 q 948 3 894 5 q 1165 128 1059 3 q 1331 443 1272 254 l 1364 567 q 1383 698 1381 655 q 1369 766 1383 740 q 1324 793 1356 790 q 1105 579 1213 793 q 1034 383 1059 479 q 1010 198 1013 295 l 1010 171 l 1012 155 l 1010 145 l 1006 148 l 999 166 l 998 207 q 1099 606 998 401 q 1326 810 1202 810 q 1397 776 1371 810 q 1413 738 1406 760 l 1419 687 q 1403 566 1419 623 l 1370 440 q 1303 270 1345 348 q 1201 128 1261 192 q 952 -14 1078 -14 q 798 47 849 -14 q 749 214 749 109 q 766 347 749 279 q 822 494 784 420 l 782 486 l 739 475 l 657 451 l 623 368 l 576 274 q 425 79 511 155 q 191 -8 321 -8 q 80 24 118 -8 q 43 106 43 57 q 62 177 43 146 q 122 226 82 206 l 134 230 l 140 227 l 143 224 l 131 214 q 83 171 108 202 q 78 160 81 167 q 72 146 75 153 q 65 112 67 134 q 95 37 65 67 q 191 8 127 8 q 376 149 288 8 q 438 282 409 205 l 562 603 "},"j":{"x_min":-414,"x_max":315,"ha":280,"o":"m 6 162 l -1 155 l -11 161 l -4 174 l 134 366 l 246 374 l 51 -13 q 160 40 117 4 q 276 173 203 73 l 285 180 l 292 174 l 288 162 q 176 25 225 61 q 40 -33 127 -10 l -15 -146 l -48 -209 q -173 -339 -94 -287 q -248 -376 -207 -362 q -322 -392 -285 -389 q -388 -371 -364 -392 q -414 -314 -414 -350 q -318 -176 -414 -239 l -179 -97 l -62 -43 l 121 320 l 65 241 l 6 162 m 315 527 q 301 488 315 506 q 259 470 289 473 q 223 483 242 470 q 212 518 218 489 q 227 558 212 541 q 269 575 242 575 q 302 561 289 575 q 315 527 315 548 m -273 -173 q -349 -243 -324 -204 l -370 -280 q -377 -319 -372 -285 q -363 -362 -377 -348 q -324 -376 -352 -374 q -233 -331 -277 -376 q -153 -226 -187 -290 l -119 -161 l -76 -68 l -177 -119 l -273 -173 "},"1":{"x_min":24,"x_max":440,"ha":389,"o":"m 24 0 l 392 533 l 212 410 l 54 309 l 39 304 l 33 308 l 36 313 l 44 323 q 139 381 74 340 q 295 484 204 423 l 430 573 l 435 577 l 440 573 q 283 208 353 393 q 233 0 233 69 l 24 0 "},"›":{"x_min":36,"x_max":270,"ha":299,"o":"m 270 277 q 175 190 270 259 l 60 108 l 49 102 l 43 101 l 36 106 q 52 129 36 112 q 142 211 89 153 q 189 270 183 256 q 164 333 189 284 q 105 427 140 381 q 91 452 99 435 l 98 459 l 105 457 l 121 447 q 215 351 144 427 q 270 277 270 292 "},"<":{"x_min":68,"x_max":302,"ha":336,"o":"m 68 269 q 127 329 68 282 l 278 438 l 292 445 l 296 447 l 302 440 l 297 433 l 285 418 q 192 330 258 396 q 141 266 147 281 q 169 208 141 247 l 189 176 q 234 119 208 147 l 242 104 l 246 94 l 241 87 l 234 90 l 217 100 q 124 191 184 126 q 68 269 70 250 "},"Ц":{"x_min":107,"x_max":1229.484375,"ha":1124,"o":"m 750 171 q 646 41 704 92 q 537 -7 591 -4 q 410 40 454 -7 q 375 155 377 80 q 393 258 375 202 q 406 302 401 292 q 429 347 410 311 l 491 463 q 601 641 528 528 q 649 793 646 719 q 614 895 649 854 q 500 939 575 936 q 229 807 344 939 q 125 560 125 688 q 154 465 125 505 q 245 430 182 432 q 395 560 338 430 q 443 771 441 667 l 441 798 l 445 812 l 452 809 l 461 792 q 477 672 477 736 q 426 493 477 560 q 245 413 366 415 q 141 453 177 413 q 107 561 109 493 q 214 818 107 694 q 498 956 332 956 q 684 885 613 956 q 743 715 743 822 q 741 678 743 692 q 734 631 741 655 q 698 537 730 600 q 599 353 660 451 l 516 213 q 475 83 475 137 q 537 13 475 13 q 719 158 609 13 q 790 276 758 215 l 1098 890 l 1229 900 l 861 174 q 827 61 827 109 q 872 14 827 16 q 948 53 913 14 l 987 107 l 1000 121 l 1004 122 l 1010 115 q 1000 51 1010 87 l 987 -4 l 1025 15 l 1064 40 l 1069 35 l 1067 26 l 1023 -5 l 984 -30 l 972 -94 q 950 -165 964 -140 q 886 -223 929 -223 q 840 -173 840 -223 q 884 -77 840 -121 q 966 -14 915 -42 l 978 30 l 987 72 q 932 10 957 29 l 905 0 q 859 -8 894 -4 q 768 20 797 -8 q 738 97 738 50 l 741 132 l 750 171 m 961 -40 l 898 -90 q 859 -172 862 -126 q 887 -204 859 -202 q 930 -158 903 -204 l 948 -100 l 961 -40 "},"t":{"x_min":-8,"x_max":432,"ha":296,"o":"m 300 630 l 401 638 l 323 488 l 419 488 l 430 483 l 432 479 l 416 472 l 316 472 l 125 97 l 112 66 l 108 38 q 132 8 108 10 q 239 98 169 8 l 293 174 l 298 182 l 305 174 l 301 161 q 216 47 248 81 q 117 -11 162 -11 q 50 10 73 -11 q 28 70 30 29 q 46 137 28 101 l 179 396 l 5 161 l -2 155 l -8 162 l -3 174 l 82 295 l 219 474 l 300 630 "},"¬":{"x_min":77.71875,"x_max":400,"ha":488,"o":"m 400 285 l 338 285 l 338 348 l 77 348 l 77 411 l 400 411 l 400 285 "},"ù":{"x_min":-11,"x_max":868,"ha":853,"o":"m 685 -7 q 608 15 636 -7 q 581 90 583 37 q 601 173 581 128 l 627 236 l 570 137 q 502 44 529 72 q 412 -7 457 -4 q 311 85 313 -7 q 329 172 311 120 l 355 236 l 297 137 q 204 28 249 65 q 132 -8 164 -5 q 65 21 90 -8 q 41 96 43 48 q 72 205 41 142 l 137 344 l 76 268 l 5 173 l 0 166 l -11 174 l -5 186 l 58 272 l 151 395 l 286 404 l 147 130 l 132 86 q 123 43 123 61 q 145 12 123 14 q 209 51 171 12 q 283 145 236 77 l 345 249 l 391 335 l 419 395 l 554 404 l 412 123 q 395 83 401 102 q 390 43 392 70 q 415 8 390 10 q 502 69 453 8 l 556 145 l 618 248 l 663 335 l 691 395 l 827 404 l 685 123 l 666 83 l 656 40 q 690 8 656 10 q 751 25 722 8 l 773 45 q 797 77 782 54 l 806 87 l 812 91 l 816 86 l 797 -8 l 859 23 l 865 25 l 868 20 l 863 12 l 832 -8 l 794 -27 q 790 -52 794 -37 q 783 -83 790 -67 l 775 -118 q 715 -186 756 -184 q 687 -173 701 -186 q 677 -140 682 -166 q 716 -66 677 -107 q 780 -17 724 -58 l 793 45 q 747 3 776 16 q 685 -7 725 -4 m 694 -140 q 716 -172 694 -166 q 751 -134 732 -172 q 776 -37 763 -101 q 713 -91 728 -74 q 694 -140 696 -114 "},"Ф":{"x_min":12,"x_max":1189,"ha":1203,"o":"m 697 224 q 501 24 610 87 q 198 -35 394 -32 q 12 70 14 -35 q 73 168 12 131 q 215 205 135 205 l 264 201 q 138 177 186 201 q 62 83 64 146 q 94 13 62 37 q 199 -7 125 -7 q 356 17 294 -7 q 527 173 445 55 l 583 273 l 626 367 q 547 317 593 339 q 441 291 489 293 q 338 327 380 291 q 297 420 297 363 q 363 610 297 511 q 590 728 446 726 q 694 705 655 728 q 754 648 740 684 l 783 698 q 822 756 801 731 q 953 893 873 819 l 885 848 l 832 816 q 679 767 744 769 q 620 780 643 767 q 598 826 600 792 l 601 865 q 597 878 601 873 q 577 885 594 880 q 550 878 563 885 q 505 848 536 874 q 440 773 475 822 l 430 762 l 427 759 l 423 764 l 429 776 q 536 894 471 851 q 646 937 599 935 q 680 923 666 937 q 694 863 692 911 q 701 812 694 826 q 733 798 709 800 q 858 849 776 798 q 981 951 942 901 q 999 959 989 959 q 1018 947 1012 959 l 1012 934 q 916 779 960 877 l 859 641 q 946 690 888 664 q 1046 708 1003 705 q 1150 673 1111 708 q 1189 581 1186 640 q 1136 377 1189 463 q 937 258 1068 260 q 843 280 887 258 q 768 363 793 307 l 740 302 l 697 224 m 636 685 q 573 673 603 685 q 514 634 544 663 q 449 536 484 610 q 418 418 420 468 q 438 358 418 387 q 493 331 459 334 q 559 351 524 331 q 643 414 607 374 l 739 622 q 701 667 732 648 q 636 685 673 683 m 900 298 q 1021 401 967 298 q 1070 602 1067 492 q 995 672 1070 669 q 850 604 924 672 l 836 547 l 819 500 q 780 396 798 427 q 841 318 801 346 q 900 298 868 301 "},"ï":{"x_min":-12,"x_max":621,"ha":610,"o":"m 262 237 l 140 0 l 31 0 l 207 331 l 218 355 l 225 377 q 211 390 225 390 q 92 288 178 390 q 3 170 57 246 l -4 163 l -12 172 l -6 183 l 72 297 q 217 411 159 408 q 285 383 267 411 q 297 326 297 364 l 294 305 q 364 378 330 350 q 434 410 399 407 q 485 386 467 410 q 504 325 502 366 q 503 291 504 300 q 491 251 503 279 q 451 184 483 222 q 403 106 424 149 q 383 45 386 73 q 423 13 383 15 q 522 76 460 13 q 599 183 551 109 l 615 194 l 621 187 l 615 173 q 497 25 549 68 q 415 -8 458 -8 q 336 11 359 -8 q 312 83 315 29 q 325 146 312 106 q 368 237 338 186 l 419 319 q 443 371 435 343 q 421 389 443 386 q 337 333 391 389 q 262 237 283 279 "},"Ò":{"x_min":26,"x_max":1683.5,"ha":1421,"o":"m 945 844 l 766 877 q 631 893 670 893 q 328 770 453 893 q 249 662 277 720 q 223 549 225 610 q 248 467 223 505 q 323 437 272 439 q 485 559 423 437 q 538 765 536 657 l 541 776 l 544 773 l 553 754 l 562 726 l 569 693 l 570 658 q 519 494 570 560 q 328 414 457 416 q 234 449 270 414 q 204 544 206 486 q 321 787 204 667 q 659 920 456 917 l 1013 899 l 1126 895 l 1227 893 l 1490 880 q 1597 893 1560 880 q 1683 954 1634 905 q 1672 920 1678 932 q 1651 885 1666 903 q 1585 821 1630 850 q 1546 807 1577 817 q 1491 795 1528 802 q 1397 792 1490 795 q 1176 805 1283 792 q 1130 809 1151 807 q 1069 821 1103 813 l 945 844 m 1187 -8 q 1079 29 1116 -8 q 1029 197 1029 77 q 1105 468 1029 323 q 1277 697 1172 599 l 1308 722 l 1339 743 q 1415 781 1370 762 l 1419 779 l 1412 772 q 1229 533 1320 703 q 1139 225 1141 369 q 1147 144 1139 180 q 1174 90 1156 110 q 1273 48 1210 48 l 1326 53 l 1368 61 l 1355 47 q 1187 -8 1271 -5 m 690 0 q 721 91 701 37 q 769 211 741 144 q 835 364 797 278 q 902 511 890 483 q 997 711 975 667 q 1054 761 1010 737 l 1131 794 l 1131 787 q 1015 566 1086 725 q 893 258 968 461 l 853 147 l 806 0 l 690 0 m 548 333 l 631 538 q 720 697 678 648 q 788 759 756 739 q 867 801 820 780 q 769 622 822 763 l 678 352 q 595 176 641 252 q 468 51 540 92 q 348 5 419 22 l 279 -4 l 211 -8 q 63 33 115 -8 q 26 120 26 67 q 94 226 26 183 q 241 271 158 268 l 257 271 l 269 264 l 271 262 q 116 223 183 262 q 48 122 50 186 q 98 38 48 73 q 200 13 137 13 q 415 110 321 13 q 548 333 482 182 "},"О":{"x_min":76.3125,"x_max":832.96875,"ha":682,"o":"m 819 798 q 795 865 819 837 q 705 901 767 898 q 463 794 568 901 q 283 500 372 703 q 243 398 272 474 q 205 290 223 346 q 173 119 175 192 q 194 33 173 66 q 269 3 214 5 q 477 119 367 3 q 652 443 589 237 l 686 576 q 703 697 703 647 q 689 765 703 738 q 642 793 676 790 q 424 577 526 793 q 332 196 334 377 l 333 163 q 326 141 333 143 l 323 147 l 319 165 l 318 204 q 323 302 318 258 q 341 400 328 355 q 416 598 362 489 q 645 810 520 807 q 715 776 687 810 q 737 687 735 739 q 723 576 737 635 l 689 440 q 620 269 662 348 q 520 127 578 191 q 272 -14 397 -14 q 122 60 176 -14 q 76 241 76 127 q 92 381 76 301 q 137 514 110 461 q 330 775 211 669 q 541 892 427 855 q 699 918 629 915 q 803 880 766 918 q 832 801 832 848 l 828 770 q 821 755 828 762 l 817 752 l 813 759 l 814 770 q 819 798 819 780 "},"&":{"x_min":39,"x_max":759.640625,"ha":761,"o":"m 290 577 q 327 667 290 634 q 417 701 364 701 q 510 662 472 701 q 551 570 548 626 q 520 487 551 523 q 377 401 482 441 l 408 344 l 444 273 q 494 156 483 194 l 534 294 q 595 374 560 350 q 672 400 629 400 q 734 383 709 400 q 759 335 759 366 q 747 305 759 318 q 709 289 736 296 q 671 299 687 289 q 656 334 659 308 l 658 349 l 663 370 l 656 376 q 555 288 603 376 l 532 213 l 508 124 q 545 4 529 74 q 562 -117 562 -66 q 471 -320 562 -245 q 257 -380 392 -377 q 92 -341 148 -380 q 39 -243 39 -303 q 84 -139 39 -184 q 209 -90 124 -103 l 219 -90 q 234 -97 229 -90 l 226 -101 l 212 -106 q 98 -155 140 -115 q 58 -241 60 -193 q 103 -321 58 -284 q 240 -355 149 -355 q 434 -295 360 -355 q 518 -93 518 -228 l 514 -17 l 492 92 q 418 16 467 47 q 304 -13 370 -13 q 138 42 200 -13 q 86 164 88 89 q 144 303 86 239 q 341 415 201 364 q 304 503 318 457 q 290 577 292 545 m 528 571 q 496 646 528 614 q 418 680 466 680 q 350 657 380 680 q 314 577 316 631 q 368 421 314 515 q 474 473 435 442 q 528 571 528 514 m 165 174 q 195 72 165 116 q 311 15 233 17 q 414 42 372 15 q 480 119 456 71 q 461 173 473 150 q 425 256 445 216 q 354 393 389 339 q 219 312 266 364 q 165 174 165 255 "},"I":{"x_min":31.859375,"x_max":846.796875,"ha":655,"o":"m 110 209 q 157 190 136 209 q 178 134 178 171 q 155 75 178 100 q 86 51 134 53 q 205 3 122 5 q 342 77 276 3 q 448 297 408 152 q 349 354 385 318 q 301 473 303 400 q 484 753 301 630 q 599 812 541 789 q 718 847 656 835 q 846 861 780 859 q 791 812 822 851 q 699 647 743 750 q 596 304 655 535 q 691 347 646 304 q 729 454 727 387 l 725 493 l 724 504 l 725 511 l 728 514 l 732 509 l 741 483 l 745 452 q 714 347 745 390 q 592 289 673 289 q 435 48 554 127 q 328 1 388 20 q 203 -15 272 -15 q 92 15 142 -15 q 31 119 33 52 q 55 186 31 162 q 110 209 76 207 m 358 451 q 391 352 358 396 q 452 314 415 323 q 614 691 497 528 q 792 846 706 817 q 453 675 574 800 q 358 451 358 575 "},"G":{"x_min":113,"x_max":976,"ha":915,"o":"m 570 188 q 772 287 663 188 q 891 437 822 334 l 901 443 q 912 434 906 443 l 909 429 q 836 294 887 399 q 740 1 787 179 q 848 84 792 18 l 915 179 l 925 183 l 930 178 l 926 167 l 834 44 q 738 -16 791 1 q 690 -155 713 -115 q 587 -294 648 -247 q 438 -376 514 -349 q 369 -393 399 -388 q 298 -399 351 -395 q 190 -372 229 -399 q 151 -293 154 -348 q 247 -155 151 -222 q 586 -31 347 -87 q 602 44 592 9 q 626 111 611 83 q 693 203 651 169 q 636 176 667 188 q 569 170 618 172 q 414 213 473 170 q 338 330 355 257 q 172 405 235 341 q 113 576 115 471 q 194 783 113 701 q 437 900 277 863 l 436 895 q 251 787 320 854 q 175 572 177 704 q 205 430 175 483 q 334 351 245 364 l 332 396 q 475 723 332 570 q 863 890 632 890 q 946 859 918 890 q 976 777 976 830 q 915 602 976 691 q 718 418 845 499 l 654 386 q 616 372 641 381 q 568 354 579 359 q 450 332 534 346 q 570 188 450 190 m 198 -291 q 312 -375 198 -375 q 357 -370 340 -375 l 384 -363 l 412 -354 q 536 -220 490 -323 q 580 -51 545 -194 q 287 -159 379 -101 q 198 -291 200 -217 m 957 777 q 934 844 957 818 q 868 872 915 869 q 581 675 729 872 q 450 350 452 493 q 481 352 469 350 q 511 357 491 354 q 540 364 530 360 q 572 374 555 367 q 707 432 642 394 q 815 512 772 471 q 895 608 858 552 q 957 777 954 697 "},"`":{"x_min":43,"x_max":182,"ha":239,"o":"m 182 447 l 174 440 l 165 443 l 62 498 q 43 529 49 506 q 51 554 43 545 q 80 567 58 561 q 111 550 93 567 l 177 457 l 182 447 "},"·":{"x_min":158,"x_max":265,"ha":376,"o":"m 265 302 q 248 261 265 281 q 206 241 235 243 q 170 254 189 241 q 158 290 158 266 q 174 333 158 314 q 216 351 190 349 q 249 338 237 351 q 265 302 260 327 "},"¿":{"x_min":-11,"x_max":398,"ha":314,"o":"m 145 395 l 271 404 l 101 78 q 92 41 92 59 q 99 15 92 26 q 123 5 107 7 q 231 79 169 5 q 303 182 262 114 l 313 188 l 318 192 l 324 186 l 318 173 l 246 75 q 120 -8 176 -8 q 44 19 70 -8 q 19 91 19 49 q 33 151 19 125 l 125 337 l 6 176 l 0 169 l -11 174 l -2 191 l 70 294 l 145 395 m 106 556 q 123 598 106 577 q 169 618 138 616 q 205 602 189 618 q 219 567 217 593 q 202 526 219 546 q 158 506 188 508 q 119 520 133 506 q 106 556 106 536 m 285 556 q 302 598 285 577 q 347 618 317 616 q 384 602 368 618 q 398 567 395 593 q 381 526 398 547 q 336 506 367 508 q 298 520 311 506 q 285 556 285 535 "},"ý":{"x_min":-8.46875,"x_max":438,"ha":457,"o":"m 206 380 q 223 370 215 380 q 235 341 231 362 q 223 311 235 327 q 194 301 219 308 q 152 341 152 301 q 174 387 152 371 q 277 413 206 413 q 389 368 341 413 q 438 258 435 325 q 363 80 438 162 q 121 -13 274 -10 q 22 13 52 -13 q -8 83 -6 37 q 12 138 -8 113 q 35 155 23 149 q 68 161 46 159 l 95 156 q 105 144 103 151 l 101 138 l 97 135 l 86 138 l 66 141 q 29 126 44 141 q 13 87 15 114 q 37 28 13 50 q 120 8 60 8 q 277 119 211 8 q 336 317 336 217 q 320 372 336 353 q 276 393 308 393 q 234 390 240 393 q 206 380 222 390 m 163 266 q 205 234 193 266 q 254 204 218 206 q 281 209 269 204 l 304 223 l 313 226 l 316 223 l 311 216 l 266 188 l 239 179 l 218 177 q 176 198 189 177 q 154 227 168 219 l 126 237 l 102 231 l 77 219 l 70 216 l 66 219 l 73 229 l 112 252 q 163 266 131 259 "},"º":{"x_min":-7,"x_max":402.765625,"ha":397,"o":"m 390 344 q 377 312 390 333 q 340 298 366 300 q 315 305 325 298 q 297 340 299 315 q 345 383 297 381 q 320 393 342 386 q 174 275 253 393 q 97 65 99 160 q 145 6 97 8 q 284 60 208 6 q 386 179 343 106 l 397 186 l 402 179 l 398 165 q 286 40 354 90 q 142 -8 221 -5 q 33 28 73 -8 q -7 135 -4 62 q 74 317 -7 231 q 295 410 163 407 q 390 344 388 410 m 235 251 q 276 219 256 251 q 315 187 288 189 q 341 194 329 187 l 362 206 l 370 209 l 373 206 l 369 200 l 329 172 l 308 163 l 284 161 q 244 190 267 161 q 199 220 227 218 l 177 216 l 153 204 l 145 201 l 150 212 l 173 227 l 198 240 q 215 245 202 241 q 235 251 228 248 "},"я":{"x_min":-47,"x_max":554,"ha":540,"o":"m 40 4 q 105 30 72 4 q 152 97 120 45 q 231 197 189 163 q 298 231 241 204 q 230 249 264 231 q 184 318 184 272 q 218 397 184 363 q 320 436 255 434 q 384 424 362 436 q 427 392 408 417 l 440 418 l 547 418 l 395 120 l 376 74 q 367 34 367 48 q 380 16 367 23 q 459 80 405 16 q 537 187 489 117 l 547 194 l 554 184 l 551 176 q 476 71 513 117 q 361 -8 409 -8 q 304 8 333 -8 q 283 61 283 25 q 302 134 283 88 l 418 374 q 359 408 401 408 q 297 374 330 408 q 266 304 269 342 q 277 268 266 286 q 311 239 290 251 q 336 252 318 246 q 348 240 348 252 l 344 231 l 334 226 l 330 225 q 231 81 305 212 q 158 14 206 36 q 59 -8 113 -5 q -23 7 0 -8 q -47 55 -44 21 q -30 90 -47 71 q 8 106 -15 106 q 45 92 29 106 q 62 52 62 80 q 57 25 62 35 q 33 5 53 17 l 40 4 "},";":{"x_min":-31,"x_max":194,"ha":199,"o":"m 194 318 q 180 279 194 296 q 140 261 168 263 q 107 273 122 261 q 95 308 99 286 q 109 345 95 329 q 149 363 123 361 q 180 349 166 363 q 194 318 191 338 m 149 52 q 141 13 149 36 q 74 -66 128 -12 q -11 -134 30 -106 l -31 -145 l -21 -134 l 44 -79 q 80 -17 77 -45 l 75 -1 q 60 47 62 17 q 71 86 60 73 q 106 101 80 99 q 134 88 122 101 q 149 52 143 78 "},"Г":{"x_min":26,"x_max":1377.125,"ha":856,"o":"m 878 825 l 843 833 l 799 849 q 628 879 685 877 q 321 762 448 879 q 217 543 217 662 q 243 461 217 493 q 321 431 267 433 q 480 546 417 431 q 533 752 531 640 l 535 776 l 537 773 q 564 656 562 726 q 511 492 564 557 q 322 414 448 414 q 229 448 263 414 q 199 543 201 485 q 315 790 199 672 q 653 920 449 920 q 786 911 699 920 l 835 907 l 917 896 l 1081 882 l 1146 881 l 1210 885 q 1239 890 1230 887 q 1270 900 1260 896 q 1377 954 1317 914 q 1347 908 1368 934 q 1286 848 1320 874 q 1251 826 1275 838 l 1207 808 l 1156 798 l 1093 794 l 996 798 q 878 825 951 802 m 26 122 q 92 228 26 184 q 258 271 158 268 l 276 266 l 279 263 l 271 261 q 116 223 185 261 q 48 122 50 188 q 88 44 48 77 q 201 13 126 15 q 382 79 297 13 q 567 377 473 154 l 641 561 q 679 637 657 599 q 719 694 698 671 q 793 763 759 740 q 869 801 827 787 q 776 630 821 758 l 698 376 q 544 105 640 193 q 211 -8 424 -5 q 73 29 123 -8 q 26 122 28 66 "},"6":{"x_min":15,"x_max":471.34375,"ha":485,"o":"m 431 186 q 371 54 431 116 q 293 5 341 26 q 190 -11 248 -11 q 63 48 115 -11 q 15 200 17 105 q 115 446 15 323 q 343 570 214 567 q 433 544 396 570 q 471 483 471 522 q 428 440 471 442 q 385 482 387 440 q 397 514 385 497 q 428 525 403 518 q 397 543 424 532 q 384 547 392 545 q 372 550 376 548 q 359 551 368 550 q 344 553 349 552 q 194 418 256 553 q 150 297 177 381 q 202 326 170 314 q 276 339 236 339 q 385 295 339 339 q 431 186 431 254 m 335 241 q 271 318 335 315 q 194 302 226 318 q 140 259 162 289 l 123 190 q 115 114 115 153 q 192 7 115 9 q 297 91 254 7 q 335 241 335 165 "},"Ь":{"x_min":87.09375,"x_max":761,"ha":792,"o":"m 463 931 l 593 944 l 401 553 q 466 576 420 565 l 508 582 l 551 586 q 701 523 641 586 q 761 359 758 463 q 659 89 761 197 q 412 -17 560 -14 q 250 33 317 -17 q 180 205 180 92 q 191 304 180 254 q 228 426 201 352 q 238 456 233 445 q 248 479 243 470 l 298 594 l 227 520 l 174 473 l 106 422 l 96 418 l 92 417 l 87 419 l 89 424 l 101 435 q 242 565 165 481 l 335 673 l 463 931 m 276 173 q 312 54 276 102 q 398 7 346 9 q 599 173 514 7 q 647 305 625 234 q 664 433 664 369 q 633 529 664 496 q 543 561 604 558 q 462 551 499 561 q 388 524 426 543 q 317 362 355 463 q 276 173 276 246 "},"n":{"x_min":-11,"x_max":573,"ha":564,"o":"m 130 0 l 27 0 l 192 308 l 205 333 l 209 351 q 195 362 209 356 q 83 265 161 362 l 2 158 l -3 152 l -11 159 l -6 170 l 32 226 l 75 283 q 201 382 151 379 q 256 358 237 382 q 276 304 274 337 l 273 284 q 337 350 311 331 q 403 380 372 380 q 468 302 466 380 q 421 174 468 240 l 374 98 q 356 43 363 74 q 393 12 356 14 q 478 63 431 12 q 554 166 510 97 q 568 176 559 174 l 573 172 l 565 154 q 482 44 517 84 q 375 -8 434 -5 q 315 7 334 -8 q 289 76 289 26 q 302 140 289 101 q 316 176 314 171 q 338 214 323 191 l 387 291 q 412 343 412 329 q 395 361 412 355 q 316 311 366 361 q 244 220 267 262 l 130 0 "},"¤":{"x_min":0.78125,"x_max":741.65625,"ha":833,"o":"m 557 144 q 469 93 526 119 q 368 75 416 77 q 182 142 270 75 l 41 0 l 0 40 l 140 180 q 89 268 112 214 q 73 371 73 315 q 89 471 73 421 q 140 559 106 521 l 0 700 l 41 740 l 180 599 q 368 667 261 667 q 469 648 424 667 q 559 597 518 631 l 698 737 l 738 697 l 599 556 q 664 371 661 479 q 597 185 664 272 l 741 40 l 701 0 l 557 144 m 368 611 q 197 540 268 611 q 128 371 130 473 q 198 200 128 270 q 368 131 268 133 q 538 200 468 131 q 609 371 609 271 q 538 538 609 466 q 368 611 470 608 "},"p":{"x_min":-207,"x_max":516,"ha":504,"o":"m -112 -385 l -207 -385 l 221 451 l 88 276 l 3 159 l -4 151 l -11 151 l -14 157 l -8 169 l 141 376 l 207 463 l 256 522 l 307 620 l 407 638 l 253 324 l 273 344 l 295 361 q 303 364 296 361 q 321 372 310 367 q 359 379 333 376 q 429 349 400 379 q 459 279 459 322 q 436 194 459 234 q 364 123 415 155 q 291 35 293 80 q 324 6 291 6 q 411 56 361 6 q 500 176 441 88 l 510 182 l 516 174 l 511 162 q 418 43 457 86 q 316 -8 369 -5 q 221 65 223 -8 q 241 126 221 96 q 306 190 263 157 q 373 258 353 224 q 393 319 393 291 q 357 361 393 361 q 279 323 328 361 q 191 200 233 281 l -112 -385 "},"‡":{"x_min":218,"x_max":437,"ha":340,"o":"m 399 573 l 405 569 l 396 559 l 351 563 l 331 562 l 278 443 l 262 401 l 247 351 q 231 336 243 342 q 218 354 220 336 q 249 447 218 384 l 308 561 l 286 559 l 244 550 l 235 548 l 229 551 l 226 554 l 240 563 l 281 575 l 315 579 l 338 626 l 309 620 l 276 613 l 266 612 l 259 615 l 256 618 l 272 629 l 309 637 l 346 642 l 364 673 l 381 698 l 391 705 l 395 706 l 402 701 l 389 680 l 370 645 l 401 644 l 431 640 l 437 633 l 431 627 l 427 624 l 389 627 l 360 626 l 340 581 q 374 579 367 581 l 399 573 "},"Ю":{"x_min":43.0625,"x_max":1512.40625,"ha":1429,"o":"m 562 603 q 630 713 587 655 q 658 747 641 729 q 692 781 672 764 l 612 747 q 518 727 562 729 q 466 737 485 727 q 448 773 450 747 l 457 813 l 465 847 q 444 860 465 860 q 359 814 418 860 q 284 732 311 775 l 270 713 l 266 710 q 274 734 266 719 q 381 852 317 810 q 491 896 445 893 q 526 882 512 896 q 540 825 538 870 q 547 772 540 785 q 577 758 553 760 q 700 805 612 758 q 827 909 785 852 q 845 919 835 916 q 855 911 853 915 l 850 896 q 784 789 810 836 q 746 697 775 768 l 683 523 l 768 544 l 855 562 q 957 711 896 640 q 1130 854 1037 801 q 1252 901 1186 881 q 1381 918 1314 918 q 1484 880 1445 918 q 1512 799 1509 853 q 1509 770 1512 773 q 1502 755 1509 762 l 1499 752 l 1494 759 l 1495 770 l 1501 798 q 1476 865 1501 835 q 1386 901 1446 898 q 1170 817 1271 901 q 965 500 1062 722 l 922 397 l 887 298 q 853 118 855 183 q 873 33 853 66 q 948 3 894 5 q 1165 128 1059 3 q 1331 443 1272 254 l 1364 567 q 1383 698 1381 655 q 1369 766 1383 740 q 1324 793 1356 790 q 1105 579 1213 793 q 1034 383 1059 479 q 1010 198 1013 295 l 1010 171 l 1012 155 l 1010 145 l 1006 148 l 999 166 l 998 207 q 1099 606 998 401 q 1326 810 1202 810 q 1397 776 1371 810 q 1413 738 1406 760 l 1419 687 q 1403 566 1419 623 l 1370 440 q 1303 270 1345 348 q 1201 128 1261 192 q 952 -14 1078 -14 q 798 47 849 -14 q 749 214 749 109 q 766 347 749 279 q 822 494 784 420 l 782 486 l 739 475 l 657 451 l 623 368 l 576 274 q 425 79 511 155 q 191 -8 321 -8 q 80 24 118 -8 q 43 106 43 57 q 62 177 43 146 q 122 226 82 206 l 134 230 l 140 227 l 143 224 l 131 214 q 83 171 108 202 q 78 160 81 167 q 72 146 75 153 q 65 112 67 134 q 95 37 65 67 q 191 8 127 8 q 376 149 288 8 q 438 282 409 205 l 562 603 "},"S":{"x_min":23.734375,"x_max":1035,"ha":812,"o":"m 530 904 l 551 902 l 553 900 l 548 897 l 530 893 q 398 865 456 893 q 301 789 342 838 q 223 548 225 701 q 295 378 223 441 q 460 329 357 329 l 495 330 l 540 517 q 609 694 570 629 q 737 839 668 795 q 816 873 774 861 q 911 885 851 882 q 1000 853 965 885 q 1035 769 1032 825 q 913 527 1035 656 q 634 340 792 398 q 497 84 580 170 q 206 -15 393 -15 q 74 23 133 -15 q 23 118 25 59 q 44 176 23 151 q 98 202 64 200 q 176 122 174 202 q 154 67 176 95 q 94 41 134 43 l 140 16 q 195 8 166 8 q 395 124 308 8 q 488 309 449 198 l 455 308 q 248 370 336 308 q 157 563 157 441 q 258 802 157 705 q 530 904 365 902 m 981 767 q 911 861 981 858 q 839 843 873 861 q 775 792 807 827 q 695 591 729 738 q 640 360 649 381 q 882 529 791 428 q 981 767 978 638 "},"/":{"x_min":4,"x_max":418,"ha":286,"o":"m 11 -97 l 4 -84 l 8 -61 q 19 -20 13 -35 q 35 22 26 -2 q 52 66 43 44 q 72 111 61 89 q 144 269 116 216 l 222 413 q 273 512 245 456 q 320 609 284 538 q 395 805 365 707 q 410 826 402 826 l 418 812 l 416 798 q 337 592 386 704 l 241 404 q 109 135 163 259 q 27 -73 72 49 q 11 -97 24 -90 "},"y":{"x_min":-96,"x_max":602.828125,"ha":593,"o":"m 390 204 l 473 367 l 577 379 l 376 -15 q 491 50 448 11 q 536 97 505 62 l 587 172 l 597 179 l 602 173 l 598 159 q 509 45 552 84 q 473 18 498 35 q 447 1 450 3 q 369 -33 418 -14 l 245 -266 q 143 -366 211 -332 q 6 -401 77 -398 q -63 -371 -30 -401 q -96 -301 -93 -345 q -9 -158 -96 -223 q 103 -95 36 -123 q 259 -45 170 -67 l 353 133 q 264 32 300 63 q 173 -11 215 -8 q 106 8 130 -11 q 81 71 81 26 q 95 153 81 109 q 131 229 108 196 l 172 295 l 184 320 l 191 338 q 174 351 191 351 q 66 247 145 351 l -3 151 l -11 145 l -18 154 l -16 159 l 77 291 q 178 367 136 365 q 241 348 218 367 q 266 284 266 329 q 259 237 266 263 q 225 155 253 208 l 182 77 q 172 54 176 62 q 170 45 171 50 q 166 30 169 41 q 187 11 166 17 q 268 63 213 11 q 390 204 324 118 m -55 -314 q 6 -384 -55 -381 q 75 -354 33 -384 q 162 -236 113 -323 l 251 -65 q 25 -173 108 -106 q -55 -314 -52 -239 "},"g":{"x_min":-175,"x_max":492.90625,"ha":479,"o":"m 205 72 q 155 22 178 41 q 73 -7 116 -7 q 4 23 32 -7 q -16 102 -16 52 q 62 284 -16 192 q 156 355 102 329 q 273 382 208 379 q 323 368 308 382 q 341 334 336 356 l 359 367 l 465 379 l 265 -14 q 369 40 323 0 q 477 177 400 66 l 484 183 l 491 179 l 492 174 l 487 161 l 405 51 q 256 -33 343 -14 l 206 -134 l 147 -249 q 48 -352 116 -309 q -84 -394 -18 -394 q -151 -367 -129 -394 q -175 -303 -172 -344 q -76 -141 -175 -211 q 145 -45 7 -80 l 205 72 m 120 187 l 78 98 q 61 31 69 68 q 83 6 61 6 q 156 43 112 6 q 239 140 201 79 l 294 241 l 329 311 q 320 345 329 327 q 279 365 309 363 q 120 187 220 365 m -136 -320 q -84 -376 -136 -374 q -22 -349 -52 -376 q 61 -216 7 -325 l 138 -63 q -61 -170 11 -102 q -136 -320 -136 -241 "},"²":{"x_min":34.609375,"x_max":911.59375,"ha":706,"o":"m 34 127 q 59 197 34 167 q 122 225 82 222 q 172 202 152 225 q 193 143 193 182 q 167 82 193 110 q 92 55 142 57 q 148 16 112 38 l 180 6 l 216 2 q 368 87 295 2 q 481 319 438 171 q 379 379 426 336 q 324 509 326 433 q 542 823 324 696 q 911 926 719 924 q 853 872 881 909 q 754 695 814 820 q 641 326 691 545 q 747 376 708 326 q 785 490 785 426 l 780 530 l 779 543 l 782 549 l 785 552 l 789 547 l 796 530 l 800 484 q 767 373 800 426 q 637 311 723 311 q 469 52 598 139 q 236 -17 370 -14 q 100 17 157 -17 q 34 127 36 56 m 853 909 q 514 750 645 868 q 385 484 385 633 q 418 384 385 426 q 487 337 442 351 q 529 489 505 418 q 587 623 553 559 q 661 742 620 687 q 853 909 760 877 "},"–":{"x_min":36,"x_max":425,"ha":455,"o":"m 180 286 q 247 277 206 286 l 309 263 l 357 258 q 415 272 387 258 l 420 273 l 425 270 l 420 262 q 363 236 406 251 q 286 222 325 224 l 250 223 q 212 233 236 223 l 155 249 q 101 258 126 258 q 48 247 70 258 l 40 244 l 36 247 l 45 258 l 101 276 l 140 283 l 180 286 "},"ë":{"x_min":-43,"x_max":548,"ha":535,"o":"m 235 173 q 313 284 268 217 l 345 338 l 380 404 l 499 414 l 427 205 q 392 68 394 96 q 403 44 392 49 q 530 186 438 44 l 535 191 l 548 184 l 543 177 q 446 46 490 92 q 356 0 401 2 q 313 16 329 0 q 299 78 301 32 q 321 210 299 130 l 346 286 q 359 320 350 297 q 378 359 368 343 q 245 154 342 287 l 181 73 q 37 -7 109 -4 q -19 8 3 -7 q -43 54 -40 21 q -26 92 -43 74 q 13 111 -12 109 q 66 55 64 111 q 60 27 66 38 q 37 8 56 20 q 112 39 72 8 q 235 173 151 66 "},"ƒ":{"x_min":20,"x_max":443.03125,"ha":361,"o":"m 370 591 q 401 609 382 607 q 430 597 417 609 q 443 567 443 584 q 423 537 443 547 l 308 476 l 295 472 l 291 476 l 297 490 l 370 591 m 68 312 l 62 316 l 64 320 l 72 333 q 137 378 97 357 q 225 401 177 398 q 319 374 286 401 q 351 304 349 351 q 312 209 351 250 q 223 161 288 186 q 110 113 134 132 q 85 57 85 96 q 140 8 85 8 q 280 88 200 8 l 356 187 l 370 198 l 374 192 l 367 175 q 293 73 335 122 q 135 -8 218 -5 q 56 15 87 -8 q 20 90 22 41 q 58 193 20 148 q 144 250 82 218 l 230 286 q 273 324 271 302 q 258 361 273 349 q 216 372 247 370 q 148 357 180 372 q 83 319 121 348 l 73 314 l 68 312 "},"б":{"x_min":-15,"x_max":1003,"ha":515,"o":"m 90 -7 q 12 26 47 -7 q -15 116 -12 57 q 71 315 -15 225 q 294 410 161 407 q 344 393 324 410 q 365 354 365 376 l 469 551 l 617 838 q 672 897 638 880 q 757 915 705 913 l 796 915 l 828 909 l 940 897 q 998 911 979 897 l 1003 912 l 998 901 q 946 865 980 884 l 918 855 l 897 854 q 832 869 869 854 l 805 878 l 778 885 q 747 873 760 885 q 721 836 740 870 q 693 779 710 809 q 648 694 668 729 l 535 476 l 419 240 q 285 55 365 119 q 90 -7 206 -7 m 352 343 q 342 376 352 361 q 308 393 331 393 q 240 366 272 393 q 146 233 206 336 l 85 101 q 64 31 64 51 q 87 6 64 6 q 211 84 146 6 l 242 127 l 265 165 l 308 243 l 350 329 l 352 343 "},"J":{"x_min":-185,"x_max":727,"ha":519,"o":"m 666 842 q 314 682 449 813 q 191 430 193 566 q 217 345 191 376 q 284 312 238 324 l 292 305 l 284 297 q 187 333 223 303 q 136 457 138 374 q 292 731 136 628 q 704 859 428 822 l 727 861 q 575 698 640 815 q 487 439 537 626 q 412 160 428 211 l 355 -3 q 439 -25 409 -3 q 471 -86 469 -47 q 452 -140 471 -112 q 395 -190 432 -168 l 385 -192 l 378 -187 l 389 -177 q 434 -136 408 -168 l 445 -115 q 452 -87 447 -111 q 425 -37 452 -57 q 349 -18 402 -20 q 187 -252 296 -146 q 62 -341 130 -307 q 0 -363 35 -353 q -63 -372 -33 -372 q -148 -338 -111 -372 q -185 -251 -182 -308 q -97 -83 -185 -156 q 206 -1 4 -3 l 216 -3 l 305 262 q 398 501 347 392 q 499 683 447 611 q 578 775 535 732 q 666 842 620 817 m -124 -250 q -54 -349 -124 -349 q 106 -237 25 -349 q 212 -17 146 -178 q -40 -75 44 -17 q -124 -250 -124 -133 "},"Ã":{"x_min":26,"x_max":1377.125,"ha":856,"o":"m 878 825 l 843 833 l 799 849 q 628 879 685 877 q 321 762 448 879 q 217 543 217 662 q 243 461 217 493 q 321 431 267 433 q 480 546 417 431 q 533 752 531 640 l 535 776 l 537 773 q 564 656 562 726 q 511 492 564 557 q 322 414 448 414 q 229 448 263 414 q 199 543 201 485 q 315 790 199 672 q 653 920 449 920 q 786 911 699 920 l 835 907 l 917 896 l 1081 882 l 1146 881 l 1210 885 q 1239 890 1230 887 q 1270 900 1260 896 q 1377 954 1317 914 q 1347 908 1368 934 q 1286 848 1320 874 q 1251 826 1275 838 l 1207 808 l 1156 798 l 1093 794 l 996 798 q 878 825 951 802 m 26 122 q 92 228 26 184 q 258 271 158 268 l 276 266 l 279 263 l 271 261 q 116 223 185 261 q 48 122 50 188 q 88 44 48 77 q 201 13 126 15 q 382 79 297 13 q 567 377 473 154 l 641 561 q 679 637 657 599 q 719 694 698 671 q 793 763 759 740 q 869 801 827 787 q 776 630 821 758 l 698 376 q 544 105 640 193 q 211 -8 424 -5 q 73 29 123 -8 q 26 122 28 66 "},"у":{"x_min":-101,"x_max":649.53125,"ha":637,"o":"m 180 31 q 201 6 180 6 q 341 122 238 6 l 419 219 l 509 395 l 620 408 l 403 -17 q 541 73 485 12 q 631 184 577 108 l 642 192 l 649 186 l 642 172 q 550 59 596 101 q 395 -39 493 4 l 279 -269 q 170 -381 246 -339 q 16 -423 97 -423 q -67 -394 -32 -423 q -101 -315 -101 -365 q 29 -145 -101 -228 q 277 -51 124 -88 l 380 147 q 291 41 330 76 q 186 -13 235 -13 q 112 8 145 -13 q 87 76 87 29 q 91 123 87 98 q 106 172 96 150 q 152 265 123 219 l 187 325 q 205 365 203 349 q 187 378 205 378 q 69 261 161 378 l -2 162 l -12 158 l -18 165 l -16 172 l 123 358 q 157 382 135 370 q 202 396 172 389 q 260 375 232 396 q 290 312 290 356 q 240 163 290 264 l 199 94 l 186 62 l 180 31 m 272 -70 q 24 -192 119 -112 q -51 -329 -51 -259 q -31 -383 -51 -363 q 15 -404 -14 -404 q 93 -372 57 -404 q 174 -255 124 -349 l 272 -70 "},"©":{"x_min":66,"x_max":557,"ha":593,"o":"m 557 408 q 476 219 557 299 q 277 139 397 141 q 122 193 182 139 q 66 335 68 246 q 146 527 66 444 q 344 614 226 611 q 498 560 440 614 q 557 408 557 507 m 89 339 q 139 210 89 260 q 281 162 187 164 q 460 235 384 162 q 535 405 535 308 q 483 544 535 492 q 337 594 433 594 q 162 513 237 594 q 89 339 91 436 m 320 465 q 241 434 270 465 q 229 419 232 425 q 219 398 226 415 q 214 362 216 388 q 298 278 214 280 q 357 293 334 278 l 397 323 l 390 294 l 342 268 q 297 261 329 263 q 193 361 193 261 q 229 448 193 412 q 328 485 262 482 q 386 473 369 485 q 414 449 398 469 l 408 424 q 379 452 401 439 q 320 465 360 465 "},"D":{"x_min":133.203125,"x_max":998.359375,"ha":1014,"o":"m 133 54 q 159 93 133 79 q 229 108 183 106 q 424 68 327 108 q 533 227 484 127 l 611 418 q 687 599 653 539 q 790 736 732 689 l 857 788 q 598 877 766 874 q 352 760 452 877 q 265 531 265 656 q 298 416 265 466 q 400 374 331 376 q 549 457 491 374 q 601 623 598 532 l 599 663 q 590 696 599 677 q 556 746 581 726 l 551 753 l 555 755 l 561 754 q 602 699 588 737 q 618 618 616 665 q 562 444 618 520 q 400 358 500 360 q 251 412 305 358 q 200 546 202 465 q 302 776 200 673 q 597 893 419 893 q 770 866 697 893 q 880 806 825 847 l 941 840 l 970 853 l 998 857 l 968 842 l 936 818 l 901 785 q 997 494 997 677 q 888 128 997 265 q 609 -8 781 -5 q 440 25 519 -8 q 406 12 429 20 q 393 8 402 10 q 378 4 384 6 q 361 0 372 2 l 321 -9 l 276 -12 l 216 -8 q 170 6 188 -2 q 133 54 133 22 m 226 92 q 152 55 154 92 q 186 20 152 38 q 256 7 219 7 q 347 21 308 7 l 396 45 l 351 64 l 304 81 q 263 89 288 83 q 245 90 258 90 q 226 92 233 91 m 633 16 q 869 144 762 16 q 948 298 921 213 q 975 484 972 378 q 884 764 975 655 q 813 631 848 711 l 741 386 q 672 208 712 272 q 537 75 621 122 l 484 46 l 554 25 l 593 18 l 633 16 "},"ÿ":{"x_min":-47,"x_max":554,"ha":540,"o":"m 40 4 q 105 30 72 4 q 152 97 120 45 q 231 197 189 163 q 298 231 241 204 q 230 249 264 231 q 184 318 184 272 q 218 397 184 363 q 320 436 255 434 q 384 424 362 436 q 427 392 408 417 l 440 418 l 547 418 l 395 120 l 376 74 q 367 34 367 48 q 380 16 367 23 q 459 80 405 16 q 537 187 489 117 l 547 194 l 554 184 l 551 176 q 476 71 513 117 q 361 -8 409 -8 q 304 8 333 -8 q 283 61 283 25 q 302 134 283 88 l 418 374 q 359 408 401 408 q 297 374 330 408 q 266 304 269 342 q 277 268 266 286 q 311 239 290 251 q 336 252 318 246 q 348 240 348 252 l 344 231 l 334 226 l 330 225 q 231 81 305 212 q 158 14 206 36 q 59 -8 113 -5 q -23 7 0 -8 q -47 55 -44 21 q -30 90 -47 71 q 8 106 -15 106 q 45 92 29 106 q 62 52 62 80 q 57 25 62 35 q 33 5 53 17 l 40 4 "},"ц":{"x_min":-11,"x_max":594,"ha":594,"o":"m 412 -7 q 341 13 372 -7 q 311 76 313 33 l 312 112 q 323 155 312 129 q 334 190 329 179 q 355 236 340 205 l 297 137 q 204 28 249 65 q 131 -8 164 -5 q 65 21 90 -8 q 41 96 43 48 l 44 132 q 61 182 48 153 l 134 344 l 5 173 l 0 166 l -11 174 l -5 186 l 75 299 l 145 395 l 286 404 l 147 130 l 131 86 q 123 43 123 61 q 145 12 123 14 q 209 51 170 12 q 283 145 235 77 l 329 222 l 388 335 l 415 395 l 553 404 l 412 123 l 392 80 q 384 40 384 57 q 417 8 384 10 q 524 77 475 8 l 537 91 l 546 86 l 538 37 l 528 -8 l 558 7 q 588 26 576 14 l 594 22 l 591 16 q 560 -6 587 9 l 524 -30 l 516 -80 q 498 -139 512 -110 q 446 -184 481 -184 q 410 -144 413 -184 q 419 -108 410 -129 q 446 -66 429 -87 q 510 -17 464 -48 l 530 56 q 473 6 502 20 l 445 -2 q 412 -7 435 -7 m 507 -37 l 480 -56 l 458 -77 l 434 -109 q 427 -143 432 -113 q 448 -169 427 -163 q 481 -133 465 -169 l 496 -87 l 507 -37 "},"Л":{"x_min":23,"x_max":1187.828125,"ha":1024,"o":"m 719 55 q 765 237 719 116 q 869 459 810 354 l 950 602 l 1025 730 q 1143 911 1102 860 l 1053 819 l 958 719 q 810 541 919 676 l 635 321 q 474 131 532 194 q 358 32 418 74 q 210 -17 283 -17 q 70 19 118 -17 q 23 111 25 54 q 92 221 23 178 q 240 263 163 263 l 254 263 l 263 260 l 266 257 q 110 216 178 257 q 42 108 44 177 q 83 31 42 71 q 209 0 123 2 q 358 51 280 0 q 382 69 367 58 q 412 94 391 75 q 440 120 426 108 q 475 158 453 133 q 637 349 532 219 l 802 556 q 889 662 858 628 q 951 732 917 696 l 1096 887 q 1182 958 1162 958 l 1187 950 q 1151 834 1187 923 l 1068 644 l 983 447 l 900 226 q 855 61 857 105 q 868 39 855 45 l 873 40 q 955 98 911 51 l 1021 195 l 1032 202 l 1039 192 l 1036 183 q 959 73 998 117 q 876 2 914 19 q 800 -14 841 -14 q 730 12 755 -14 q 719 55 721 23 "},"$":{"x_min":30.515625,"x_max":576.03125,"ha":579,"o":"m 476 176 q 391 30 476 84 q 229 -14 322 -11 q 169 -5 197 -14 l 123 -112 l 111 -123 q 102 -115 102 -123 l 105 -104 l 149 -1 q 61 54 95 15 q 30 137 32 95 q 48 190 30 170 q 94 209 65 207 q 130 191 112 209 q 147 152 147 174 q 129 109 147 127 q 83 92 112 92 l 62 92 q 156 13 81 38 l 284 312 l 231 375 q 204 465 206 414 q 254 575 204 524 q 421 627 310 625 l 458 711 q 468 718 459 714 l 474 713 l 477 709 l 476 705 l 441 623 q 489 613 466 623 q 535 588 511 605 q 576 524 574 564 q 559 483 576 504 q 517 465 544 467 q 478 479 492 465 q 460 520 466 493 q 476 556 460 540 q 514 577 493 574 l 523 576 l 498 593 q 435 611 483 600 l 342 395 q 395 347 371 370 q 425 313 415 327 q 476 176 476 249 m 217 2 q 326 33 281 2 q 383 135 380 69 q 355 231 383 192 q 299 295 337 258 l 176 8 l 194 4 l 217 2 m 277 515 q 294 451 277 487 l 326 410 l 415 612 q 321 593 354 612 q 277 515 279 569 "},"w":{"x_min":-11.203125,"x_max":714.265625,"ha":699,"o":"m 289 71 l 290 107 q 300 144 290 121 l 321 202 l 276 126 l 237 71 q 122 -8 175 -8 q 39 87 39 -8 q 65 193 39 123 l 90 258 q 95 270 92 263 q 102 286 98 276 q 122 320 111 304 l 65 245 l 5 161 l -2 155 l -11 162 l -5 173 l 134 367 l 266 376 l 137 120 l 122 81 l 115 40 q 136 11 115 11 q 230 90 167 11 q 358 312 290 166 l 382 367 l 515 376 l 383 115 l 368 77 l 362 40 q 369 16 362 25 q 393 8 375 8 q 485 54 429 8 l 515 83 l 555 133 q 515 229 517 161 q 520 286 515 264 q 542 334 524 308 q 616 379 568 376 q 668 329 666 379 q 639 230 668 292 q 577 137 621 189 q 620 126 586 133 q 662 139 641 126 q 700 183 684 151 l 707 190 l 714 183 l 711 173 q 667 125 691 145 q 619 111 644 113 q 593 113 598 111 l 569 123 q 487 36 537 72 q 385 -8 433 -5 q 289 71 289 -8 m 533 212 q 563 145 533 166 l 616 229 q 639 294 637 267 q 609 320 639 318 q 555 287 580 320 q 533 212 535 255 "},"\\":{"x_min":62,"x_max":414,"ha":376,"o":"m 79 781 l 414 -139 l 395 -139 l 62 781 l 79 781 "},"о":{"x_min":-8,"x_max":428.328125,"ha":418,"o":"m 370 303 q 345 195 370 254 q 292 99 319 133 q 353 117 325 99 q 411 187 383 136 l 417 192 q 428 186 425 188 l 422 173 q 356 101 397 124 q 279 78 319 81 q 247 42 264 60 q 221 20 236 31 q 123 -13 175 -13 q 29 31 69 -13 q -8 142 -8 75 q 84 333 -8 245 q 264 408 170 408 q 342 378 313 408 q 370 303 367 351 m 281 392 q 159 269 230 392 q 90 66 92 150 q 98 20 90 37 q 133 4 106 4 q 279 118 214 4 q 336 318 333 217 q 323 369 336 346 q 281 392 311 389 "},"Д":{"x_min":58.78125,"x_max":991.765625,"ha":1026,"o":"m 212 -13 q 157 -10 175 -13 q 107 1 133 -10 q 58 58 60 20 q 87 102 58 79 q 159 119 116 119 l 204 118 q 222 116 213 118 q 248 111 233 116 q 305 97 279 106 l 372 73 q 490 240 432 134 q 575 451 527 309 q 689 703 633 620 q 836 849 743 785 q 558 940 742 940 q 294 814 404 940 q 200 570 202 703 q 237 446 200 499 q 344 401 275 401 q 507 491 443 401 q 563 671 560 569 q 514 802 563 764 l 508 810 l 512 813 l 518 812 q 563 753 543 798 q 579 666 579 716 q 519 477 579 561 q 344 384 453 386 q 189 435 248 384 q 131 587 131 487 q 240 834 131 724 q 556 960 365 960 q 742 931 672 960 q 861 866 807 909 l 920 901 q 991 926 956 917 l 938 892 l 884 846 q 959 707 933 791 q 986 536 983 627 q 890 165 986 315 q 570 -8 778 -5 q 389 26 464 -8 l 319 1 l 266 -9 l 212 -13 m 595 17 q 869 177 761 17 q 964 520 961 322 q 866 822 964 703 q 791 682 823 763 l 715 423 q 613 187 674 268 q 436 48 564 121 l 512 28 q 595 17 552 19 m 157 100 q 103 89 125 100 q 79 57 83 79 q 115 18 79 36 q 191 4 159 6 q 287 22 246 4 l 341 48 q 245 84 318 58 q 157 100 205 98 "},"Ì":{"x_min":17,"x_max":1333.1875,"ha":1322,"o":"m 469 215 l 737 641 l 828 752 l 903 836 l 939 870 l 995 917 l 834 436 l 776 268 q 709 36 709 80 q 720 15 709 15 q 777 85 736 15 q 860 256 806 137 q 957 465 932 422 q 1024 591 989 531 q 1103 709 1060 650 q 1231 854 1159 782 l 1298 917 q 1227 708 1269 851 l 1155 436 l 1113 260 q 1093 101 1093 160 q 1144 13 1093 15 q 1244 83 1185 13 l 1316 187 l 1325 194 l 1333 187 l 1329 176 l 1258 69 q 1138 -8 1197 -5 q 1022 46 1064 -8 q 983 194 985 99 q 1028 437 983 302 q 1142 685 1074 570 q 1251 854 1174 741 q 1149 744 1205 816 q 974 455 1061 626 l 824 133 q 713 -5 756 -2 q 617 118 617 -5 q 638 258 617 175 q 702 443 659 340 q 834 701 764 597 q 952 861 887 787 l 881 788 q 748 630 824 727 q 609 419 688 553 l 484 205 q 356 46 415 91 q 198 -17 282 -14 q 67 14 118 -17 q 17 116 17 45 q 85 220 17 179 q 234 262 153 262 l 263 258 l 258 255 q 106 216 174 255 q 39 116 41 179 q 91 29 39 59 q 200 3 138 5 q 347 62 276 3 q 469 215 403 113 "},"Ç":{"x_min":145,"x_max":851,"ha":822,"o":"m 145 166 q 190 312 145 245 q 311 378 235 375 q 400 350 366 378 q 435 276 433 323 q 405 200 435 240 q 322 151 380 170 l 318 154 l 322 161 q 375 215 345 176 q 393 282 391 249 q 373 338 393 317 q 312 360 357 360 q 209 300 257 360 q 165 171 167 244 q 208 54 165 101 q 348 7 251 9 q 573 177 480 7 q 637 411 634 310 q 614 482 637 459 l 567 466 l 540 461 l 516 460 q 474 482 474 460 q 493 507 474 499 q 547 515 515 515 l 603 511 q 708 651 673 556 q 736 798 733 719 q 716 876 736 848 q 638 910 693 910 q 497 864 566 910 q 396 747 432 819 q 376 726 389 726 l 369 737 q 375 762 369 751 q 472 879 404 832 q 638 934 547 934 q 794 885 736 934 q 851 749 848 838 q 804 594 851 660 q 646 500 754 521 q 726 433 691 491 q 760 312 760 379 q 676 101 760 196 q 350 -17 568 -14 q 192 40 244 -17 q 145 166 147 89 "},"ъ":{"x_min":-12.546875,"x_max":637,"ha":664,"o":"m 230 304 q 126 343 167 304 l 4 170 l -4 163 l -8 168 l -12 173 l -6 184 l 115 358 l 111 369 l 108 388 l 109 408 l 120 429 q 152 447 129 441 q 179 419 177 447 q 161 384 179 406 q 192 358 174 367 q 244 349 211 349 l 265 349 l 287 351 l 312 357 l 345 367 l 364 405 l 471 414 l 438 347 l 400 275 l 419 288 l 441 302 q 473 312 462 308 q 506 316 490 316 q 593 288 562 316 q 637 190 634 255 q 580 52 637 113 q 429 -14 519 -14 q 300 23 343 -14 q 257 123 259 60 q 275 215 257 167 q 320 316 282 245 l 269 306 l 230 304 m 341 92 q 362 29 341 57 q 413 2 382 4 q 513 68 468 2 q 558 213 555 129 q 544 272 558 251 q 494 292 531 292 q 427 273 454 292 q 381 236 407 261 l 354 168 q 341 92 341 128 "},"C":{"x_min":57,"x_max":920.375,"ha":755,"o":"m 57 646 q 120 793 57 729 q 364 872 202 872 l 404 870 q 435 867 429 870 q 456 858 447 867 l 450 856 l 434 856 q 190 792 272 856 q 115 628 115 734 q 155 514 115 566 q 264 445 191 470 q 475 717 348 610 q 809 849 629 846 q 891 821 863 849 q 920 750 920 795 q 859 611 920 683 q 677 481 799 540 l 602 451 l 530 428 q 397 413 472 415 q 347 279 368 354 q 327 147 327 207 q 353 47 327 84 q 442 12 379 14 q 640 110 554 12 q 718 289 715 196 q 699 349 718 326 q 645 371 683 369 q 548 317 588 371 q 521 211 523 275 q 530 157 521 173 l 533 150 l 530 145 l 522 147 q 484 240 486 173 q 522 340 484 297 q 642 385 560 382 q 710 358 688 385 q 733 289 730 334 q 652 100 733 193 q 442 -4 561 -4 q 258 61 317 -4 q 207 218 209 118 q 219 326 207 273 q 258 432 232 379 q 135 493 194 444 q 57 646 59 557 m 662 492 q 814 615 749 529 q 856 692 844 657 q 870 760 868 724 q 855 810 870 794 q 810 828 843 825 q 586 698 710 828 q 404 429 486 592 q 662 492 513 429 "},"!":{"x_min":57,"x_max":408,"ha":431,"o":"m 190 204 l 183 212 q 192 240 183 221 q 260 405 234 318 l 315 566 q 363 606 331 604 q 408 561 405 606 q 398 530 408 548 q 302 383 373 486 q 209 229 261 321 l 195 211 l 190 204 m 155 51 q 141 12 155 31 q 101 -5 129 -2 q 70 4 80 -5 q 57 40 62 14 q 70 79 57 61 q 111 97 85 95 q 141 83 127 97 q 155 51 153 70 "},"ç":{"x_min":-119,"x_max":491.609375,"ha":475,"o":"m 230 411 q 297 383 271 411 q 324 309 322 357 q 304 230 324 267 q 234 170 283 194 q 156 137 222 162 q 91 101 112 120 l 152 106 l 184 108 q 283 92 256 108 q 329 26 312 80 q 392 79 361 44 q 473 192 406 94 l 480 200 l 484 201 l 491 196 l 487 183 l 441 118 l 418 86 q 332 12 377 35 q 319 -74 332 -25 q 255 -233 301 -146 q 139 -373 211 -320 q 2 -423 70 -423 q -85 -394 -52 -423 q -119 -323 -119 -367 q -17 -145 -119 -232 q 235 -8 65 -79 l 239 13 q 216 73 239 55 q 147 91 196 89 q 108 88 115 91 l 82 84 l 38 26 q -6 -7 11 -7 q -23 8 -23 -7 q 22 65 -23 21 l 66 99 q 161 177 121 138 q 222 294 220 238 q 209 337 222 318 q 173 359 197 354 q 123 336 147 359 l 66 261 l 8 179 l 0 174 l -8 182 l -2 194 l 62 287 l 104 343 q 166 393 130 376 q 192 402 166 393 q 230 411 213 411 m 233 -28 q -1 -156 73 -98 q -96 -319 -93 -230 q -74 -377 -96 -352 q -12 -401 -57 -398 q 59 -366 24 -401 q 143 -234 94 -331 l 190 -144 q 233 -28 213 -96 "},"È":{"x_min":142,"x_max":1264.265625,"ha":1095,"o":"m 825 276 l 1133 890 l 1264 900 l 896 174 q 861 61 863 105 q 905 13 861 15 q 1002 74 946 13 q 1090 187 1044 121 l 1099 196 l 1103 197 l 1108 190 q 1103 174 1108 181 q 1016 61 1047 90 q 893 -8 951 -5 q 798 21 830 -8 q 773 97 773 50 q 776 133 773 126 l 784 171 q 680 41 739 91 q 572 -7 625 -4 q 446 40 489 -7 q 409 155 411 80 l 414 204 q 419 230 414 214 q 429 262 424 248 q 495 411 442 310 l 554 514 l 636 643 q 682 793 682 714 q 644 897 682 855 q 534 939 609 939 q 264 807 379 939 q 160 560 160 688 q 189 465 160 505 q 280 430 216 432 q 430 560 372 430 q 477 771 475 667 l 476 798 l 479 809 l 482 813 l 487 809 l 495 792 q 512 672 512 736 q 461 493 512 561 q 280 413 401 415 q 176 454 211 413 q 142 561 144 495 q 248 818 142 695 q 533 956 367 956 q 718 885 649 956 q 761 811 742 856 q 778 715 778 768 q 770 639 778 668 q 734 539 763 601 q 662 399 704 473 l 551 212 q 509 83 509 141 q 572 13 509 13 q 754 158 644 13 q 825 276 791 212 "},"Й":{"x_min":142,"x_max":1264.265625,"ha":1095,"o":"m 825 276 l 1133 890 l 1264 900 l 896 174 q 861 60 863 105 q 904 9 861 11 q 1026 101 950 9 q 1090 187 1062 144 l 1099 196 l 1103 197 l 1108 190 l 1103 174 q 1016 61 1047 90 q 893 -8 951 -5 q 798 25 830 -8 q 773 103 773 58 q 780 158 773 138 l 784 171 q 680 41 739 91 q 572 -7 625 -4 q 446 40 489 -7 q 409 155 411 80 l 414 204 q 419 230 414 214 q 429 262 424 248 q 495 411 442 310 l 554 514 l 636 643 q 682 793 682 714 q 644 897 682 855 q 535 939 609 939 l 529 939 q 262 807 375 939 q 160 560 162 690 q 189 465 160 505 q 280 430 216 432 q 430 560 372 430 q 477 771 475 667 l 476 793 l 476 798 l 479 810 l 482 814 q 495 792 490 814 q 512 672 512 736 q 461 493 512 561 q 280 413 401 415 q 176 454 211 413 q 142 561 144 495 q 248 818 142 695 q 533 956 367 956 q 718 885 649 956 q 761 811 742 856 q 778 715 778 768 l 778 676 l 772 650 q 637 354 756 549 l 551 213 q 509 82 509 141 q 523 28 509 48 q 570 9 537 11 q 721 114 634 9 q 825 276 783 188 m 819 1007 q 832 1033 819 1019 q 864 1047 843 1045 q 889 1035 876 1047 q 900 1007 894 1030 q 880 972 900 984 q 979 934 921 936 q 1086 968 1034 934 q 1075 996 1082 972 q 1086 1026 1075 1014 q 1118 1044 1098 1039 q 1157 1006 1155 1044 q 1148 979 1157 997 q 1108 941 1136 957 q 979 906 1053 908 q 859 944 912 906 q 819 1007 821 973 "},"X":{"x_min":37.1875,"x_max":1093.140625,"ha":868,"o":"m 622 101 q 638 31 622 62 q 695 8 654 10 q 802 89 737 8 l 869 180 l 874 183 l 881 176 l 879 169 l 813 76 q 694 -7 749 -7 q 623 20 647 -7 q 601 98 603 48 q 616 209 601 162 l 648 297 q 484 99 594 188 q 210 -13 348 -13 q 95 18 145 -13 q 37 121 37 56 q 57 177 37 152 q 81 194 69 189 q 113 200 91 197 q 163 180 143 200 q 184 127 184 163 q 95 44 184 56 q 142 17 111 31 q 213 8 168 10 q 430 132 322 8 q 592 446 536 257 q 622 572 614 520 q 632 669 629 621 q 591 792 632 752 q 512 822 562 822 q 252 712 354 822 q 162 497 164 618 q 196 390 162 435 q 301 350 230 352 q 422 444 372 350 q 473 669 471 539 l 472 706 l 473 723 l 476 726 l 479 720 l 487 705 q 506 569 504 631 q 451 397 506 463 q 303 332 398 334 q 184 378 232 332 q 144 498 146 422 q 240 727 144 624 q 523 846 349 843 q 679 783 616 846 q 740 602 738 722 l 738 567 q 733 524 738 545 q 795 669 757 606 q 891 782 833 731 q 950 817 911 802 q 1012 829 986 829 q 1068 808 1041 829 q 1093 753 1093 789 q 1072 708 1093 729 q 1027 690 1052 692 q 981 706 1000 690 q 963 749 965 722 q 980 791 963 772 q 1023 809 997 807 l 1013 812 q 960 805 983 812 q 901 770 935 798 q 799 638 844 719 q 697 381 790 618 l 648 241 l 628 162 l 622 101 "},"ô":{"x_min":21,"x_max":809,"ha":829,"o":"m 617 722 l 720 722 l 537 359 q 692 418 612 418 q 809 295 809 418 q 785 177 809 233 q 729 71 764 121 q 662 15 710 38 q 570 -5 618 -5 q 463 21 505 -5 q 401 92 421 46 l 164 -377 l 61 -377 l 281 60 q 223 13 257 34 q 191 3 210 9 q 155 0 174 0 q 58 35 96 0 q 21 135 21 71 q 47 251 21 190 q 115 355 72 315 q 288 429 186 427 q 376 409 344 429 q 433 359 407 398 l 617 722 m 320 394 q 259 380 286 394 q 209 335 233 367 q 149 228 182 301 q 115 84 117 142 q 126 39 115 54 q 164 24 135 26 q 235 45 202 24 q 316 127 269 66 l 415 322 q 381 372 411 349 q 360 384 373 377 q 320 394 343 391 m 524 37 q 584 53 553 37 q 631 105 612 69 l 665 168 q 701 311 698 243 q 684 357 701 340 q 638 374 667 374 q 582 360 612 374 q 513 313 554 347 l 416 120 q 524 37 445 37 "},"Б":{"x_min":26,"x_max":1281.265625,"ha":1074,"o":"m 845 840 l 719 877 q 598 893 651 893 q 297 769 419 893 q 192 543 194 661 q 217 461 192 499 q 293 431 241 433 q 456 555 389 431 q 509 765 507 656 l 510 776 l 513 773 q 539 656 537 727 q 487 493 539 558 q 298 414 424 414 q 204 448 239 414 q 174 543 176 485 q 288 787 174 671 q 628 920 419 917 l 664 918 q 721 912 691 918 l 768 911 l 872 897 l 993 886 l 1098 880 q 1203 895 1167 880 q 1281 954 1239 906 q 1215 847 1260 887 q 1076 794 1163 796 l 1023 795 l 973 805 l 845 840 m 711 439 q 662 279 687 327 q 545 104 616 170 q 211 -8 413 -8 q 70 25 122 -8 q 26 111 28 57 q 104 232 26 187 q 175 261 138 251 q 191 264 182 262 q 214 268 200 265 q 237 269 222 269 q 258 271 251 270 l 272 265 l 264 261 q 121 226 183 261 q 48 114 50 185 q 85 42 48 75 q 201 13 123 13 q 416 119 326 13 q 543 358 478 194 l 615 550 q 694 694 651 643 l 730 730 l 769 763 q 839 799 787 778 l 845 801 l 844 797 q 760 640 798 764 l 718 468 q 773 486 737 476 l 818 496 l 856 498 q 977 458 929 498 q 1040 316 1040 408 q 966 101 1040 204 q 752 -17 881 -14 q 665 8 693 -17 q 640 78 641 33 q 684 216 640 154 q 793 295 727 279 q 700 212 742 279 q 660 79 662 148 q 673 26 660 50 q 722 7 686 9 q 884 167 816 7 q 939 385 939 293 q 845 474 939 472 q 773 464 806 474 q 711 439 740 456 "},"г":{"x_min":20,"x_max":374.890625,"ha":361,"o":"m 68 312 l 62 316 l 64 320 l 72 333 q 137 378 97 357 q 225 401 177 398 q 319 374 286 401 q 351 304 349 351 q 312 209 351 250 q 223 161 288 186 q 110 113 134 132 q 85 57 85 96 q 140 8 85 8 q 280 88 200 8 l 356 187 l 370 198 l 374 192 l 367 175 q 293 73 335 122 q 135 -8 218 -5 q 56 15 87 -8 q 20 90 22 41 q 58 193 20 148 q 144 250 82 218 l 230 286 q 273 324 271 302 q 258 361 273 349 q 216 372 247 370 q 148 357 180 372 q 83 319 121 348 l 73 314 l 68 312 "},"х":{"x_min":-12,"x_max":568,"ha":553,"o":"m 5 173 l 0 166 l -12 173 l -3 187 l 99 328 q 222 401 157 398 q 285 377 263 401 q 325 298 304 360 l 354 338 l 377 365 q 452 400 414 397 q 504 384 484 400 q 524 344 524 372 q 516 316 524 326 q 485 304 507 307 q 450 338 452 304 q 457 361 450 352 q 481 372 464 367 q 471 380 477 378 l 448 383 q 380 343 416 383 q 332 270 363 322 l 337 202 l 340 122 l 340 111 q 347 34 340 53 q 380 13 353 13 q 438 47 401 13 q 550 190 474 79 l 558 198 l 566 197 l 568 192 l 559 175 q 475 59 510 102 q 372 -5 418 -2 q 272 22 308 -5 q 222 119 237 49 q 168 35 197 65 q 79 -7 129 -4 q 22 6 46 -7 q 0 47 2 19 q 11 80 0 69 q 40 92 23 92 q 79 55 77 92 q 52 17 79 17 q 79 8 59 10 q 157 54 113 8 q 217 149 167 68 l 211 206 l 212 252 l 222 302 l 228 330 l 230 354 q 204 382 230 379 q 135 343 175 382 l 5 173 "},"}":{"x_min":-4,"x_max":566,"ha":610,"o":"m -4 -84 q 30 -73 -4 -75 q 158 -35 118 -73 q 241 136 196 0 q 270 225 253 183 q 313 299 286 262 q 377 350 338 336 q 464 364 413 362 q 403 391 426 372 q 374 451 374 414 q 399 562 374 501 l 419 601 l 452 656 q 496 737 476 693 q 514 807 512 774 q 488 872 514 849 q 419 893 463 893 q 389 904 389 893 q 423 913 389 911 q 517 893 476 913 q 566 795 563 864 q 545 712 566 757 l 495 628 q 432 509 448 553 q 417 430 420 473 q 441 394 417 413 q 466 380 448 388 q 507 362 495 368 q 441 341 471 358 q 358 269 394 318 q 323 206 345 253 l 294 120 q 217 -45 256 -5 q 62 -96 169 -96 l 27 -96 q -4 -84 1 -96 "},"â":{"x_min":-7.03125,"x_max":573.75,"ha":471,"o":"m 318 467 l 170 173 q 136 59 138 105 q 180 7 136 9 q 349 132 254 7 q 302 186 325 148 q 286 264 286 223 q 309 354 286 319 q 379 392 332 392 q 437 372 420 392 q 457 322 454 357 q 433 236 457 284 q 406 187 425 216 q 372 139 395 167 l 386 137 l 408 139 q 416 140 414 139 q 429 148 418 140 q 467 187 449 160 l 476 194 l 481 187 l 477 175 q 434 133 458 145 l 410 125 l 386 122 l 362 125 q 277 33 334 77 q 172 -13 223 -13 q 84 18 116 -13 q 54 105 56 51 q 56 145 54 138 l 63 166 l 72 185 l 163 367 l 90 280 l 8 177 l 0 172 l -7 179 l -4 187 q 105 327 25 231 q 183 412 164 399 l 269 583 q 374 765 339 723 q 429 806 400 792 q 484 822 456 819 q 548 798 522 822 q 573 735 573 775 q 477 588 573 676 l 393 520 l 318 467 m 472 606 q 552 732 550 677 q 543 766 552 752 q 512 784 535 778 q 467 759 497 784 q 395 633 452 741 l 329 498 l 408 556 l 472 606 m 420 281 q 410 309 420 298 q 379 320 403 318 l 373 320 q 324 298 347 320 q 309 245 312 280 q 322 186 309 218 q 358 144 335 158 l 376 171 l 394 202 q 420 281 418 256 "},"ø":{"x_min":-11,"x_max":880,"ha":872,"o":"m 875 191 l 880 183 l 875 172 q 798 63 827 92 q 685 -7 735 -7 q 605 12 630 -7 q 581 83 583 32 q 585 121 581 99 q 601 172 591 149 l 627 236 l 592 174 l 570 137 q 501 44 525 68 q 412 -7 456 -4 q 338 16 366 -7 q 312 84 314 40 q 330 177 312 128 q 355 236 338 204 l 297 137 q 225 44 256 76 q 131 -8 176 -5 q 65 17 90 -8 q 41 99 43 40 q 77 222 41 142 q 141 344 107 294 l 61 247 l 5 173 l 0 166 l -11 174 l -5 186 l 79 304 l 149 395 l 286 404 l 147 130 l 131 86 q 123 43 123 61 q 145 12 123 14 q 209 51 170 12 q 283 145 235 77 l 352 259 l 395 335 l 421 395 l 553 404 l 412 123 q 395 83 401 102 q 390 43 392 70 q 415 8 390 10 q 502 69 453 8 l 556 145 l 623 256 l 667 335 l 695 395 l 827 404 l 685 123 q 664 77 672 101 l 658 41 q 689 12 658 12 q 786 79 722 12 q 867 184 814 110 l 875 191 "},"‰":{"x_min":66,"x_max":789,"ha":825,"o":"m 76 4 l 72 8 l 74 15 l 81 30 q 193 204 113 87 l 287 331 l 400 475 l 439 530 l 464 570 l 473 580 l 479 583 l 486 573 l 482 561 q 433 479 457 517 q 395 418 414 445 l 362 369 l 321 315 l 213 186 q 93 19 175 140 l 81 5 l 76 4 m 509 220 q 464 88 509 167 q 340 4 410 6 q 287 33 315 4 q 266 106 266 62 q 276 160 266 136 q 348 250 293 205 q 452 289 402 287 q 494 270 481 289 q 509 220 507 255 m 308 522 q 262 389 308 469 q 139 305 209 307 q 86 334 113 305 q 66 409 66 363 q 75 462 66 440 q 147 551 92 511 q 251 591 200 589 q 293 572 280 591 q 308 522 306 557 m 789 220 q 742 88 789 168 q 619 4 689 6 q 568 33 593 4 q 547 106 547 62 q 555 160 547 135 q 627 250 571 205 q 732 289 680 287 q 773 270 760 289 q 789 220 786 255 m 108 355 q 143 314 108 314 q 237 379 193 314 q 283 529 283 443 q 276 565 283 550 q 250 583 273 577 q 150 486 200 583 q 108 355 108 402 m 311 54 q 344 12 311 12 q 439 77 394 12 q 485 226 485 142 q 477 263 485 252 q 451 281 474 275 q 352 184 406 281 q 311 54 311 101 m 590 54 q 623 12 590 12 q 719 77 674 12 q 765 226 765 141 q 758 261 765 248 q 730 281 752 275 q 632 184 685 281 q 590 54 590 101 "},"Ä":{"x_min":58.78125,"x_max":991.765625,"ha":1026,"o":"m 212 -13 q 157 -10 175 -13 q 107 1 133 -10 q 58 58 60 20 q 87 102 58 79 q 159 119 116 119 l 204 118 q 222 116 213 118 q 248 111 233 116 q 305 97 279 106 l 372 73 q 490 240 432 134 q 575 451 527 309 q 689 703 633 620 q 836 849 743 785 q 558 940 742 940 q 294 814 404 940 q 200 570 202 703 q 237 446 200 499 q 344 401 275 401 q 507 491 443 401 q 563 671 560 569 q 514 802 563 764 l 508 810 l 512 813 l 518 812 q 563 753 543 798 q 579 666 579 716 q 519 477 579 561 q 344 384 453 386 q 189 435 248 384 q 131 587 131 487 q 240 834 131 724 q 556 960 365 960 q 742 931 672 960 q 861 866 807 909 l 920 901 q 991 926 956 917 l 938 892 l 884 846 q 959 707 933 791 q 986 536 983 627 q 890 165 986 315 q 570 -8 778 -5 q 389 26 464 -8 l 319 1 l 266 -9 l 212 -13 m 595 17 q 869 177 761 17 q 964 520 961 322 q 866 822 964 703 q 791 682 823 763 l 715 423 q 613 187 674 268 q 436 48 564 121 l 512 28 q 595 17 552 19 m 157 100 q 103 89 125 100 q 79 57 83 79 q 115 18 79 36 q 191 4 159 6 q 287 22 246 4 l 341 48 q 245 84 318 58 q 157 100 205 98 "},"Ч":{"x_min":6,"x_max":1027.78125,"ha":864,"o":"m 870 197 l 874 190 q 868 169 874 179 q 786 54 808 78 q 666 -5 732 -2 q 580 19 615 -5 q 548 103 550 43 l 550 139 q 556 176 550 159 l 572 228 l 594 284 q 612 332 602 313 l 630 365 l 701 498 q 633 419 665 452 q 561 356 600 383 q 432 308 494 310 q 341 337 379 308 q 312 420 312 366 q 334 520 312 469 q 377 601 347 554 l 414 655 q 459 737 445 704 q 476 809 476 775 q 447 871 476 841 q 411 887 432 881 l 357 893 q 111 794 205 893 q 24 591 24 704 q 120 490 24 492 q 254 590 196 490 q 300 753 300 673 l 298 774 l 297 785 l 298 791 l 301 794 l 306 790 l 316 773 l 326 727 l 329 688 q 279 538 329 596 q 117 472 223 472 q 6 594 8 472 q 97 805 6 705 q 359 910 199 910 q 527 854 472 910 q 573 734 573 808 q 570 696 573 708 q 559 658 567 678 q 518 578 547 624 l 457 491 q 405 369 407 409 q 447 332 405 332 q 629 447 517 332 q 748 603 695 517 l 818 729 l 862 812 l 895 881 l 1027 891 l 912 662 l 766 377 l 683 215 q 634 65 636 118 q 683 16 634 18 q 754 49 716 16 q 854 181 793 85 l 864 192 l 870 197 "},"—":{"x_min":41,"x_max":714,"ha":732,"o":"m 145 269 l 193 276 l 247 279 q 328 276 304 279 q 394 265 367 273 l 505 243 l 578 236 l 627 239 q 666 244 648 239 q 705 262 686 248 l 714 265 l 707 252 q 612 215 672 227 l 554 208 l 500 205 l 414 209 l 317 226 l 232 243 q 175 251 192 251 l 154 251 l 131 247 l 86 230 l 53 216 l 45 213 l 41 216 l 49 229 q 90 249 69 242 q 110 257 98 253 q 145 269 121 261 "},"N":{"x_min":8.484375,"x_max":1187.6875,"ha":914,"o":"m 176 -15 q 51 23 96 -15 q 8 115 10 60 q 33 179 8 152 q 90 204 58 204 q 143 184 121 204 q 163 125 163 166 q 137 67 163 91 q 62 45 112 47 q 176 1 99 3 q 298 42 244 1 q 416 185 352 84 l 551 424 l 708 718 q 834 854 775 837 l 844 856 l 851 849 l 847 830 q 813 664 830 781 l 804 554 l 799 448 l 801 180 l 828 268 q 911 476 864 374 q 1001 654 962 591 q 1077 741 1041 717 q 1127 755 1102 753 q 1169 744 1154 755 q 1187 716 1185 736 q 1175 693 1187 707 q 1143 680 1161 684 l 1114 684 q 1091 697 1104 688 q 1070 708 1085 703 l 1064 706 q 999 623 1044 694 l 962 550 l 922 460 l 858 300 l 802 135 l 799 48 l 683 3 l 683 81 l 684 319 l 686 396 l 697 512 q 744 702 705 604 q 806 822 766 764 q 691 651 776 797 l 563 416 l 447 204 q 326 46 392 107 q 176 -15 263 -12 "},"2":{"x_min":-1,"x_max":458,"ha":474,"o":"m 111 343 q 168 488 111 420 q 303 559 226 559 q 423 512 378 559 q 458 408 455 472 q 416 277 458 332 q 272 182 376 224 l 158 140 q 75 79 98 114 l 130 100 q 191 108 159 108 q 288 90 236 108 l 338 70 l 370 66 q 427 105 400 66 q 430 111 427 108 q 437 120 430 115 l 442 125 l 446 120 l 439 102 q 392 25 415 53 q 291 -14 355 -11 q 231 -5 258 -14 l 201 5 l 176 23 l 136 48 q 98 62 124 55 q 47 47 68 62 q 15 -4 30 34 l 7 -16 l 3 -21 l -1 -12 l 1 10 q 53 89 14 56 l 204 184 q 299 258 268 222 q 353 358 333 296 l 367 416 l 374 470 q 359 524 374 505 q 308 544 345 542 q 179 477 233 544 q 125 343 125 413 q 175 288 125 288 q 245 336 215 288 q 276 415 263 367 l 280 429 l 288 418 q 255 322 288 372 q 176 275 222 277 q 126 291 143 275 q 111 343 113 306 "},"ü":{"x_min":12.53125,"x_max":393,"ha":451,"o":"m 232 414 l 155 275 l 172 287 l 198 302 q 262 316 229 314 q 354 284 318 316 q 393 190 390 255 q 333 48 393 112 q 184 -14 275 -14 q 59 23 109 -14 q 12 125 14 60 q 23 191 12 160 q 61 286 32 221 l 121 405 l 232 414 m 98 100 q 118 30 98 57 q 171 2 136 4 q 271 76 226 2 q 316 222 313 147 q 302 273 316 256 q 251 292 290 290 q 183 273 216 292 q 137 236 162 261 l 108 157 l 101 127 l 98 100 "},"М":{"x_min":17,"x_max":1333.1875,"ha":1322,"o":"m 469 215 l 737 641 l 828 752 l 903 836 l 939 870 l 995 917 l 834 436 l 776 268 q 709 36 709 80 q 720 15 709 15 q 777 85 736 15 q 860 256 806 137 q 957 465 932 422 q 1024 591 989 531 q 1103 709 1060 650 q 1231 854 1159 782 l 1298 917 q 1227 708 1269 851 l 1155 436 l 1113 260 q 1093 101 1093 160 q 1144 13 1093 15 q 1244 83 1185 13 l 1316 187 l 1325 194 l 1333 187 l 1329 176 l 1258 69 q 1138 -8 1197 -5 q 1022 46 1064 -8 q 983 194 985 99 q 1028 437 983 302 q 1142 685 1074 570 q 1251 854 1174 741 q 1149 744 1205 816 q 974 455 1061 626 l 824 133 q 713 -5 756 -2 q 617 118 617 -5 q 638 258 617 175 q 702 443 659 340 q 834 701 764 597 q 952 861 887 787 l 881 788 q 748 630 824 727 q 609 419 688 553 l 484 205 q 356 46 415 91 q 198 -17 282 -14 q 67 14 118 -17 q 17 116 17 45 q 85 220 17 179 q 234 262 153 262 l 263 258 l 258 255 q 106 216 174 255 q 39 116 41 179 q 91 29 39 59 q 200 3 138 5 q 347 62 276 3 q 469 215 403 113 "},"ь":{"x_min":12.53125,"x_max":393,"ha":451,"o":"m 232 414 l 155 275 l 172 287 l 198 302 q 262 316 229 314 q 354 284 318 316 q 393 190 390 255 q 333 48 393 112 q 184 -14 275 -14 q 59 23 109 -14 q 12 125 14 60 q 23 191 12 160 q 61 286 32 221 l 121 405 l 232 414 m 98 100 q 118 30 98 57 q 171 2 136 4 q 271 76 226 2 q 316 222 313 147 q 302 273 316 256 q 251 292 290 290 q 183 273 216 292 q 137 236 162 261 l 108 157 l 101 127 l 98 100 "},"Ó":{"x_min":124,"x_max":1116.5,"ha":929,"o":"m 343 203 l 386 200 l 392 199 l 383 198 q 252 175 307 198 q 182 85 182 147 q 215 9 182 38 q 320 -14 246 -11 q 469 15 398 -14 q 647 173 561 53 q 732 330 672 207 l 824 521 l 658 315 q 504 234 571 236 q 415 264 445 234 q 386 348 386 296 l 386 373 q 390 390 387 378 q 392 403 392 401 q 405 441 394 416 q 486 584 424 494 l 534 655 q 580 737 565 704 q 597 809 597 774 q 567 871 597 842 q 476 893 539 891 q 229 789 333 893 q 143 594 145 698 q 165 519 143 547 q 233 492 186 494 q 373 587 311 492 q 408 668 393 625 q 420 751 420 709 l 419 775 l 419 784 l 420 791 q 427 785 423 790 q 431 777 429 783 q 434 773 433 775 q 436 769 435 771 l 445 730 l 449 689 q 400 538 449 597 q 233 472 343 472 q 151 505 186 472 q 124 596 126 537 q 214 801 124 707 q 480 910 318 910 q 648 854 593 910 q 694 733 694 808 l 693 704 q 685 668 693 685 q 649 593 681 642 l 587 495 l 530 410 q 492 345 504 371 q 477 291 484 325 q 518 257 477 259 q 663 352 572 257 q 851 603 755 448 q 960 739 890 668 q 1026 797 997 775 q 1094 846 1040 808 l 1112 852 l 1116 849 l 1113 843 q 1102 829 1109 834 q 1007 712 1043 782 q 948 569 977 658 l 894 391 q 816 224 859 278 q 573 14 713 79 q 324 -31 469 -31 q 132 70 134 -31 q 197 167 132 130 q 343 203 259 201 "},"Ÿ":{"x_min":-30,"x_max":617,"ha":597,"o":"m 136 -65 q 150 -51 140 -53 l 156 -59 l 138 -119 l 121 -165 l 194 -139 l 201 -137 l 207 -144 l 204 -148 l 201 -152 l 117 -187 q 67 -305 88 -268 q 7 -343 41 -343 q -30 -302 -30 -343 q 15 -220 -30 -262 q 101 -172 34 -205 l 136 -65 m 612 205 l 617 200 q 611 183 614 187 q 526 64 562 104 q 408 -8 465 -5 q 329 12 354 -8 q 305 76 307 32 l 309 115 q 315 137 309 123 q 325 165 322 157 l 336 194 l 356 236 l 329 190 l 297 137 q 228 47 256 78 q 138 -8 178 -5 q 44 93 46 -8 q 53 151 44 117 q 79 225 61 185 l 154 395 l 286 404 l 171 173 l 135 98 q 121 41 126 69 q 150 12 121 12 q 211 51 170 12 q 283 145 241 81 l 346 251 l 391 335 l 419 395 l 555 404 l 412 123 q 386 43 388 69 q 412 8 386 10 q 537 106 462 8 q 595 191 560 134 l 605 201 l 612 205 m -12 -300 q 8 -326 -12 -319 q 48 -301 32 -326 q 97 -194 63 -280 q 29 -230 40 -220 q -12 -300 -12 -259 "},"в":{"x_min":-7.03125,"x_max":573.75,"ha":471,"o":"m 318 467 l 170 173 q 136 59 138 105 q 180 7 136 9 q 349 132 254 7 q 302 186 325 148 q 286 264 286 223 q 309 354 286 319 q 379 392 332 392 q 437 372 420 392 q 457 322 454 357 q 433 236 457 284 q 406 187 425 216 q 372 139 395 167 l 386 137 l 408 139 q 416 140 414 139 q 429 148 418 140 q 467 187 449 160 l 476 194 l 481 187 l 477 175 q 434 133 458 145 l 410 125 l 386 122 l 362 125 q 277 33 334 77 q 172 -13 223 -13 q 84 18 116 -13 q 54 105 56 51 q 56 145 54 138 l 63 166 l 72 185 l 163 367 l 90 280 l 8 177 l 0 172 l -7 179 l -4 187 q 105 327 25 231 q 183 412 164 399 l 269 583 q 374 765 339 723 q 429 806 400 792 q 484 822 456 819 q 548 798 522 822 q 573 735 573 775 q 477 588 573 676 l 393 520 l 318 467 m 472 606 q 552 732 550 677 q 543 766 552 752 q 512 784 535 778 q 467 759 497 784 q 395 633 452 741 l 329 498 l 408 556 l 472 606 m 420 281 q 410 309 420 298 q 379 320 403 318 l 373 320 q 324 298 347 320 q 309 245 312 280 q 322 186 309 218 q 358 144 335 158 l 376 171 l 394 202 q 420 281 418 256 "},"С":{"x_min":95,"x_max":1023,"ha":846,"o":"m 95 693 q 179 868 95 800 q 417 938 263 935 l 449 938 l 481 935 q 521 929 506 935 l 525 926 l 520 921 l 497 921 q 241 856 326 921 q 157 675 159 794 q 206 544 157 604 q 316 477 252 494 q 545 771 404 648 q 900 913 714 913 q 989 883 954 913 q 1023 807 1023 856 q 959 658 1023 737 q 760 516 887 571 q 602 461 690 485 q 531 448 566 453 q 460 443 510 446 q 405 294 428 375 q 383 158 386 219 q 411 51 383 91 q 508 13 440 15 q 721 118 630 13 q 782 213 754 157 q 803 310 803 261 q 726 398 803 398 q 620 338 660 398 q 593 224 595 294 q 595 184 593 195 q 602 166 597 171 l 604 159 l 601 155 q 552 258 552 186 q 592 363 552 321 q 725 414 638 414 q 795 384 770 414 q 821 309 821 357 q 735 106 821 205 q 508 -4 640 -1 q 308 66 375 -4 q 266 137 283 97 q 252 234 255 178 q 265 349 252 290 q 308 463 278 404 q 172 533 233 478 q 95 693 97 598 m 746 529 q 908 662 842 568 q 951 743 934 699 q 968 822 968 784 q 905 892 968 889 q 660 751 790 892 q 468 461 546 629 q 595 475 545 461 q 746 529 648 486 "},"ß":{"x_min":-27,"x_max":1023.484375,"ha":915,"o":"m 538 283 q 345 78 439 150 q 222 11 286 37 q 92 -14 159 -14 q 2 15 40 -14 q -27 91 -25 44 q 39 201 -27 162 l 54 205 l 58 202 l 47 191 q -4 94 -1 159 q 20 35 -4 64 q 92 13 45 15 q 270 114 175 13 l 417 318 q 556 440 471 391 q 673 484 564 444 l 610 479 q 462 524 524 479 q 401 647 403 569 q 470 808 401 739 q 674 885 548 882 l 731 881 q 787 865 762 876 q 871 815 834 848 l 896 872 l 1023 885 l 716 174 q 692 75 694 124 q 699 36 692 48 q 731 24 708 24 q 851 104 783 24 l 916 196 l 928 204 l 937 198 l 931 185 q 833 53 861 81 q 683 -8 772 -5 q 608 17 641 -8 q 577 91 579 41 q 582 134 577 112 q 601 187 587 161 l 734 494 q 538 283 679 473 m 641 508 q 749 529 690 508 l 861 790 q 728 842 818 839 q 570 776 631 842 q 508 626 508 711 q 544 539 508 572 q 641 508 577 510 "},"s":{"x_min":-20,"x_max":318,"ha":304,"o":"m -10 158 l -6 169 l 76 286 l 130 359 l 126 383 q 130 407 126 396 q 154 421 134 415 q 176 398 174 421 q 165 375 176 388 l 150 357 q 216 250 187 308 q 247 136 245 193 q 241 91 247 117 l 270 130 l 302 179 l 312 184 l 318 179 l 312 163 q 230 52 261 84 q 167 3 205 26 q 101 -14 134 -11 q 18 1 45 -14 q -20 62 -17 19 q -6 92 -20 79 q 24 106 5 104 q 44 98 34 106 q 58 74 53 89 q 14 31 58 37 l 9 27 q 11 25 10 26 q 13 23 12 24 q 27 12 16 19 l 57 5 q 125 70 98 5 q 150 236 150 136 l 146 291 q 136 337 143 317 l 62 239 l 4 159 l -2 154 l -10 158 "},"?":{"x_min":103.390625,"x_max":549.53125,"ha":558,"o":"m 369 690 q 498 651 447 690 q 549 544 547 614 q 517 441 549 485 q 384 367 487 401 q 268 327 282 337 q 192 231 194 290 q 237 186 192 186 q 294 222 270 186 q 309 236 302 234 l 313 230 l 312 222 q 277 180 299 196 q 236 166 263 173 q 192 183 214 166 q 172 231 174 198 q 226 330 172 278 l 333 400 q 430 497 398 441 q 448 580 446 534 q 428 645 448 620 q 367 672 410 669 q 262 633 300 672 q 225 534 225 596 q 240 490 225 505 q 277 476 251 482 q 351 569 332 476 l 353 576 l 356 579 l 360 569 q 336 487 360 522 q 273 455 314 458 q 218 475 240 455 q 198 534 198 493 q 243 642 198 596 q 369 690 288 687 m 201 51 q 188 12 201 30 q 147 -5 175 -2 q 117 4 127 -5 q 103 40 109 14 q 117 79 103 61 q 157 97 131 95 q 188 83 173 97 q 201 51 199 71 "},"c":{"x_min":-5,"x_max":382,"ha":370,"o":"m 316 277 q 289 287 301 277 q 276 316 280 298 q 322 357 276 355 q 293 365 314 365 q 223 326 264 365 q 126 183 174 280 l 112 153 l 99 112 q 90 61 90 88 q 138 6 90 8 q 246 39 191 6 q 365 175 297 72 l 376 182 l 382 176 l 376 162 q 282 46 322 76 q 138 -8 219 -8 q 33 28 73 -8 q -5 126 -2 65 q 3 184 -5 155 q 33 247 12 216 q 148 348 70 308 q 275 380 211 377 q 342 364 323 380 q 362 321 362 350 q 351 290 362 303 q 316 277 341 277 "},"¶":{"x_min":-2,"x_max":575,"ha":535,"o":"m 246 326 q 186 280 203 289 q 101 259 149 259 q 41 283 60 259 q 23 349 25 310 q 99 529 23 446 q 290 616 180 616 l 393 609 l 452 606 l 64 -161 l -2 -161 l 246 326 m 519 606 l 575 606 l 186 -161 l 119 -161 l 519 606 "},"•":{"x_min":91,"x_max":357,"ha":440,"o":"m 91 200 q 125 289 91 252 q 230 331 164 331 q 323 296 289 331 q 357 214 357 263 q 322 125 357 161 q 217 84 282 84 q 122 117 162 84 q 91 200 93 149 "},"н":{"x_min":-8,"x_max":607,"ha":596,"o":"m 252 194 l 153 0 l 42 0 l 212 325 l 223 364 q 191 392 223 389 q 74 273 163 392 l 13 183 l 0 174 l -3 173 l -8 177 l -2 191 l 62 287 q 121 363 93 331 l 162 400 q 216 414 188 411 q 275 384 254 414 q 295 316 295 357 q 280 253 295 276 l 261 219 l 343 219 l 443 395 l 552 404 l 382 78 q 373 41 373 60 q 380 15 373 25 q 404 5 389 7 q 512 78 451 5 l 586 181 l 595 189 l 599 192 l 607 185 l 599 173 l 565 120 l 529 75 q 401 -8 458 -8 q 326 21 351 -8 q 301 91 301 50 q 308 141 301 124 l 333 194 l 252 194 "},"(":{"x_min":75,"x_max":450.734375,"ha":319,"o":"m 263 -82 l 260 -86 l 251 -80 l 230 -62 q 130 92 174 -4 q 88 215 103 156 q 83 248 85 237 q 79 275 82 260 q 75 341 75 308 q 173 655 75 495 q 409 880 274 817 q 420 884 410 881 q 443 892 431 887 l 450 888 q 420 858 450 880 q 262 641 328 791 q 190 266 192 470 q 205 83 190 151 q 256 -58 222 7 l 262 -74 l 263 -82 "},"м":{"x_min":-24,"x_max":827,"ha":817,"o":"m 296 251 q 402 381 350 338 q 470 422 420 396 l 470 375 l 463 318 q 432 218 463 293 l 396 113 l 384 72 l 378 38 q 395 16 378 22 q 436 79 407 16 l 507 236 q 607 381 553 331 q 675 422 634 407 l 674 380 q 671 347 674 358 q 666 319 669 330 q 657 280 666 307 q 639 218 652 250 l 616 133 l 606 66 q 648 12 606 12 q 735 84 673 12 q 811 186 772 129 l 815 190 l 827 177 l 825 173 l 740 59 q 645 -7 685 -7 q 559 26 595 -7 q 527 121 529 57 q 539 215 527 166 q 574 305 552 261 l 587 333 l 603 358 l 568 316 q 545 277 562 307 q 523 230 535 260 q 391 -3 423 -3 q 332 26 357 -3 q 310 106 312 54 l 314 160 l 320 188 l 334 226 l 363 291 l 405 358 l 356 302 l 312 240 l 202 73 q 56 -7 138 -4 q -24 51 -21 -7 q -7 87 -24 70 q 32 106 7 100 q 70 92 54 106 q 85 52 83 82 q 80 25 85 35 q 56 5 76 17 q 213 116 134 5 l 296 251 "},":":{"x_min":58,"x_max":194,"ha":210,"o":"m 156 51 q 142 12 156 30 q 102 -5 130 -2 q 71 4 81 -5 q 58 40 63 14 q 71 79 58 61 q 112 97 86 95 q 142 83 128 97 q 156 51 154 70 m 194 318 q 180 279 194 296 q 140 261 168 263 q 107 273 122 261 q 95 308 99 286 q 109 345 95 329 q 149 363 123 361 q 180 349 166 363 q 194 318 191 338 "},"з":{"x_min":-119,"x_max":491.609375,"ha":475,"o":"m 230 411 q 297 383 271 411 q 324 309 322 357 q 304 230 324 267 q 234 170 283 194 q 156 137 222 162 q 91 101 112 120 l 152 106 l 184 108 q 283 92 256 108 q 329 26 312 80 q 392 79 361 44 q 473 192 406 94 l 480 200 l 484 201 l 491 196 l 487 183 l 441 118 l 418 86 q 332 12 377 35 q 319 -74 332 -25 q 255 -233 301 -146 q 139 -373 211 -320 q 2 -423 70 -423 q -85 -394 -52 -423 q -119 -323 -119 -367 q -17 -145 -119 -232 q 235 -8 65 -79 l 239 13 q 216 73 239 55 q 147 91 196 89 q 108 88 115 91 l 82 84 l 38 26 q -6 -7 11 -7 q -23 8 -23 -7 q 22 65 -23 21 l 66 99 q 161 177 121 138 q 222 294 220 238 q 209 337 222 318 q 173 359 197 354 q 123 336 147 359 l 66 261 l 8 179 l 0 174 l -8 182 l -2 194 l 62 287 l 104 343 q 166 393 130 376 q 192 402 166 393 q 230 411 213 411 m 233 -28 q -1 -156 73 -98 q -96 -319 -93 -230 q -74 -377 -96 -352 q -12 -401 -57 -398 q 59 -366 24 -401 q 143 -234 94 -331 l 190 -144 q 233 -28 213 -96 "},"Û":{"x_min":105.390625,"x_max":1322.625,"ha":1152,"o":"m 1147 187 l 1156 195 l 1165 190 l 1158 174 q 1072 58 1089 73 q 936 -13 1005 -13 q 855 14 885 -13 q 826 94 826 44 q 851 191 826 134 l 1190 890 l 1322 904 l 967 173 q 930 58 932 101 q 935 29 930 39 q 960 19 938 21 q 1069 83 1009 19 q 1147 187 1082 98 m 488 901 l 620 915 l 524 726 q 472 622 490 654 q 434 554 456 591 l 500 576 l 534 583 l 573 586 q 704 541 649 586 q 779 359 779 481 q 677 92 779 204 q 427 -17 578 -14 q 269 31 325 -17 q 200 206 202 86 q 249 429 200 308 l 333 594 l 213 490 l 125 422 l 115 418 l 111 417 l 105 419 l 108 425 l 119 436 q 254 551 182 478 l 370 673 l 488 901 m 294 175 q 330 55 294 105 q 415 7 364 9 q 612 169 524 7 q 682 433 679 303 q 651 530 682 499 q 563 561 622 559 l 527 559 q 492 550 517 559 q 421 524 456 542 l 346 371 q 294 175 296 252 "},"V":{"x_min":99,"x_max":1058,"ha":593,"o":"m 276 220 q 301 380 276 294 q 375 549 327 465 q 420 616 392 579 l 509 732 q 419 684 477 712 q 330 662 364 664 q 273 716 275 662 l 279 755 l 283 784 q 264 799 283 794 q 193 762 235 799 q 118 676 151 724 q 107 662 114 667 l 101 658 l 99 662 q 105 683 99 673 q 204 792 145 754 q 308 833 260 830 q 354 765 354 833 l 355 734 q 389 708 361 710 q 511 751 443 708 q 594 836 563 784 q 619 854 602 847 q 634 838 633 854 q 623 819 634 830 q 567 751 595 794 q 530 662 542 708 l 497 540 q 489 512 494 531 q 481 484 484 494 q 465 435 478 472 l 418 300 q 380 209 401 253 l 346 143 l 319 98 l 269 17 q 397 139 316 55 q 548 346 488 239 l 636 511 q 724 660 676 587 q 838 782 772 728 q 992 842 908 839 q 1042 835 1027 842 q 1058 818 1051 835 l 1053 802 q 992 822 1034 820 q 959 819 970 822 q 908 804 941 819 q 849 770 875 791 q 734 645 798 728 q 650 506 702 598 l 561 340 q 391 107 491 207 q 221 -24 320 34 q 262 106 247 44 q 272 163 267 134 q 276 220 276 193 "}," ":{"x_min":0,"x_max":0,"ha":239},"У":{"x_min":124,"x_max":1116.5,"ha":929,"o":"m 343 203 l 386 200 l 392 199 l 383 198 q 252 175 307 198 q 182 85 182 147 q 215 9 182 38 q 320 -14 246 -11 q 469 15 398 -14 q 647 173 561 53 q 732 330 672 207 l 824 521 l 658 315 q 504 234 571 236 q 415 264 445 234 q 386 348 386 296 l 386 373 q 390 390 387 378 q 392 403 392 401 q 405 441 394 416 q 486 584 424 494 l 534 655 q 580 737 565 704 q 597 809 597 774 q 567 871 597 842 q 476 893 539 891 q 229 789 333 893 q 143 594 145 698 q 165 519 143 547 q 233 492 186 494 q 373 587 311 492 q 408 668 393 625 q 420 751 420 709 l 419 775 l 419 784 l 420 791 q 427 785 423 790 q 431 777 429 783 q 434 773 433 775 q 436 769 435 771 l 445 730 l 449 689 q 400 538 449 597 q 233 472 343 472 q 151 505 186 472 q 124 596 126 537 q 214 801 124 707 q 480 910 318 910 q 648 854 593 910 q 694 733 694 808 l 693 704 q 685 668 693 685 q 649 593 681 642 l 587 495 l 530 410 q 492 345 504 371 q 477 291 484 325 q 518 257 477 259 q 663 352 572 257 q 851 603 755 448 q 960 739 890 668 q 1026 797 997 775 q 1094 846 1040 808 l 1112 852 l 1116 849 l 1113 843 q 1102 829 1109 834 q 1007 712 1043 782 q 948 569 977 658 l 894 391 q 816 224 859 278 q 573 14 713 79 q 324 -31 469 -31 q 132 70 134 -31 q 197 167 132 130 q 343 203 259 201 "},"@":{"x_min":71,"x_max":676.828125,"ha":706,"o":"m 555 493 l 458 262 q 450 225 450 240 q 482 196 450 196 q 598 251 545 196 q 654 400 652 304 q 586 550 654 490 q 400 610 520 607 q 189 536 275 610 q 91 308 93 454 q 173 114 91 183 q 363 52 245 52 q 522 86 455 52 q 611 161 573 115 l 619 169 q 633 158 627 169 l 627 143 q 505 56 573 80 q 361 31 438 31 q 154 100 238 31 q 71 305 71 168 q 176 551 71 460 q 403 631 268 631 q 600 564 523 631 q 676 397 674 500 l 676 365 l 669 330 q 653 286 669 317 q 576 200 632 241 q 464 167 524 167 q 409 179 428 167 q 391 220 393 191 l 395 255 q 345 197 366 213 q 274 171 313 173 q 204 202 232 171 q 180 290 180 236 q 201 375 180 324 q 287 466 230 434 q 395 500 343 500 q 441 489 424 500 q 475 455 460 480 l 493 493 l 555 493 m 277 368 q 239 240 241 288 q 280 187 239 189 q 338 215 305 187 q 409 302 368 243 l 468 434 q 445 466 460 454 q 405 482 435 476 q 346 458 373 482 q 277 368 311 429 "},"¾":{"x_min":-22,"x_max":340,"ha":327,"o":"m 4 172 l -2 163 l -12 170 l -6 182 l 46 258 l 144 395 q 158 429 148 417 q 186 444 166 437 q 211 422 211 444 q 188 394 211 404 q 161 383 168 394 q 226 286 181 355 q 255 212 246 244 q 264 147 262 184 q 259 97 264 113 l 295 144 l 314 173 l 324 192 l 334 200 l 340 192 l 335 176 q 248 58 294 106 q 108 -15 178 -12 q 3 10 40 -15 q -22 66 -22 29 q -8 101 -22 87 q 24 116 3 114 q 50 105 39 116 q 62 82 62 97 q 50 52 62 66 q 12 34 39 41 l 7 30 l 12 22 l 29 11 l 57 5 q 106 31 91 5 q 144 134 124 59 l 155 188 l 159 252 q 145 362 159 325 l 4 172 "},"i":{"x_min":-8,"x_max":315,"ha":292,"o":"m 315 527 q 301 488 315 506 q 259 470 289 473 q 223 483 242 470 q 212 518 218 489 q 227 558 212 541 q 269 575 242 575 q 302 561 289 575 q 315 527 315 548 m 252 376 l 94 73 l 85 37 q 115 5 85 7 q 215 73 157 5 q 283 169 231 92 l 292 177 l 297 179 l 301 174 l 297 161 q 184 22 226 55 q 102 -8 146 -5 q 39 17 64 -8 q 18 81 18 42 q 30 140 18 108 l 116 314 l 7 162 l 0 155 l -8 161 l -2 176 l 136 367 l 252 376 "},"m":{"x_min":-11,"x_max":778,"ha":769,"o":"m 482 305 l 479 284 q 538 348 508 321 q 609 380 574 377 q 655 357 640 380 q 672 301 672 337 q 627 174 672 236 l 604 138 l 583 102 q 568 44 570 72 q 601 12 568 14 q 679 59 630 12 q 713 104 693 76 q 733 131 721 114 q 761 172 744 148 l 773 180 l 778 174 q 772 158 775 161 q 683 40 717 74 q 576 -8 635 -5 q 514 10 538 -8 q 491 68 493 26 q 514 155 491 112 l 548 218 l 593 290 q 616 345 609 315 q 595 362 616 362 q 523 318 568 362 q 443 206 481 273 l 337 0 l 239 0 l 394 304 l 400 318 q 408 345 408 336 q 389 363 408 361 q 311 308 364 363 q 280 270 309 305 q 246 220 266 252 l 132 0 l 30 0 l 194 308 l 204 330 l 209 348 q 194 359 209 354 q 76 259 157 359 l 4 159 l -2 155 l -11 162 l -6 169 l 62 269 q 207 382 145 382 q 258 361 235 382 q 279 312 279 342 l 275 284 q 337 355 309 333 q 409 382 370 379 q 464 359 446 382 q 482 305 479 340 "},"Е":{"x_min":150,"x_max":843.984375,"ha":755,"o":"m 558 578 q 666 562 625 578 q 708 515 708 545 q 658 483 708 485 q 578 500 625 483 q 503 552 535 516 q 349 430 407 519 q 284 181 286 332 q 321 49 284 106 q 430 0 359 0 q 649 101 552 0 q 732 288 729 188 q 705 359 732 333 q 637 386 681 383 q 546 335 584 386 q 521 233 521 293 l 525 188 l 535 154 l 537 147 l 534 143 l 530 144 q 489 195 512 153 q 473 270 473 232 q 506 360 473 318 q 623 403 546 403 q 747 288 744 403 q 663 85 747 183 q 434 -17 573 -14 q 215 59 293 -17 q 150 230 152 124 q 239 455 150 360 q 484 574 324 549 l 470 599 l 422 598 q 333 603 365 598 q 264 625 300 607 q 181 737 181 661 q 269 897 181 832 q 482 959 356 959 l 496 955 l 487 951 q 300 891 366 938 q 238 753 238 845 q 314 639 238 675 q 449 615 368 615 l 463 615 l 456 642 l 453 669 q 528 833 453 760 q 733 905 602 902 q 816 883 789 905 q 843 826 841 863 q 791 708 843 765 q 638 623 733 645 l 555 609 l 558 578 m 562 560 q 602 513 574 527 q 656 500 629 502 q 690 516 690 500 q 656 545 690 528 q 585 562 622 562 l 562 560 m 626 635 q 773 717 714 656 q 826 824 823 770 q 805 869 826 846 l 785 880 q 752 887 781 882 q 617 819 677 887 q 553 623 555 744 l 626 635 "},"Э":{"x_min":102,"x_max":849,"ha":777,"o":"m 511 548 q 547 527 530 548 q 571 501 554 511 q 609 492 588 492 q 665 501 634 492 q 687 512 676 503 l 694 515 l 691 508 l 631 476 l 602 465 l 561 458 q 520 481 535 458 q 500 498 516 492 q 457 508 492 501 l 421 504 l 383 493 l 375 491 l 370 494 l 380 502 l 439 529 q 479 541 461 538 q 495 545 485 542 q 511 548 505 547 m 102 178 q 147 322 102 266 q 269 379 191 376 q 359 350 326 379 q 394 277 392 326 q 365 202 394 239 q 281 154 339 173 l 277 157 l 281 163 q 331 216 312 183 q 352 284 352 249 q 334 341 352 321 q 272 362 318 362 q 166 309 209 362 q 125 182 125 257 q 170 57 125 107 q 307 9 215 11 q 605 213 471 9 q 729 628 726 405 q 690 836 729 779 q 573 895 652 895 q 401 836 469 895 q 336 696 338 781 q 352 643 336 669 q 394 623 368 625 q 468 660 432 623 q 510 772 510 703 q 512 786 510 782 l 516 789 l 521 776 q 478 650 521 701 q 375 600 435 600 q 309 625 343 600 q 283 690 285 649 q 367 850 283 782 q 577 919 450 916 q 779 824 709 919 q 849 571 846 734 q 683 168 849 350 q 311 -14 520 -11 q 154 40 210 -14 q 102 178 104 92 "},"ю":{"x_min":-8,"x_max":749,"ha":733,"o":"m 157 0 l 42 0 l 213 324 l 223 364 q 199 394 223 394 q 148 364 178 394 q 69 266 117 333 l 13 183 l 0 174 l -3 173 l -8 177 l -2 191 l 54 277 q 140 381 110 355 q 171 402 151 392 q 219 414 188 411 q 275 387 253 414 q 299 333 297 364 q 276 244 299 289 l 261 215 l 335 215 q 437 348 360 288 q 597 408 516 405 q 678 377 652 408 q 700 303 698 353 q 675 191 700 257 q 649 135 661 155 q 622 99 639 116 q 676 121 652 103 q 732 192 697 137 l 739 199 l 749 194 q 743 177 746 180 q 682 105 720 131 q 611 78 659 91 q 536 9 577 36 q 454 -13 499 -10 q 357 31 395 -13 q 321 144 323 73 l 322 170 l 326 194 l 253 194 l 157 0 m 668 318 q 655 369 668 346 q 614 392 643 389 q 525 329 577 392 q 462 220 496 291 l 432 139 q 421 63 423 102 q 431 20 421 38 q 464 4 441 4 q 565 54 514 4 q 636 175 600 93 l 657 239 q 668 318 665 276 "},"á":{"x_min":-15,"x_max":1003,"ha":515,"o":"m 90 -7 q 12 26 47 -7 q -15 116 -12 57 q 71 315 -15 225 q 294 410 161 407 q 344 393 324 410 q 365 354 365 376 l 469 551 l 617 838 q 672 897 638 880 q 757 915 705 913 l 796 915 l 828 909 l 940 897 q 998 911 979 897 l 1003 912 l 998 901 q 946 865 980 884 l 918 855 l 897 854 q 832 869 869 854 l 805 878 l 778 885 q 747 873 760 885 q 721 836 740 870 q 693 779 710 809 q 648 694 668 729 l 535 476 l 419 240 q 285 55 365 119 q 90 -7 206 -7 m 352 343 q 342 376 352 361 q 308 393 331 393 q 240 366 272 393 q 146 233 206 336 l 85 101 q 64 31 64 51 q 87 6 64 6 q 211 84 146 6 l 242 127 l 265 165 l 308 243 l 350 329 l 352 343 "},"×":{"x_min":6,"x_max":1027.78125,"ha":864,"o":"m 870 197 l 874 190 q 868 169 874 179 q 786 54 808 78 q 666 -5 732 -2 q 580 19 615 -5 q 548 103 550 43 l 550 139 q 556 176 550 159 l 572 228 l 594 284 q 612 332 602 313 l 630 365 l 701 498 q 633 419 665 452 q 561 356 600 383 q 432 308 494 310 q 341 337 379 308 q 312 420 312 366 q 334 520 312 469 q 377 601 347 554 l 414 655 q 459 737 445 704 q 476 809 476 775 q 447 871 476 841 q 411 887 432 881 l 357 893 q 111 794 205 893 q 24 591 24 704 q 120 490 24 492 q 254 590 196 490 q 300 753 300 673 l 298 774 l 297 785 l 298 791 l 301 794 l 306 790 l 316 773 l 326 727 l 329 688 q 279 538 329 596 q 117 472 223 472 q 6 594 8 472 q 97 805 6 705 q 359 910 199 910 q 527 854 472 910 q 573 734 573 808 q 570 696 573 708 q 559 658 567 678 q 518 578 547 624 l 457 491 q 405 369 407 409 q 447 332 405 332 q 629 447 517 332 q 748 603 695 517 l 818 729 l 862 812 l 895 881 l 1027 891 l 912 662 l 766 377 l 683 215 q 634 65 636 118 q 683 16 634 18 q 754 49 716 16 q 854 181 793 85 l 864 192 l 870 197 "},"K":{"x_min":6.78125,"x_max":1192.375,"ha":1008,"o":"m 194 -15 q 58 20 110 -15 q 6 116 9 55 q 31 180 6 155 q 87 204 54 202 q 138 184 119 204 q 158 123 156 168 q 131 68 158 94 q 65 44 108 46 q 111 13 76 31 q 180 4 144 6 q 326 95 259 4 q 408 262 352 133 l 444 361 l 461 400 q 536 567 488 470 q 586 647 555 608 l 661 737 q 580 695 635 718 q 483 675 527 675 q 413 729 415 675 l 416 756 l 419 780 q 398 799 419 793 q 329 758 376 799 q 265 680 298 729 l 251 663 l 247 661 l 248 667 l 255 683 q 353 792 294 753 q 456 833 410 830 q 490 820 476 833 q 502 767 502 809 q 508 722 502 733 q 537 708 511 712 q 633 737 574 708 q 748 836 699 770 q 767 849 757 849 l 774 841 l 771 827 l 740 775 l 715 730 l 679 636 l 607 425 q 523 221 557 279 q 386 54 470 117 q 194 -15 295 -12 m 1170 861 q 1186 857 1184 861 l 1192 855 l 1185 851 l 1149 845 q 1123 842 1128 845 l 1095 831 q 1053 802 1070 823 q 1009 719 1042 788 l 975 645 q 870 509 937 566 q 779 461 843 487 q 791 423 784 449 q 798 390 796 394 q 799 358 798 374 l 802 233 l 804 147 l 805 76 q 838 16 805 18 q 960 116 875 16 l 981 144 l 1008 182 q 1024 197 1012 189 l 1028 191 q 1018 170 1028 182 l 946 71 q 813 -8 878 -8 q 700 19 738 -8 q 663 119 663 47 q 675 212 663 157 l 693 289 l 721 394 q 726 416 722 398 q 732 454 726 428 q 651 491 653 454 q 682 515 651 513 q 725 506 697 515 q 767 480 749 502 q 837 554 796 497 l 890 641 q 989 791 958 759 q 1170 861 1057 858 m 683 501 q 667 490 667 501 q 683 473 667 481 q 719 465 700 465 l 732 465 q 719 486 732 475 q 683 501 710 494 "},"7":{"x_min":-4,"x_max":415,"ha":351,"o":"m 51 440 l 45 447 l 51 459 l 102 575 l 111 586 l 116 590 l 122 580 l 119 569 l 105 537 l 163 561 q 219 572 187 569 q 245 569 241 572 l 266 561 l 298 550 l 337 547 l 362 547 l 380 552 l 395 575 l 403 583 l 409 586 l 415 577 l 410 567 l 320 426 q 173 170 236 292 q 95 -45 97 22 l 98 -101 q 78 -115 98 -113 q 27 -98 52 -115 q -4 0 -1 -73 q 113 225 -4 80 l 369 529 l 326 498 q 266 479 294 481 l 234 483 q 198 502 219 488 l 163 522 l 131 529 l 98 520 l 66 457 q 58 444 66 448 l 51 440 "},"п":{"x_min":-12,"x_max":621,"ha":610,"o":"m 262 237 l 140 0 l 31 0 l 207 331 l 218 355 l 225 377 q 211 390 225 390 q 92 288 178 390 q 3 170 57 246 l -4 163 l -12 172 l -6 183 l 72 297 q 217 411 159 408 q 285 383 267 411 q 297 326 297 364 l 294 305 q 364 378 330 350 q 434 410 399 407 q 485 386 467 410 q 504 325 502 366 q 503 291 504 300 q 491 251 503 279 q 451 184 483 222 q 403 106 424 149 q 383 45 386 73 q 423 13 383 15 q 522 76 460 13 q 599 183 551 109 l 615 194 l 621 187 l 615 173 q 497 25 549 68 q 415 -8 458 -8 q 336 11 359 -8 q 312 83 315 29 q 325 146 312 106 q 368 237 338 186 l 419 319 q 443 371 435 343 q 421 389 443 386 q 337 333 391 389 q 262 237 283 279 "},"¨":{"x_min":150,"x_max":878.90625,"ha":755,"o":"m 558 578 q 666 562 625 578 q 708 515 708 545 q 658 483 708 485 q 578 500 625 483 q 503 552 535 516 q 349 430 407 519 q 284 181 286 332 q 321 49 284 106 q 430 0 359 0 q 649 101 552 0 q 732 288 729 188 q 705 359 732 333 q 637 386 681 383 q 546 335 584 386 q 521 233 521 293 l 525 188 l 535 154 l 537 147 l 534 143 l 530 144 q 489 195 512 153 q 473 270 473 232 q 506 360 473 318 q 623 403 546 403 q 747 288 744 403 q 663 85 747 183 q 434 -17 573 -14 q 215 59 293 -17 q 150 230 152 124 q 239 455 150 360 q 484 574 324 549 l 470 599 l 422 598 q 333 603 365 598 q 264 625 300 607 q 181 737 181 661 q 269 897 181 832 q 482 959 356 959 l 496 955 l 487 951 q 300 891 366 938 q 238 753 238 845 q 314 639 238 675 q 449 615 368 615 l 463 615 l 456 642 l 453 669 q 528 833 453 760 q 733 905 602 902 q 816 883 789 905 q 843 826 841 863 q 791 708 843 765 q 638 623 733 645 l 555 609 l 558 578 m 649 1019 q 662 1052 649 1036 q 698 1069 674 1069 q 737 1026 735 1069 q 724 995 737 1012 q 690 977 715 984 q 649 1019 651 977 m 791 1019 q 803 1052 791 1036 q 839 1069 816 1069 q 878 1026 876 1069 q 862 987 878 1006 q 831 977 856 984 q 800 987 812 977 q 791 1019 793 995 m 562 560 q 602 513 574 527 q 656 500 629 502 q 690 516 690 500 q 656 545 690 528 q 585 562 622 562 l 562 560 m 626 635 q 773 717 714 656 q 826 824 823 770 q 805 869 826 846 l 785 880 q 752 887 781 882 q 617 819 677 887 q 553 623 555 744 l 626 635 "},"Y":{"x_min":-18.046875,"x_max":930.734375,"ha":753,"o":"m 305 131 q 223 160 251 131 q 197 236 199 188 q 219 346 197 296 q 312 496 244 400 q 401 632 382 597 q 443 751 443 702 q 414 807 443 784 q 331 828 386 828 q 102 743 189 828 q 22 555 24 667 q 119 457 22 459 q 236 550 186 457 q 252 586 246 569 q 266 625 259 600 q 276 662 269 634 q 277 681 277 668 q 279 701 278 694 l 277 721 l 277 730 l 279 736 l 288 732 l 295 712 l 302 682 l 305 640 q 262 501 305 556 q 118 439 212 439 q 34 467 68 439 q 4 555 6 496 q 88 754 4 667 q 332 846 180 846 q 490 794 438 846 q 533 682 531 753 q 507 573 533 626 l 473 514 l 425 440 l 357 343 q 281 184 281 232 q 319 152 281 154 q 429 216 363 152 q 558 372 484 271 q 687 561 628 470 q 789 687 726 623 q 907 786 847 748 l 926 793 l 930 790 l 926 784 l 912 770 q 744 512 814 693 l 648 209 q 590 69 628 152 l 555 -3 q 657 56 605 5 q 751 179 706 105 l 761 186 l 768 180 l 762 167 q 680 57 710 84 q 548 -21 626 0 l 493 -116 l 448 -183 q 423 -214 446 -187 q 383 -257 408 -235 q 245 -359 318 -327 q 101 -392 179 -389 q -18 -291 -16 -392 q 69 -146 -18 -208 q 405 -24 164 -75 l 643 463 l 580 370 l 534 306 q 422 182 472 223 q 305 131 361 131 m 24 -289 q 42 -345 24 -321 q 105 -369 60 -366 q 235 -307 180 -369 q 395 -45 288 -252 q 243 -86 299 -65 q 135 -135 189 -105 q 24 -289 26 -197 "},"E":{"x_min":139,"x_max":786.90625,"ha":703,"o":"m 659 478 q 613 452 659 454 q 536 465 576 452 q 469 514 497 478 q 325 400 383 481 q 265 172 267 304 q 298 49 265 103 q 400 1 331 3 q 604 93 519 1 q 679 265 679 176 q 591 358 679 355 q 509 315 542 358 q 485 217 485 274 q 487 175 485 183 l 497 145 l 500 137 l 497 134 l 491 135 q 441 252 443 172 q 469 335 441 302 q 575 374 504 371 q 694 265 691 374 q 613 83 694 171 q 404 -15 527 -12 q 202 57 275 -15 q 139 214 141 118 q 219 419 139 331 q 452 534 298 506 l 438 558 l 393 557 q 245 582 309 557 q 169 688 171 615 q 248 833 169 775 q 339 878 286 861 q 454 893 385 891 l 460 892 l 463 889 l 453 885 q 357 869 395 885 q 280 829 314 857 q 220 701 222 784 q 293 596 220 631 q 417 573 340 575 l 432 573 l 422 599 l 421 626 q 487 773 421 706 q 687 842 561 839 q 762 821 737 842 q 786 768 786 802 q 720 644 786 706 q 516 567 649 584 l 519 538 q 628 516 591 538 q 659 478 652 500 m 612 465 q 640 480 634 465 q 609 506 640 490 q 544 523 580 523 l 523 522 q 612 465 542 467 m 706 822 q 536 683 585 822 l 519 625 l 515 578 q 699 647 629 591 q 770 762 770 705 q 753 804 770 785 q 706 822 739 819 "},"Ô":{"x_min":12,"x_max":1189,"ha":1203,"o":"m 697 224 q 501 24 610 87 q 198 -35 394 -32 q 12 70 14 -35 q 73 168 12 131 q 215 205 135 205 l 264 201 q 138 177 186 201 q 62 83 64 146 q 94 13 62 37 q 199 -7 125 -7 q 356 17 294 -7 q 527 173 445 55 l 583 273 l 626 367 q 547 317 593 339 q 441 291 489 293 q 338 327 380 291 q 297 420 297 363 q 363 610 297 511 q 590 728 446 726 q 694 705 655 728 q 754 648 740 684 l 783 698 q 822 756 801 731 q 953 893 873 819 l 885 848 l 832 816 q 679 767 744 769 q 620 780 643 767 q 598 826 600 792 l 601 865 q 597 878 601 873 q 577 885 594 880 q 550 878 563 885 q 505 848 536 874 q 440 773 475 822 l 430 762 l 427 759 l 423 764 l 429 776 q 536 894 471 851 q 646 937 599 935 q 680 923 666 937 q 694 863 692 911 q 701 812 694 826 q 733 798 709 800 q 858 849 776 798 q 981 951 942 901 q 999 959 989 959 q 1018 947 1012 959 l 1012 934 q 916 779 960 877 l 859 641 q 946 690 888 664 q 1046 708 1003 705 q 1150 673 1111 708 q 1189 581 1186 640 q 1136 377 1189 463 q 937 258 1068 260 q 843 280 887 258 q 768 363 793 307 l 740 302 l 697 224 m 636 685 q 573 673 603 685 q 514 634 544 663 q 449 536 484 610 q 418 418 420 468 q 438 358 418 387 q 493 331 459 334 q 559 351 524 331 q 643 414 607 374 l 739 622 q 701 667 732 648 q 636 685 673 683 m 900 298 q 1021 401 967 298 q 1070 602 1067 492 q 995 672 1070 669 q 850 604 924 672 l 836 547 l 819 500 q 780 396 798 427 q 841 318 801 346 q 900 298 868 301 "},"‹":{"x_min":27,"x_max":261,"ha":299,"o":"m 27 273 q 85 333 27 281 l 235 443 l 247 448 l 254 449 l 261 444 q 244 422 261 438 q 154 340 207 397 q 107 280 113 295 q 132 218 107 270 q 191 123 155 170 q 205 98 198 115 l 198 91 l 191 94 l 175 104 q 82 197 133 137 q 27 273 33 253 "},"Ï":{"x_min":26,"x_max":1466.9375,"ha":1238,"o":"m 906 830 l 748 871 q 625 893 672 893 q 322 776 443 893 q 218 549 218 674 q 243 467 218 505 q 318 437 267 439 q 480 559 416 437 q 533 765 531 655 l 536 776 q 563 656 561 732 q 511 492 563 557 q 322 414 448 414 q 198 548 198 414 q 310 794 198 686 q 652 920 439 920 l 705 920 l 747 914 q 959 897 918 897 l 1039 895 l 1105 892 l 1280 880 q 1393 896 1355 880 q 1466 954 1431 912 q 1382 832 1433 867 q 1190 792 1320 795 q 1028 802 1099 792 q 906 830 952 814 m 979 -8 q 859 50 906 -8 q 815 211 817 106 q 893 468 815 331 q 1062 697 957 585 q 1128 755 1093 736 l 1150 768 l 1189 789 l 1194 790 q 1107 693 1149 751 q 1023 551 1064 634 q 931 229 931 369 q 957 104 931 147 q 1066 52 990 54 l 1093 52 l 1125 57 l 1159 62 l 1164 61 l 1148 47 q 1116 28 1140 42 q 1090 16 1100 20 q 1068 7 1080 12 q 979 -8 1025 -4 m 570 389 q 670 615 637 553 q 867 801 736 743 l 871 799 l 868 797 q 779 651 827 767 l 706 424 q 662 301 684 352 q 613 203 640 243 q 459 47 557 106 q 211 -8 365 -5 q 69 33 119 -8 q 26 119 28 68 q 97 228 26 184 q 247 271 166 268 l 258 271 l 269 266 l 272 262 q 116 223 183 262 q 48 122 50 186 q 80 50 48 80 q 200 13 121 13 q 384 81 306 13 q 570 389 465 154 "},"±":{"x_min":22,"x_max":380,"ha":400,"o":"m 273 429 l 278 430 l 284 426 l 279 422 q 239 370 256 410 l 231 337 l 228 300 l 334 284 q 370 292 349 284 l 380 297 l 375 287 q 323 257 358 270 q 287 249 289 250 q 272 248 282 249 q 256 247 261 247 l 220 249 q 179 163 203 193 q 127 113 158 133 l 118 111 l 121 119 q 156 188 142 139 l 173 258 l 114 270 l 88 276 l 63 277 l 35 273 l 26 272 l 22 275 l 31 284 q 142 308 68 306 l 183 306 q 212 375 186 339 q 273 429 238 409 m 292 41 q 328 48 314 41 l 334 49 l 340 45 l 334 37 q 284 15 322 29 l 230 5 l 192 6 l 163 16 q 84 30 125 28 l 48 26 l 42 25 l 34 29 l 42 35 l 103 58 l 146 65 l 184 63 q 212 54 192 63 l 249 45 l 292 41 "},"ì":{"x_min":-24,"x_max":827,"ha":817,"o":"m 296 251 q 402 381 350 338 q 470 422 420 396 l 470 375 l 463 318 q 432 218 463 293 l 396 113 l 384 72 l 378 38 q 395 16 378 22 q 436 79 407 16 l 507 236 q 607 381 553 331 q 675 422 634 407 l 674 380 q 671 347 674 358 q 666 319 669 330 q 657 280 666 307 q 639 218 652 250 l 616 133 l 606 66 q 648 12 606 12 q 735 84 673 12 q 811 186 772 129 l 815 190 l 827 177 l 825 173 l 740 59 q 645 -7 685 -7 q 559 26 595 -7 q 527 121 529 57 q 539 215 527 166 q 574 305 552 261 l 587 333 l 603 358 l 568 316 q 545 277 562 307 q 523 230 535 260 q 391 -3 423 -3 q 332 26 357 -3 q 310 106 312 54 l 314 160 l 320 188 l 334 226 l 363 291 l 405 358 l 356 302 l 312 240 l 202 73 q 56 -7 138 -4 q -24 51 -21 -7 q -7 87 -24 70 q 32 106 7 100 q 70 92 54 106 q 85 52 83 82 q 80 25 85 35 q 56 5 76 17 q 213 116 134 5 l 296 251 "},"|":{"x_min":-22,"x_max":330,"ha":233,"o":"m -22 -139 l 312 781 l 330 781 l -3 -139 l -22 -139 "},"§":{"x_min":-65.453125,"x_max":755.671875,"ha":678,"o":"m 416 627 q 481 841 416 768 q 633 907 537 905 q 722 879 688 907 q 755 816 755 852 q 737 769 755 791 q 689 748 721 748 q 643 766 661 748 q 626 812 626 785 q 637 851 626 834 q 675 880 648 867 q 632 890 658 887 q 552 863 581 890 q 514 734 516 826 l 514 702 q 516 673 514 681 l 519 639 l 536 503 l 541 437 l 543 401 q 494 180 543 255 q 300 77 434 79 l 300 55 q 219 -177 300 -97 q 52 -246 153 -243 q -30 -220 2 -246 q -65 -158 -62 -198 q -47 -106 -65 -129 q 0 -86 -30 -86 q 43 -105 27 -86 q 58 -154 56 -122 q 45 -192 58 -171 q 8 -221 35 -213 l 31 -227 l 54 -230 q 198 -25 196 -230 l 197 21 q 190 87 197 67 l 182 164 l 179 273 q 252 464 179 378 q 419 573 312 533 l 416 627 m 447 279 l 447 297 q 446 355 447 336 q 440 409 446 386 q 437 455 440 444 q 430 498 437 476 l 420 558 q 322 495 372 542 q 270 362 272 439 q 278 261 270 325 q 297 92 294 138 q 399 125 376 105 q 447 279 445 161 "},"й":{"x_min":45,"x_max":617,"ha":597,"o":"m 233 640 q 274 680 233 678 q 311 638 311 680 q 293 598 311 623 q 392 562 331 564 q 496 594 447 562 q 485 627 491 599 q 497 662 485 647 q 530 677 509 675 q 557 666 546 677 q 569 637 569 658 q 555 606 569 622 q 521 577 543 592 q 454 548 485 559 q 439 545 448 547 q 423 541 429 543 q 407 540 419 540 q 390 538 396 539 q 272 577 323 538 q 233 640 235 604 m 612 205 l 617 200 q 611 183 614 187 q 526 64 562 104 q 408 -8 465 -5 q 329 12 354 -8 q 305 76 307 32 l 309 115 q 315 137 309 123 q 325 165 322 157 l 336 194 l 356 236 l 329 190 l 297 137 q 228 47 256 78 q 138 -8 178 -5 q 45 93 47 -8 q 53 151 45 117 q 79 225 61 185 l 154 395 l 286 404 l 171 173 l 135 98 q 121 41 126 69 q 150 12 121 12 q 211 51 170 12 q 283 145 241 81 l 346 251 l 392 335 l 419 395 l 555 404 l 413 123 q 386 43 388 69 q 413 8 386 10 q 537 106 462 8 q 595 191 560 134 l 605 201 l 612 205 "},"q":{"x_min":-33,"x_max":490,"ha":479,"o":"m 82 -7 q 8 24 36 -7 q -16 106 -16 57 q 70 295 -16 208 q 261 382 157 379 q 315 369 298 382 q 340 331 331 359 l 359 367 l 463 379 l 170 -198 l 201 -157 l 263 -82 l 391 66 q 474 173 463 151 l 482 180 l 490 174 l 487 163 q 382 31 475 141 l 231 -144 q 122 -301 148 -244 l 75 -400 l -33 -400 l 209 73 q 154 17 181 36 q 82 -7 121 -7 m 123 201 l 84 119 q 63 41 63 69 q 96 11 63 13 q 174 63 122 11 q 251 157 228 114 l 326 304 q 315 347 326 329 q 276 363 304 363 q 186 302 234 363 q 123 201 155 262 "},"b":{"x_min":-7,"x_max":462,"ha":437,"o":"m 359 750 l 462 759 l 158 161 q 121 48 124 94 q 160 6 121 6 q 240 34 198 6 q 316 108 284 64 q 283 169 294 132 q 270 245 270 206 q 291 329 270 296 q 357 363 311 361 q 421 302 419 363 q 396 215 421 268 q 335 115 372 159 q 355 106 344 106 q 391 122 371 106 q 434 174 410 137 l 442 182 l 448 176 l 442 162 l 427 137 q 398 108 414 121 l 380 98 l 357 92 q 326 101 347 92 q 255 27 307 71 q 159 -11 207 -8 q 80 19 108 -11 q 52 98 54 46 l 56 141 l 77 194 l 181 399 l 78 265 l 8 165 l 1 158 l -7 165 l -4 174 l 117 343 l 230 494 l 359 750 m 289 223 q 298 168 289 200 q 324 122 306 138 l 349 159 l 373 202 q 392 263 390 237 q 352 298 392 296 q 303 277 324 298 q 289 223 291 254 "},"Ж":{"x_min":-20.6875,"x_max":1454,"ha":1289,"o":"m 1244 853 l 1185 675 l 1146 548 l 1116 440 l 1089 329 l 1073 240 l 1066 176 l 1063 122 q 1076 43 1063 74 q 1122 12 1088 14 q 1221 87 1163 12 l 1288 194 l 1297 201 l 1301 202 l 1308 196 l 1304 184 l 1233 69 q 1116 -8 1176 -5 q 998 46 1044 -8 q 959 193 961 99 q 1006 436 959 299 q 1027 496 1014 462 q 1055 563 1045 543 q 1088 638 1076 614 q 1111 680 1088 641 q 1144 741 1119 701 q 1169 781 1149 752 q 1192 817 1185 808 q 1102 739 1151 788 l 1038 673 l 971 594 q 798 337 856 449 q 685 0 736 217 l 564 0 q 592 92 581 56 q 624 184 609 149 q 655 276 648 258 q 692 377 663 300 q 852 767 775 600 q 837 751 844 759 q 824 738 830 744 q 794 702 805 717 l 727 610 q 596 416 673 534 l 484 243 l 433 166 q 423 153 427 159 q 412 137 419 147 q 392 112 400 119 q 273 16 342 49 q 99 -17 206 -17 q 12 9 46 -17 q -20 79 -20 36 q -13 116 -20 104 q 0 134 -10 132 l 6 123 l 4 108 l 0 79 q 29 22 0 49 q 101 3 56 5 q 259 59 195 3 q 381 227 326 118 q 422 323 385 234 q 485 479 461 424 q 534 642 519 583 q 557 785 554 734 q 458 890 557 890 q 357 842 404 890 q 314 721 316 797 q 302 702 314 708 q 293 731 299 705 q 348 866 293 810 q 480 921 405 921 q 587 886 546 921 q 633 750 633 844 q 594 529 633 653 l 561 430 q 518 324 541 373 q 737 655 675 568 l 880 848 l 919 917 l 1008 917 l 960 815 l 909 690 q 787 359 850 543 q 903 538 826 433 q 1037 701 972 630 q 1212 861 1135 807 q 1355 911 1287 911 q 1427 873 1396 911 q 1454 781 1451 833 q 1434 695 1454 732 q 1416 674 1426 674 l 1413 680 q 1420 700 1413 690 q 1436 777 1433 730 q 1415 856 1436 819 q 1362 893 1397 890 q 1298 883 1321 893 q 1244 853 1273 874 "},"®":{"x_min":243,"x_max":621,"ha":622,"o":"m 621 903 q 562 762 621 824 q 413 701 507 703 q 286 742 338 701 q 243 863 245 783 q 301 1005 243 943 q 448 1068 360 1068 q 572 1023 523 1068 q 621 903 618 982 m 259 863 q 415 718 259 718 q 549 773 498 718 q 603 903 600 828 q 559 1010 603 967 q 446 1052 518 1052 q 314 995 371 1052 q 271 935 285 966 q 259 863 259 906 m 470 985 q 514 936 511 985 q 498 895 514 910 q 449 878 486 878 l 415 878 l 476 785 l 458 785 l 396 878 l 382 878 l 357 785 l 342 785 l 396 985 l 470 985 m 455 892 q 486 901 472 892 q 498 936 498 911 q 470 969 498 969 l 407 969 l 386 892 l 455 892 "},"Н":{"x_min":105,"x_max":1405,"ha":1146,"o":"m 126 106 q 150 38 126 71 q 221 12 175 14 q 344 67 288 12 q 439 217 389 113 l 475 303 l 530 433 l 477 412 q 445 398 453 402 q 431 391 444 398 q 410 380 419 385 q 314 320 339 345 l 307 318 l 303 320 l 310 331 q 399 394 341 362 q 535 454 455 426 q 611 636 569 559 q 724 781 653 711 l 648 748 q 549 726 583 728 q 499 738 522 726 q 477 785 479 751 l 480 830 q 459 854 480 847 q 385 813 430 854 q 317 732 347 778 l 303 713 l 300 711 l 298 715 l 305 734 q 417 855 348 809 q 521 896 473 893 q 559 882 547 896 q 573 825 571 869 l 574 789 q 610 758 580 760 q 728 807 645 758 q 857 909 822 859 l 868 917 l 876 920 q 886 911 881 920 l 880 895 l 827 809 l 776 697 l 735 586 l 721 538 l 707 498 l 788 520 l 876 541 q 1112 848 979 744 q 1303 926 1210 924 q 1375 901 1344 926 q 1405 832 1405 876 q 1388 765 1405 794 q 1336 701 1371 735 q 1186 612 1288 661 q 1028 558 1106 579 l 964 407 l 927 312 l 896 224 q 881 170 886 190 q 873 138 876 151 q 864 80 864 103 q 914 15 864 17 q 1055 77 980 15 q 1142 190 1101 119 l 1152 198 l 1157 201 l 1163 196 l 1153 176 q 1032 34 1090 76 q 909 -5 978 -2 q 789 39 834 -5 q 749 169 751 83 q 867 519 749 279 l 816 509 l 776 500 q 698 475 745 493 q 497 121 606 238 q 221 -8 377 -8 q 135 24 167 -8 q 112 57 128 31 q 105 100 107 71 q 169 205 105 170 l 181 211 l 187 205 l 177 194 q 139 158 153 181 q 126 106 128 137 m 1302 701 q 1350 819 1348 743 q 1335 881 1350 862 q 1291 904 1323 901 q 1173 838 1221 904 q 1035 580 1135 789 q 1167 624 1095 589 q 1302 701 1259 664 "},"ф":{"x_min":21,"x_max":809,"ha":829,"o":"m 617 722 l 720 722 l 537 359 q 692 418 612 418 q 809 295 809 418 q 785 177 809 233 q 729 71 764 121 q 662 15 710 38 q 570 -5 618 -5 q 463 21 505 -5 q 401 92 421 46 l 164 -377 l 61 -377 l 281 60 q 223 13 257 34 q 191 3 210 9 q 155 0 174 0 q 58 35 96 0 q 21 135 21 71 q 47 251 21 190 q 115 355 72 315 q 288 429 186 427 q 376 409 344 429 q 433 359 407 398 l 617 722 m 320 394 q 259 380 286 394 q 209 335 233 367 q 149 228 182 301 q 115 84 117 142 q 126 39 115 54 q 164 24 135 26 q 235 45 202 24 q 316 127 269 66 l 415 322 q 381 372 411 349 q 360 384 373 377 q 320 394 343 391 m 524 37 q 584 53 553 37 q 631 105 612 69 l 665 168 q 701 311 698 243 q 684 357 701 340 q 638 374 667 374 q 582 360 612 374 q 513 313 554 347 l 416 120 q 524 37 445 37 "},"л":{"x_min":-43,"x_max":548,"ha":535,"o":"m 235 173 q 313 284 268 217 l 345 338 l 380 404 l 499 414 l 427 205 q 392 68 394 96 q 403 44 392 49 q 530 186 438 44 l 535 191 l 548 184 l 543 177 q 446 46 490 92 q 356 0 401 2 q 313 16 329 0 q 299 78 301 32 q 321 210 299 130 l 346 286 q 359 320 350 297 q 378 359 368 343 q 245 154 342 287 l 181 73 q 37 -7 109 -4 q -19 8 3 -7 q -43 54 -40 21 q -26 92 -43 74 q 13 111 -12 109 q 66 55 64 111 q 60 27 66 38 q 37 8 56 20 q 112 39 72 8 q 235 173 151 66 "},"L":{"x_min":8.671875,"x_max":925,"ha":790,"o":"m 925 773 q 806 501 925 640 q 534 316 690 364 q 464 130 496 178 q 380 35 440 86 l 496 9 l 569 2 q 667 36 613 2 q 787 178 715 72 l 795 186 l 805 180 l 798 164 q 709 47 749 83 q 573 -12 647 -10 l 530 -12 l 505 -6 l 360 22 q 161 -34 279 -32 q 8 37 10 -34 q 27 82 8 66 q 95 99 49 99 q 191 86 134 99 l 278 60 q 345 177 316 107 l 362 228 q 373 266 367 253 q 389 311 377 278 q 233 362 307 311 q 146 538 146 425 q 259 786 146 672 q 559 908 384 906 l 581 909 l 598 908 l 601 905 l 598 902 l 572 895 q 420 859 486 895 q 293 754 354 825 q 205 520 207 646 q 252 389 205 442 q 395 329 303 331 q 548 698 454 559 q 830 878 668 878 q 898 848 871 878 q 925 773 922 821 m 836 861 q 677 755 744 861 q 588 532 632 687 l 538 337 q 789 530 689 390 q 882 791 879 662 q 870 843 882 826 q 836 861 863 858 m 94 82 q 28 38 28 82 q 51 1 28 15 q 113 -11 77 -11 q 193 2 151 -11 q 264 45 236 17 l 173 69 q 94 82 122 82 "},"Щ":{"x_min":222,"x_max":1709.6875,"ha":1532,"o":"m 1543 41 l 1548 35 l 1545 27 l 1502 -5 l 1463 -30 l 1451 -94 q 1429 -165 1443 -140 q 1365 -223 1408 -223 q 1320 -173 1322 -223 q 1365 -77 1320 -121 q 1445 -14 1396 -44 l 1457 31 l 1466 73 q 1411 10 1437 30 q 1340 -8 1385 -5 q 1248 27 1277 -8 q 1225 106 1227 52 q 1227 149 1225 141 l 1239 193 q 1138 82 1223 162 q 973 -8 1040 -5 q 877 26 908 -8 q 852 103 852 56 l 853 139 q 863 171 853 152 q 791 72 841 126 q 652 -7 718 -7 q 525 40 568 -7 q 489 155 491 80 l 491 198 q 505 251 493 220 q 609 469 529 321 l 670 563 l 709 628 q 762 793 759 717 q 724 897 762 855 q 614 939 688 939 q 344 805 460 939 q 240 559 240 685 q 269 464 240 505 q 360 430 297 432 q 510 560 452 430 q 557 771 555 666 l 556 793 l 556 798 l 559 809 l 562 813 l 567 809 l 575 792 q 592 674 592 736 q 541 493 592 560 q 360 413 481 415 q 256 454 291 413 q 222 561 224 495 q 329 818 222 694 q 613 956 447 956 q 798 883 730 956 q 858 714 855 818 q 828 573 858 651 q 756 428 807 514 l 680 301 q 589 83 591 153 q 652 15 589 17 q 831 160 723 15 q 903 276 868 213 l 1213 890 l 1344 900 l 976 174 q 941 60 943 105 q 985 15 941 15 q 1130 109 1027 15 q 1270 276 1230 200 l 1580 890 l 1709 900 l 1343 174 q 1308 60 1310 106 q 1351 15 1308 15 q 1427 53 1392 15 l 1466 107 l 1479 121 l 1483 123 l 1488 116 q 1479 52 1488 88 l 1466 -4 l 1505 15 q 1543 41 1527 27 m 1441 -39 l 1379 -89 q 1348 -128 1359 -109 q 1340 -172 1340 -145 q 1366 -204 1340 -202 q 1409 -158 1382 -204 l 1424 -109 q 1441 -39 1433 -84 "}," ":{"x_min":0,"x_max":0,"ha":278},"À":{"x_min":14,"x_max":1177.828125,"ha":1032,"o":"m 465 158 q 619 336 553 248 l 572 338 q 543 348 543 338 l 550 350 l 568 355 l 637 358 l 940 731 q 1172 956 1144 956 l 1177 947 l 1169 907 q 1159 879 1165 893 q 1141 836 1154 863 l 1057 644 l 969 446 l 930 349 l 979 345 l 1029 345 q 1043 335 1041 345 q 1023 321 1043 323 l 921 324 l 874 198 q 850 74 850 115 q 870 37 850 37 q 937 73 898 37 q 1030 192 979 111 l 1039 199 l 1043 200 l 1048 193 l 1045 183 q 950 52 997 99 q 812 -15 884 -12 q 733 6 757 -15 q 709 76 711 28 q 760 263 709 147 l 790 325 l 643 336 q 462 131 575 244 q 348 33 407 76 q 198 -17 274 -17 q 57 12 103 -17 q 14 114 16 40 q 79 220 14 177 q 223 263 142 261 l 243 261 q 254 259 251 261 l 257 256 q 101 217 170 256 q 33 115 35 180 q 74 26 33 59 q 198 0 119 2 q 347 51 269 0 q 465 158 399 85 m 802 353 l 858 459 q 994 695 949 624 q 1058 801 1024 750 q 1130 909 1095 860 l 1029 805 l 948 719 l 801 538 l 658 356 l 802 353 "},"+":{"x_min":22,"x_max":380,"ha":400,"o":"m 273 395 l 278 397 l 284 392 l 279 388 q 239 337 256 376 l 231 304 l 228 266 l 334 251 q 370 259 348 251 l 380 263 l 375 254 q 323 223 359 237 q 307 220 321 223 q 287 216 293 218 q 272 215 282 216 q 256 213 261 214 l 220 216 q 179 130 203 161 q 127 80 158 100 l 118 77 l 121 86 q 156 155 142 106 l 173 225 l 114 237 l 88 243 l 63 244 l 35 240 l 26 239 l 22 241 l 31 251 q 142 275 69 272 l 183 273 q 212 341 187 305 q 273 395 238 376 "},"½":{"x_min":26.4375,"x_max":1112,"ha":873,"o":"m 488 332 q 273 393 358 332 q 169 606 169 466 q 275 859 169 752 q 570 972 388 972 l 588 970 l 595 968 l 588 965 l 570 959 q 296 812 384 943 q 240 591 242 727 q 316 407 240 470 q 495 349 384 349 l 531 350 l 578 509 q 670 722 620 632 q 794 872 722 815 q 995 951 889 951 q 1075 917 1038 951 q 1112 827 1109 888 q 1081 714 1112 775 q 1063 680 1066 685 q 1040 645 1053 662 q 1010 607 1026 624 q 974 568 995 587 q 796 421 891 481 q 681 366 742 388 q 609 189 648 253 q 470 44 555 93 q 356 0 423 17 q 221 -17 303 -14 q 70 31 125 -17 q 26 121 28 69 q 51 190 26 163 q 112 218 75 216 q 161 197 137 218 q 185 143 183 179 q 160 73 185 111 q 91 43 136 45 l 142 13 l 173 6 l 210 4 q 420 125 322 4 q 524 333 487 213 l 488 332 m 687 385 q 798 442 752 411 q 953 572 882 492 q 1024 691 997 620 q 1054 826 1054 765 q 1036 902 1054 876 q 979 930 1020 928 l 938 926 q 895 911 914 921 q 817 851 858 894 q 742 637 774 801 q 687 385 705 433 "},"Ë":{"x_min":23,"x_max":1187.828125,"ha":1024,"o":"m 719 55 q 765 237 719 116 q 869 459 810 354 l 950 602 l 1025 730 q 1143 911 1102 860 l 1053 819 l 958 719 q 810 541 919 676 l 635 321 q 474 131 532 194 q 358 32 418 74 q 210 -17 283 -17 q 70 19 118 -17 q 23 111 25 54 q 92 221 23 178 q 240 263 163 263 l 254 263 l 263 260 l 266 257 q 110 216 178 257 q 42 108 44 177 q 83 31 42 71 q 209 0 123 2 q 358 51 280 0 q 382 69 367 58 q 412 94 391 75 q 440 120 426 108 q 475 158 453 133 q 637 349 532 219 l 802 556 q 889 662 858 628 q 951 732 917 696 l 1096 887 q 1182 958 1162 958 l 1187 950 q 1151 834 1187 923 l 1068 644 l 983 447 l 900 226 q 855 61 857 105 q 868 39 855 45 l 873 40 q 955 98 911 51 l 1021 195 l 1032 202 l 1039 192 l 1036 183 q 959 73 998 117 q 876 2 914 19 q 800 -14 841 -14 q 730 12 755 -14 q 719 55 721 23 "},"'":{"x_min":200,"x_max":323,"ha":239,"o":"m 202 555 l 200 559 l 202 569 q 210 585 206 576 q 220 606 214 594 q 242 656 227 619 l 267 726 q 296 751 276 751 q 314 744 306 751 q 323 726 323 738 q 312 698 323 711 l 263 641 q 253 624 261 638 q 235 598 244 611 q 212 562 225 584 l 202 555 "},"Š":{"x_min":23,"x_max":1382,"ha":1390,"o":"m 475 131 q 359 32 422 75 q 209 -17 282 -17 q 70 20 125 -17 q 23 116 25 57 q 90 221 23 180 q 240 263 158 263 l 254 263 l 263 260 l 266 257 q 109 216 178 257 q 43 116 43 179 q 86 36 43 70 q 209 4 126 6 q 358 54 275 4 q 476 159 411 87 q 685 414 523 212 l 926 730 l 1077 931 l 1198 944 l 1088 693 l 1032 562 l 1093 580 q 1165 588 1125 588 q 1223 581 1208 588 q 1276 559 1248 577 q 1352 481 1324 529 q 1382 359 1382 435 q 1262 77 1382 184 q 1016 -14 1158 -14 q 847 44 913 -14 q 782 202 784 101 q 823 363 782 247 q 923 600 848 433 l 1044 860 l 881 637 l 663 353 q 475 131 541 200 m 897 159 q 930 50 897 100 q 1012 7 963 9 q 1214 168 1129 7 q 1285 433 1285 303 q 1273 498 1285 473 q 1237 541 1265 525 q 1155 562 1205 562 q 1117 561 1126 562 q 1079 552 1105 561 l 1020 534 l 974 423 l 926 298 q 897 159 897 208 "},"Р":{"x_min":22,"x_max":1018,"ha":807,"o":"m 22 118 q 89 222 22 181 q 240 263 158 263 l 254 263 l 262 261 l 264 258 l 260 255 q 109 217 177 255 q 44 117 46 180 q 88 36 44 68 q 197 7 132 7 q 465 203 376 7 l 523 359 l 475 345 q 458 340 464 342 q 444 334 453 340 l 412 317 l 402 315 l 400 317 l 409 325 q 473 358 441 344 l 529 378 l 573 504 q 701 742 628 651 q 815 854 748 804 l 786 864 l 740 873 l 681 879 l 655 880 q 274 747 419 880 q 151 500 153 637 q 178 407 151 441 q 262 374 206 374 q 438 506 362 374 q 504 724 502 616 l 505 732 l 508 735 l 516 693 l 519 640 q 469 452 519 527 q 269 354 405 356 q 164 396 200 354 q 131 503 133 436 q 259 761 131 640 q 434 865 334 829 q 656 900 533 897 q 770 895 743 900 l 809 889 l 854 874 l 891 889 l 937 896 l 965 895 l 959 893 q 912 880 942 893 l 887 864 q 966 814 939 846 q 1018 690 1015 764 q 926 500 1018 579 q 754 415 879 465 l 709 401 l 669 393 q 477 74 602 181 q 205 -14 370 -11 q 70 20 121 -14 q 22 118 24 55 m 852 831 q 773 696 808 771 q 676 413 729 601 q 729 426 703 417 q 861 501 813 455 q 914 675 911 558 q 896 771 914 735 q 852 831 879 808 "},"ð":{"x_min":-222.296875,"x_max":555.03125,"ha":542,"o":"m 223 251 l -120 -414 l -222 -414 l 239 484 l 105 305 l 8 170 l -4 161 q -13 170 -11 161 l -8 183 l 116 355 q 276 561 199 467 l 331 667 l 444 687 l 273 349 q 320 390 291 367 q 329 393 321 390 q 347 401 336 396 q 386 408 359 405 q 462 373 429 408 q 494 292 491 341 q 468 209 494 255 q 392 133 444 166 q 313 38 313 83 q 352 8 313 10 q 459 80 389 8 q 538 190 505 132 l 548 195 l 555 186 l 548 170 q 459 53 483 78 q 338 -8 403 -5 q 262 11 288 -8 q 239 62 241 29 q 297 161 239 115 q 388 261 355 206 q 418 345 418 307 q 379 393 418 390 q 301 352 345 393 q 223 251 262 317 "},"щ":{"x_min":-11,"x_max":868,"ha":853,"o":"m 685 -7 q 608 15 636 -7 q 581 90 583 37 q 601 173 581 128 l 627 236 l 570 137 q 502 44 529 72 q 412 -7 457 -4 q 311 85 313 -7 q 329 172 311 120 l 355 236 l 297 137 q 204 28 249 65 q 132 -8 164 -5 q 65 21 90 -8 q 41 96 43 48 q 72 205 41 142 l 137 344 l 76 268 l 5 173 l 0 166 l -11 174 l -5 186 l 58 272 l 151 395 l 286 404 l 147 130 l 132 86 q 123 43 123 61 q 145 12 123 14 q 209 51 171 12 q 283 145 236 77 l 345 249 l 391 335 l 419 395 l 554 404 l 412 123 q 395 83 401 102 q 390 43 392 70 q 415 8 390 10 q 502 69 453 8 l 556 145 l 618 248 l 663 335 l 691 395 l 827 404 l 685 123 l 666 83 l 656 40 q 690 8 656 10 q 751 25 722 8 l 773 45 q 797 77 782 54 l 806 87 l 812 91 l 816 86 l 797 -8 l 859 23 l 865 25 l 868 20 l 863 12 l 832 -8 l 794 -27 q 790 -52 794 -37 q 783 -83 790 -67 l 775 -118 q 715 -186 756 -184 q 687 -173 701 -186 q 677 -140 682 -166 q 716 -66 677 -107 q 780 -17 724 -58 l 793 45 q 747 3 776 16 q 685 -7 725 -4 m 694 -140 q 716 -172 694 -166 q 751 -134 732 -172 q 776 -37 763 -101 q 713 -91 728 -74 q 694 -140 696 -114 "},"ä":{"x_min":-190,"x_max":530.25,"ha":515,"o":"m 224 82 q 160 17 199 43 q 78 -7 123 -7 q 12 27 38 -7 q -14 115 -12 59 q 68 311 -14 218 q 293 411 160 411 q 349 394 326 411 q 367 359 361 386 l 385 396 l 499 408 l 284 -15 q 438 88 369 5 l 513 191 l 521 197 q 530 186 530 197 l 523 173 q 421 40 450 67 q 276 -35 369 -12 l 163 -254 q 52 -379 121 -336 q -93 -423 -14 -421 q -165 -395 -141 -423 q -190 -326 -190 -370 q -126 -190 -190 -256 q 158 -45 -45 -106 l 224 82 m 299 393 q 145 236 232 393 q 68 37 70 96 q 92 13 68 15 q 169 52 122 13 q 256 151 216 90 l 353 334 q 341 376 353 359 q 299 393 328 393 m 149 -68 q -56 -180 34 -100 q -145 -344 -142 -259 q -132 -387 -145 -368 q -92 -405 -120 -403 q -8 -357 -48 -405 q 65 -233 14 -330 l 149 -68 "},"Т":{"x_min":26,"x_max":1683.5,"ha":1421,"o":"m 945 844 l 766 877 q 631 893 670 893 q 328 770 453 893 q 249 662 277 720 q 223 549 225 610 q 248 467 223 505 q 323 437 272 439 q 485 559 423 437 q 538 765 536 657 l 541 776 l 544 773 l 553 754 l 562 726 l 569 693 l 570 658 q 519 494 570 560 q 328 414 457 416 q 234 449 270 414 q 204 544 206 486 q 321 787 204 667 q 659 920 456 917 l 1013 899 l 1126 895 l 1227 893 l 1490 880 q 1597 893 1560 880 q 1683 954 1634 905 q 1672 920 1678 932 q 1651 885 1666 903 q 1585 821 1630 850 q 1546 807 1577 817 q 1491 795 1528 802 q 1397 792 1490 795 q 1176 805 1283 792 q 1130 809 1151 807 q 1069 821 1103 813 l 945 844 m 1187 -8 q 1079 29 1116 -8 q 1029 197 1029 77 q 1105 468 1029 323 q 1277 697 1172 599 l 1308 722 l 1339 743 q 1415 781 1370 762 l 1419 779 l 1412 772 q 1229 533 1320 703 q 1139 225 1141 369 q 1147 144 1139 180 q 1174 90 1156 110 q 1273 48 1210 48 l 1326 53 l 1368 61 l 1355 47 q 1187 -8 1271 -5 m 690 0 q 721 91 701 37 q 769 211 741 144 q 835 364 797 278 q 902 511 890 483 q 997 711 975 667 q 1054 761 1010 737 l 1131 794 l 1131 787 q 1015 566 1086 725 q 893 258 968 461 l 853 147 l 806 0 l 690 0 m 548 333 l 631 538 q 720 697 678 648 q 788 759 756 739 q 867 801 820 780 q 769 622 822 763 l 678 352 q 595 176 641 252 q 468 51 540 92 q 348 5 419 22 l 279 -4 l 211 -8 q 63 33 115 -8 q 26 120 26 67 q 94 226 26 183 q 241 271 158 268 l 257 271 l 269 264 l 271 262 q 116 223 183 262 q 48 122 50 186 q 98 38 48 73 q 200 13 137 13 q 415 110 321 13 q 548 333 482 182 "},"¹":{"x_min":-20.6875,"x_max":1357.125,"ha":1350,"o":"m 1357 471 q 1293 317 1357 391 q 1137 235 1225 237 q 1059 264 1095 235 q 1030 346 1030 293 q 1097 500 1030 422 q 1251 578 1162 575 q 1333 544 1300 578 q 1357 471 1355 516 m 980 143 l 965 132 l 961 134 l 966 147 q 998 180 975 169 q 1051 193 1023 193 l 1076 191 q 1123 179 1084 191 l 1198 156 q 1244 178 1226 156 l 1253 185 l 1261 180 l 1258 172 q 1219 139 1249 154 q 1165 125 1193 127 q 1094 134 1118 125 l 1058 150 l 1013 160 q 980 143 997 160 m 429 279 q 546 493 491 375 l 630 703 l 746 703 l 746 63 q 836 302 796 219 q 969 536 899 442 q 1162 709 1049 642 q 1197 722 1178 718 l 1243 727 q 1309 683 1309 727 q 1294 652 1309 666 q 1249 640 1279 640 q 1202 651 1222 640 q 1169 680 1181 662 q 982 505 1069 630 q 912 394 954 465 l 843 252 q 746 0 814 183 l 617 0 l 617 590 q 601 550 610 569 q 582 507 590 521 l 550 437 q 450 260 512 353 q 302 82 380 152 q 102 -8 204 -5 q 13 17 51 -8 q -20 86 -18 41 q 2 151 -20 124 q 73 178 26 176 q 131 154 108 178 q 155 94 153 132 q 102 19 155 35 q 270 92 184 19 q 429 279 351 156 m 1304 511 q 1290 546 1304 532 q 1244 561 1279 559 q 1176 532 1208 561 q 1144 473 1166 521 l 1102 352 l 1088 300 q 1098 264 1088 279 q 1139 251 1109 251 q 1209 279 1181 251 q 1247 339 1233 300 l 1282 433 l 1304 511 "}}}
